<svg width="660" height="104" viewBox="0 0 660 104" fill="none" xmlns="http://www.w3.org/2000/svg">
<g filter="url(#filter0_d)">
<path d="M7.19237 9.18345C7.62827 9.18345 8.03303 9.1205 8.40666 8.99459C8.79586 8.85294 9.09943 8.67195 9.31738 8.45161C9.62874 8.1211 9.8934 7.68829 10.1113 7.15318C10.3293 6.61807 10.4383 6.04361 10.4383 5.4298C10.4383 4.83174 10.3293 4.28876 10.1113 3.80086C9.90896 3.29723 9.64431 2.84868 9.31738 2.45522C9.05273 2.18766 8.7258 1.98306 8.33661 1.84141C7.96298 1.68403 7.55043 1.60533 7.09896 1.60533H4.29674V9.18345H7.19237ZM4.29674 10.5527V15.7228L6.51516 16.2186V17.2337H0V16.2186L1.96155 15.7228V1.74698L0 1.25122V0.236078H7.72946C8.46115 0.236078 9.12278 0.338379 9.71436 0.54298C10.3215 0.731844 10.8275 1.00727 11.2322 1.36926C11.7771 1.87289 12.2052 2.46309 12.5166 3.13984C12.8435 3.8166 13.007 4.53271 13.007 5.28816C13.007 6.07509 12.8357 6.83841 12.4932 7.57812C12.1663 8.30209 11.7304 8.90803 11.1855 9.39592C10.7808 9.75791 10.2748 10.0412 9.66766 10.2458C9.06051 10.4504 8.40666 10.5527 7.70611 10.5527H4.29674Z" transform="translate(8 22.8851) scale(2)" fill="white"/>
<path d="M7.19237 9.18345C7.62827 9.18345 8.03303 9.1205 8.40666 8.99459C8.79586 8.85294 9.09943 8.67195 9.31738 8.45161C9.62874 8.1211 9.8934 7.68829 10.1113 7.15318C10.3293 6.61807 10.4383 6.04361 10.4383 5.4298C10.4383 4.83174 10.3293 4.28876 10.1113 3.80086C9.90896 3.29723 9.64431 2.84868 9.31738 2.45522C9.05273 2.18766 8.7258 1.98306 8.33661 1.84141C7.96298 1.68403 7.55043 1.60533 7.09896 1.60533H4.29674V9.18345H7.19237ZM4.29674 10.5527V15.7228L6.51516 16.2186V17.2337H0V16.2186L1.96155 15.7228V1.74698L0 1.25122V0.236078H7.72946C8.46115 0.236078 9.12278 0.338379 9.71436 0.54298C10.3215 0.731844 10.8275 1.00727 11.2322 1.36926C11.7771 1.87289 12.2052 2.46309 12.5166 3.13984C12.8435 3.8166 13.007 4.53271 13.007 5.28816C13.007 6.07509 12.8357 6.83841 12.4932 7.57812C12.1663 8.30209 11.7304 8.90803 11.1855 9.39592C10.7808 9.75791 10.2748 10.0412 9.66766 10.2458C9.06051 10.4504 8.40666 10.5527 7.70611 10.5527H4.29674Z" transform="translate(8 22.8851) scale(2)" fill="url(#paint0_linear)"/>
<path d="M33.1596 8.21553C32.8794 8.43587 32.5525 8.62473 32.1788 8.78212C31.8052 8.9395 31.3459 9.07328 30.8011 9.18345C31.0813 9.46675 31.3927 9.89169 31.7351 10.4583L34.8409 15.77L36.9193 16.2186V17.2337H32.1088V16.2186L28.7461 9.60839H25.8972V15.7228L28.1156 16.2186V17.2337H21.6005V16.2186L23.562 15.7228V1.74698L21.6005 1.25122V0.236078H29.6335C30.3807 0.236078 31.0346 0.306902 31.595 0.448549C32.1555 0.590196 32.6614 0.818406 33.1129 1.13318C33.6889 1.5109 34.1326 2.03028 34.444 2.69129C34.7709 3.35231 34.9343 4.01333 34.9343 4.67435C34.9343 5.33537 34.7709 5.98852 34.444 6.6338C34.1326 7.26335 33.7045 7.79059 33.1596 8.21553ZM29.2365 8.23914C30.0927 8.23914 30.8011 7.99519 31.3615 7.50729C31.6729 7.224 31.9142 6.84628 32.0854 6.37412C32.2722 5.88622 32.3656 5.36685 32.3656 4.816C32.3656 4.26515 32.2722 3.76939 32.0854 3.32871C31.9142 2.87229 31.6651 2.50243 31.3382 2.21914C31.0735 1.9988 30.7622 1.84141 30.4041 1.74698C30.0616 1.65255 29.6413 1.60533 29.1431 1.60533H25.8972V8.23914H29.2365Z" transform="translate(8 22.8851) scale(2)" fill="white"/>
<path d="M33.1596 8.21553C32.8794 8.43587 32.5525 8.62473 32.1788 8.78212C31.8052 8.9395 31.3459 9.07328 30.8011 9.18345C31.0813 9.46675 31.3927 9.89169 31.7351 10.4583L34.8409 15.77L36.9193 16.2186V17.2337H32.1088V16.2186L28.7461 9.60839H25.8972V15.7228L28.1156 16.2186V17.2337H21.6005V16.2186L23.562 15.7228V1.74698L21.6005 1.25122V0.236078H29.6335C30.3807 0.236078 31.0346 0.306902 31.595 0.448549C32.1555 0.590196 32.6614 0.818406 33.1129 1.13318C33.6889 1.5109 34.1326 2.03028 34.444 2.69129C34.7709 3.35231 34.9343 4.01333 34.9343 4.67435C34.9343 5.33537 34.7709 5.98852 34.444 6.6338C34.1326 7.26335 33.7045 7.79059 33.1596 8.21553ZM29.2365 8.23914C30.0927 8.23914 30.8011 7.99519 31.3615 7.50729C31.6729 7.224 31.9142 6.84628 32.0854 6.37412C32.2722 5.88622 32.3656 5.36685 32.3656 4.816C32.3656 4.26515 32.2722 3.76939 32.0854 3.32871C31.9142 2.87229 31.6651 2.50243 31.3382 2.21914C31.0735 1.9988 30.7622 1.84141 30.4041 1.74698C30.0616 1.65255 29.6413 1.60533 29.1431 1.60533H25.8972V8.23914H29.2365Z" transform="translate(8 22.8851) scale(2)" fill="url(#paint1_linear)"/>
<path d="M60.3935 8.54604C60.3935 9.93103 60.1911 11.2216 59.7864 12.4177C59.3816 13.6139 58.8056 14.6133 58.0583 15.4159C56.7973 16.7852 54.9992 17.4698 52.664 17.4698C50.2822 17.4698 48.4841 16.8088 47.2698 15.4867C46.5537 14.7313 46.001 13.787 45.6118 12.6538C45.2226 11.5049 45.028 10.2615 45.028 8.92377C45.028 7.53877 45.2304 6.24821 45.6351 5.05208C46.0399 3.85595 46.6159 2.85655 47.3632 2.05388C48.017 1.34565 48.7721 0.826275 49.6283 0.495765C50.5001 0.165255 51.5276 0 52.7108 0C55.0615 0 56.8674 0.66102 58.1284 1.98306C58.8601 2.73851 59.4205 3.69069 59.8097 4.83961C60.1989 5.97278 60.3935 7.20826 60.3935 8.54604ZM47.7135 8.45161C47.7135 9.77365 47.8224 10.9383 48.0404 11.9456C48.2583 12.9528 48.5697 13.7791 48.9745 14.4244C49.7529 15.589 51.0216 16.1714 52.7808 16.1714C54.431 16.1714 55.6453 15.652 56.4237 14.6133C57.2799 13.4329 57.708 11.5206 57.708 8.87655C57.708 7.57025 57.5991 6.42133 57.3811 5.4298C57.1632 4.43827 56.844 3.63561 56.4237 3.0218C55.6142 1.85715 54.3532 1.27482 52.6407 1.27482C51.0061 1.27482 49.7918 1.7942 48.9978 2.83294C48.1416 3.98186 47.7135 5.85475 47.7135 8.45161Z" transform="translate(8 22.8851) scale(2)" fill="white"/>
<path d="M60.3935 8.54604C60.3935 9.93103 60.1911 11.2216 59.7864 12.4177C59.3816 13.6139 58.8056 14.6133 58.0583 15.4159C56.7973 16.7852 54.9992 17.4698 52.664 17.4698C50.2822 17.4698 48.4841 16.8088 47.2698 15.4867C46.5537 14.7313 46.001 13.787 45.6118 12.6538C45.2226 11.5049 45.028 10.2615 45.028 8.92377C45.028 7.53877 45.2304 6.24821 45.6351 5.05208C46.0399 3.85595 46.6159 2.85655 47.3632 2.05388C48.017 1.34565 48.7721 0.826275 49.6283 0.495765C50.5001 0.165255 51.5276 0 52.7108 0C55.0615 0 56.8674 0.66102 58.1284 1.98306C58.8601 2.73851 59.4205 3.69069 59.8097 4.83961C60.1989 5.97278 60.3935 7.20826 60.3935 8.54604ZM47.7135 8.45161C47.7135 9.77365 47.8224 10.9383 48.0404 11.9456C48.2583 12.9528 48.5697 13.7791 48.9745 14.4244C49.7529 15.589 51.0216 16.1714 52.7808 16.1714C54.431 16.1714 55.6453 15.652 56.4237 14.6133C57.2799 13.4329 57.708 11.5206 57.708 8.87655C57.708 7.57025 57.5991 6.42133 57.3811 5.4298C57.1632 4.43827 56.844 3.63561 56.4237 3.0218C55.6142 1.85715 54.3532 1.27482 52.6407 1.27482C51.0061 1.27482 49.7918 1.7942 48.9978 2.83294C48.1416 3.98186 47.7135 5.85475 47.7135 8.45161Z" transform="translate(8 22.8851) scale(2)" fill="url(#paint2_linear)"/>
<path d="M78.2093 11.6151L77.789 9.20706H73.9126V15.8173H80.9648L81.6887 11.9692H83.0432V17.2337H69.3823V16.2186L71.5774 15.7228V1.74698L69.3823 1.25122V0.236078H82.5294V5.24094H81.3151L80.5679 1.60533H73.9126V7.79059H77.789L78.2093 5.38259H79.4003V11.6151H78.2093Z" transform="translate(8 22.8851) scale(2)" fill="white"/>
<path d="M78.2093 11.6151L77.789 9.20706H73.9126V15.8173H80.9648L81.6887 11.9692H83.0432V17.2337H69.3823V16.2186L71.5774 15.7228V1.74698L69.3823 1.25122V0.236078H82.5294V5.24094H81.3151L80.5679 1.60533H73.9126V7.79059H77.789L78.2093 5.38259H79.4003V11.6151H78.2093Z" transform="translate(8 22.8851) scale(2)" fill="url(#paint3_linear)"/>
<path d="M106.011 0.236078V5.19373H104.797L104.05 1.65255H100.22V15.652L102.695 16.2186V17.2337H95.4096V16.2186L97.8849 15.652V1.65255H94.0318L93.3079 5.19373H92.0936V0.236078H106.011Z" transform="translate(8 22.8851) scale(2)" fill="white"/>
<path d="M106.011 0.236078V5.19373H104.797L104.05 1.65255H100.22V15.652L102.695 16.2186V17.2337H95.4096V16.2186L97.8849 15.652V1.65255H94.0318L93.3079 5.19373H92.0936V0.236078H106.011Z" transform="translate(8 22.8851) scale(2)" fill="url(#paint4_linear)"/>
<path d="M128.387 0.236078V5.19373H127.173L126.426 1.65255H122.596V15.652L125.071 16.2186V17.2337H117.785V16.2186L120.261 15.652V1.65255H116.408L115.684 5.19373H114.469V0.236078H128.387Z" transform="translate(8 22.8851) scale(2)" fill="white"/>
<path d="M128.387 0.236078V5.19373H127.173L126.426 1.65255H122.596V15.652L125.071 16.2186V17.2337H117.785V16.2186L120.261 15.652V1.65255H116.408L115.684 5.19373H114.469V0.236078H128.387Z" transform="translate(8 22.8851) scale(2)" fill="url(#paint5_linear)"/>
<path d="M145.89 11.5206H139.631L138.207 15.7228L140.145 16.2186V17.2337H134.681V16.2186L136.596 15.7228L142.2 0H144.372L149.906 15.7228L151.774 16.2186V17.2337H145.353V16.2186L147.267 15.7228L145.89 11.5206ZM140.098 10.1514H145.446L142.924 2.1011H142.831L140.098 10.1514Z" transform="translate(8 22.8851) scale(2)" fill="white"/>
<path d="M145.89 11.5206H139.631L138.207 15.7228L140.145 16.2186V17.2337H134.681V16.2186L136.596 15.7228L142.2 0H144.372L149.906 15.7228L151.774 16.2186V17.2337H145.353V16.2186L147.267 15.7228L145.89 11.5206ZM140.098 10.1514H145.446L142.924 2.1011H142.831L140.098 10.1514Z" transform="translate(8 22.8851) scale(2)" fill="url(#paint6_linear)"/>
<path d="M213.289 8.54604C213.289 9.93103 213.086 11.2216 212.682 12.4177C212.277 13.6139 211.701 14.6133 210.954 15.4159C209.693 16.7852 207.894 17.4698 205.559 17.4698C203.177 17.4698 201.379 16.8088 200.165 15.4867C199.449 14.7313 198.896 13.787 198.507 12.6538C198.118 11.5049 197.923 10.2615 197.923 8.92377C197.923 7.53877 198.126 6.24821 198.53 5.05208C198.935 3.85595 199.511 2.85655 200.258 2.05388C200.912 1.34565 201.667 0.826275 202.524 0.495765C203.395 0.165255 204.423 0 205.606 0C207.957 0 209.763 0.66102 211.024 1.98306C211.755 2.73851 212.316 3.69069 212.705 4.83961C213.094 5.97278 213.289 7.20826 213.289 8.54604ZM200.609 8.45161C200.609 9.77365 200.718 10.9383 200.936 11.9456C201.154 12.9528 201.465 13.7791 201.87 14.4244C202.648 15.589 203.917 16.1714 205.676 16.1714C207.326 16.1714 208.541 15.652 209.319 14.6133C210.175 13.4329 210.603 11.5206 210.603 8.87655C210.603 7.57025 210.494 6.42133 210.276 5.4298C210.058 4.43827 209.739 3.63561 209.319 3.0218C208.509 1.85715 207.248 1.27482 205.536 1.27482C203.901 1.27482 202.687 1.7942 201.893 2.83294C201.037 3.98186 200.609 5.85475 200.609 8.45161Z" transform="translate(8 22.8851) scale(2)" fill="white"/>
<path d="M213.289 8.54604C213.289 9.93103 213.086 11.2216 212.682 12.4177C212.277 13.6139 211.701 14.6133 210.954 15.4159C209.693 16.7852 207.894 17.4698 205.559 17.4698C203.177 17.4698 201.379 16.8088 200.165 15.4867C199.449 14.7313 198.896 13.787 198.507 12.6538C198.118 11.5049 197.923 10.2615 197.923 8.92377C197.923 7.53877 198.126 6.24821 198.53 5.05208C198.935 3.85595 199.511 2.85655 200.258 2.05388C200.912 1.34565 201.667 0.826275 202.524 0.495765C203.395 0.165255 204.423 0 205.606 0C207.957 0 209.763 0.66102 211.024 1.98306C211.755 2.73851 212.316 3.69069 212.705 4.83961C213.094 5.97278 213.289 7.20826 213.289 8.54604ZM200.609 8.45161C200.609 9.77365 200.718 10.9383 200.936 11.9456C201.154 12.9528 201.465 13.7791 201.87 14.4244C202.648 15.589 203.917 16.1714 205.676 16.1714C207.326 16.1714 208.541 15.652 209.319 14.6133C210.175 13.4329 210.603 11.5206 210.603 8.87655C210.603 7.57025 210.494 6.42133 210.276 5.4298C210.058 4.43827 209.739 3.63561 209.319 3.0218C208.509 1.85715 207.248 1.27482 205.536 1.27482C203.901 1.27482 202.687 1.7942 201.893 2.83294C201.037 3.98186 200.609 5.85475 200.609 8.45161Z" transform="translate(8 22.8851) scale(2)" fill="url(#paint7_linear)"/>
<path d="M226.808 15.8173H233.16L233.954 11.7331H235.238V17.2337H222.278V16.2186L224.473 15.7228V1.74698L222.278 1.25122V0.236078H229.236V1.25122L226.808 1.74698V15.8173Z" transform="translate(8 22.8851) scale(2)" fill="white"/>
<path d="M226.808 15.8173H233.16L233.954 11.7331H235.238V17.2337H222.278V16.2186L224.473 15.7228V1.74698L222.278 1.25122V0.236078H229.236V1.25122L226.808 1.74698V15.8173Z" transform="translate(8 22.8851) scale(2)" fill="url(#paint8_linear)"/>
<path d="M248.499 15.7228L250.695 16.2186V17.2337H243.969V16.2186L246.164 15.7228V1.74698L243.969 1.25122V0.236078H250.695V1.25122L248.499 1.74698V15.7228Z" transform="translate(8 22.8851) scale(2)" fill="white"/>
<path d="M248.499 15.7228L250.695 16.2186V17.2337H243.969V16.2186L246.164 15.7228V1.74698L243.969 1.25122V0.236078H250.695V1.25122L248.499 1.74698V15.7228Z" transform="translate(8 22.8851) scale(2)" fill="url(#paint9_linear)"/>
<path d="M267.508 15.2743H267.602L271.945 1.74698L270.007 1.25122V0.236078H275.471V1.25122L273.557 1.74698L268.326 17.2337H266.037L260.363 1.74698L258.495 1.25122V0.236078H264.8V1.25122L262.885 1.74698L267.508 15.2743Z" transform="translate(8 22.8851) scale(2)" fill="white"/>
<path d="M267.508 15.2743H267.602L271.945 1.74698L270.007 1.25122V0.236078H275.471V1.25122L273.557 1.74698L268.326 17.2337H266.037L260.363 1.74698L258.495 1.25122V0.236078H264.8V1.25122L262.885 1.74698L267.508 15.2743Z" transform="translate(8 22.8851) scale(2)" fill="url(#paint10_linear)"/>
<path d="M292.257 11.6151L291.837 9.20706H287.96V15.8173H295.013L295.737 11.9692H297.091V17.2337H283.43V16.2186L285.625 15.7228V1.74698L283.43 1.25122V0.236078H296.577V5.24094H295.363L294.616 1.60533H287.96V7.79059H291.837L292.257 5.38259H293.448V11.6151H292.257Z" transform="translate(8 22.8851) scale(2)" fill="white"/>
<path d="M292.257 11.6151L291.837 9.20706H287.96V15.8173H295.013L295.737 11.9692H297.091V17.2337H283.43V16.2186L285.625 15.7228V1.74698L283.43 1.25122V0.236078H296.577V5.24094H295.363L294.616 1.60533H287.96V7.79059H291.837L292.257 5.38259H293.448V11.6151H292.257Z" transform="translate(8 22.8851) scale(2)" fill="url(#paint11_linear)"/>
<path d="M318.098 8.21553C317.817 8.43587 317.491 8.62473 317.117 8.78212C316.743 8.9395 316.284 9.07328 315.739 9.18345C316.019 9.46675 316.331 9.89169 316.673 10.4583L319.779 15.77L321.857 16.2186V17.2337H317.047V16.2186L313.684 9.60839H310.835V15.7228L313.054 16.2186V17.2337H306.538V16.2186L308.5 15.7228V1.74698L306.538 1.25122V0.236078H314.572C315.319 0.236078 315.973 0.306902 316.533 0.448549C317.094 0.590196 317.599 0.818406 318.051 1.13318C318.627 1.5109 319.071 2.03028 319.382 2.69129C319.709 3.35231 319.872 4.01333 319.872 4.67435C319.872 5.33537 319.709 5.98852 319.382 6.6338C319.071 7.26335 318.643 7.79059 318.098 8.21553ZM314.175 8.23914C315.031 8.23914 315.739 7.99519 316.3 7.50729C316.611 7.224 316.852 6.84628 317.023 6.37412C317.21 5.88622 317.304 5.36685 317.304 4.816C317.304 4.26515 317.21 3.76939 317.023 3.32871C316.852 2.87229 316.603 2.50243 316.276 2.21914C316.012 1.9988 315.7 1.84141 315.342 1.74698C315 1.65255 314.579 1.60533 314.081 1.60533H310.835V8.23914H314.175Z" transform="translate(8 22.8851) scale(2)" fill="white"/>
<path d="M318.098 8.21553C317.817 8.43587 317.491 8.62473 317.117 8.78212C316.743 8.9395 316.284 9.07328 315.739 9.18345C316.019 9.46675 316.331 9.89169 316.673 10.4583L319.779 15.77L321.857 16.2186V17.2337H317.047V16.2186L313.684 9.60839H310.835V15.7228L313.054 16.2186V17.2337H306.538V16.2186L308.5 15.7228V1.74698L306.538 1.25122V0.236078H314.572C315.319 0.236078 315.973 0.306902 316.533 0.448549C317.094 0.590196 317.599 0.818406 318.051 1.13318C318.627 1.5109 319.071 2.03028 319.382 2.69129C319.709 3.35231 319.872 4.01333 319.872 4.67435C319.872 5.33537 319.709 5.98852 319.382 6.6338C319.071 7.26335 318.643 7.79059 318.098 8.21553ZM314.175 8.23914C315.031 8.23914 315.739 7.99519 316.3 7.50729C316.611 7.224 316.852 6.84628 317.023 6.37412C317.21 5.88622 317.304 5.36685 317.304 4.816C317.304 4.26515 317.21 3.76939 317.023 3.32871C316.852 2.87229 316.603 2.50243 316.276 2.21914C316.012 1.9988 315.7 1.84141 315.342 1.74698C315 1.65255 314.579 1.60533 314.081 1.60533H310.835V8.23914H314.175Z" transform="translate(8 22.8851) scale(2)" fill="url(#paint12_linear)"/>
</g>
<path d="M10.656 34.032C7.264 34.032 4.64 33.168 2.784 31.44C0.928 29.68 0 27.28 0 24.24C0 21.84 0.944 19.632 2.832 17.616C4.752 15.568 7.104 14 9.888 12.912C9.664 11.632 9.552 10.48 9.552 9.456C9.552 6.768 10.32 4.528 11.856 2.736C13.424 0.912 15.44 0 17.904 0C19.632 0 21.04 0.528 22.128 1.584C23.248 2.64 23.808 4 23.808 5.664C23.808 7.328 23.184 8.832 21.936 10.176C20.688 11.488 18.656 12.192 15.84 12.288C18.272 13.568 21.104 14.208 24.336 14.208C26.32 14.208 28.336 13.472 30.384 12C31.312 11.328 32.048 10.992 32.592 10.992C33.328 10.992 33.696 11.392 33.696 12.192C33.696 12.704 33.376 13.184 32.736 13.632C32.128 14.048 31.344 14.384 30.384 14.64C28.528 15.088 26.896 15.344 25.488 15.408C25.392 19.984 24.528 23.808 22.896 26.88C24.72 28.384 26.832 29.776 29.232 31.056C31.664 32.304 33.824 32.944 35.712 32.976L35.808 33.552H28.56C26.512 33.104 24.048 31.744 21.168 29.472C18.576 32.512 15.072 34.032 10.656 34.032ZM11.376 32.592C15.28 32.592 18.144 31.232 19.968 28.512C17.6 26.528 15.52 24.256 13.728 21.696C11.936 19.136 10.704 16.448 10.032 13.632C5.904 15.968 3.84 19.52 3.84 24.288C3.84 26.912 4.56 28.96 6 30.432C7.472 31.872 9.264 32.592 11.376 32.592ZM17.616 0.864C16.304 0.864 15.2 1.648 14.304 3.216C13.44 4.752 13.008 6.72 13.008 9.12C13.008 11.52 13.696 14.208 15.072 17.184C16.448 20.16 18.576 22.976 21.456 25.632C22.672 22.688 23.312 19.264 23.376 15.36C20.208 15.072 17.488 14.048 15.216 12.288V11.856C16.784 11.856 18.096 11.28 19.152 10.128C20.24 8.944 20.784 7.584 20.784 6.048C20.784 4.512 20.496 3.264 19.92 2.304C19.376 1.344 18.608 0.864 17.616 0.864Z" transform="translate(324.247 0.895996) scale(2)" fill="#C4C4C4"/>
<path d="M10.656 34.032C7.264 34.032 4.64 33.168 2.784 31.44C0.928 29.68 0 27.28 0 24.24C0 21.84 0.944 19.632 2.832 17.616C4.752 15.568 7.104 14 9.888 12.912C9.664 11.632 9.552 10.48 9.552 9.456C9.552 6.768 10.32 4.528 11.856 2.736C13.424 0.912 15.44 0 17.904 0C19.632 0 21.04 0.528 22.128 1.584C23.248 2.64 23.808 4 23.808 5.664C23.808 7.328 23.184 8.832 21.936 10.176C20.688 11.488 18.656 12.192 15.84 12.288C18.272 13.568 21.104 14.208 24.336 14.208C26.32 14.208 28.336 13.472 30.384 12C31.312 11.328 32.048 10.992 32.592 10.992C33.328 10.992 33.696 11.392 33.696 12.192C33.696 12.704 33.376 13.184 32.736 13.632C32.128 14.048 31.344 14.384 30.384 14.64C28.528 15.088 26.896 15.344 25.488 15.408C25.392 19.984 24.528 23.808 22.896 26.88C24.72 28.384 26.832 29.776 29.232 31.056C31.664 32.304 33.824 32.944 35.712 32.976L35.808 33.552H28.56C26.512 33.104 24.048 31.744 21.168 29.472C18.576 32.512 15.072 34.032 10.656 34.032ZM11.376 32.592C15.28 32.592 18.144 31.232 19.968 28.512C17.6 26.528 15.52 24.256 13.728 21.696C11.936 19.136 10.704 16.448 10.032 13.632C5.904 15.968 3.84 19.52 3.84 24.288C3.84 26.912 4.56 28.96 6 30.432C7.472 31.872 9.264 32.592 11.376 32.592ZM17.616 0.864C16.304 0.864 15.2 1.648 14.304 3.216C13.44 4.752 13.008 6.72 13.008 9.12C13.008 11.52 13.696 14.208 15.072 17.184C16.448 20.16 18.576 22.976 21.456 25.632C22.672 22.688 23.312 19.264 23.376 15.36C20.208 15.072 17.488 14.048 15.216 12.288V11.856C16.784 11.856 18.096 11.28 19.152 10.128C20.24 8.944 20.784 7.584 20.784 6.048C20.784 4.512 20.496 3.264 19.92 2.304C19.376 1.344 18.608 0.864 17.616 0.864Z" transform="translate(324.247 0.895996) scale(2)" fill="url(#paint13_linear)"/>
<path d="M5.04 0.675L4.284 0.486V0.0989997H6.363V0.486L5.607 0.675V4.392C5.607 5.142 5.406 5.712 5.004 6.102C4.608 6.486 4.02 6.678 3.24 6.678C2.436 6.678 1.821 6.48 1.395 6.084C0.969 5.688 0.756 5.121 0.756 4.383V0.675L0 0.486V0.0989997H2.412V0.486L1.656 0.675V4.23C1.656 5.532 2.25 6.183 3.438 6.183C4.002 6.183 4.41 6.033 4.662 5.733C4.914 5.427 5.04 4.932 5.04 4.248V0.675Z" transform="translate(8.37842 88.842) scale(2)" fill="white"/>
<path d="M11.0921 0.675L10.3361 0.486V0.0989997H12.0551L15.4211 5.076V0.675L14.6651 0.486V0.0989997H16.7621V0.486L16.0061 0.675V6.579H15.3671L11.6771 1.188V6.003L12.4331 6.192V6.579H10.3361V6.192L11.0921 6.003V0.675Z" transform="translate(8.37842 88.842) scale(2)" fill="white"/>
<path d="M22.4842 6.003L23.3302 6.192V6.579H20.7382V6.192L21.5842 6.003V0.675L20.7382 0.486V0.0989997H23.3302V0.486L22.4842 0.675V6.003Z" transform="translate(8.37842 88.842) scale(2)" fill="white"/>
<path d="M33.2597 3.267C33.2597 3.795 33.1817 4.287 33.0257 4.743C32.8697 5.199 32.6477 5.58 32.3597 5.886C31.8737 6.408 31.1807 6.669 30.2807 6.669C29.3627 6.669 28.6697 6.417 28.2017 5.913C27.9257 5.625 27.7127 5.265 27.5627 4.833C27.4127 4.395 27.3377 3.921 27.3377 3.411C27.3377 2.883 27.4157 2.391 27.5717 1.935C27.7277 1.479 27.9497 1.098 28.2377 0.792C28.4897 0.522 28.7807 0.324 29.1107 0.198C29.4467 0.0719999 29.8427 0.00899982 30.2987 0.00899982C31.2047 0.00899982 31.9007 0.261 32.3867 0.765C32.6687 1.053 32.8847 1.416 33.0347 1.854C33.1847 2.286 33.2597 2.757 33.2597 3.267ZM28.3727 3.231C28.3727 3.735 28.4147 4.179 28.4987 4.563C28.5827 4.947 28.7027 5.262 28.8587 5.508C29.1587 5.952 29.6477 6.174 30.3257 6.174C30.9617 6.174 31.4297 5.976 31.7297 5.58C32.0597 5.13 32.2247 4.401 32.2247 3.393C32.2247 2.895 32.1827 2.457 32.0987 2.079C32.0147 1.701 31.8917 1.395 31.7297 1.161C31.4177 0.717 30.9317 0.495 30.2717 0.495C29.6417 0.495 29.1737 0.693 28.8677 1.089C28.5377 1.527 28.3727 2.241 28.3727 3.231Z" transform="translate(8.37842 88.842) scale(2)" fill="white"/>
<path d="M38.0739 0.675L37.3179 0.486V0.0989997H39.0369L42.4029 5.076V0.675L41.6469 0.486V0.0989997H43.7439V0.486L42.9879 0.675V6.579H42.3489L38.6589 1.188V6.003L39.4149 6.192V6.579H37.3179V6.192L38.0739 6.003V0.675Z" transform="translate(8.37842 88.842) scale(2)" fill="white"/>
<path d="M56.1971 0.495C55.6271 0.495 55.2011 0.681 54.9191 1.053C54.7391 1.287 54.5981 1.596 54.4961 1.98C54.3941 2.358 54.3431 2.775 54.3431 3.231C54.3431 3.663 54.3881 4.065 54.4781 4.437C54.5681 4.803 54.6941 5.112 54.8561 5.364C55.0181 5.616 55.2131 5.802 55.4411 5.922C55.6751 6.036 55.9661 6.093 56.3141 6.093C56.8481 6.093 57.2741 5.967 57.5921 5.715C57.9101 5.457 58.1111 5.076 58.1951 4.572H58.6901C58.5521 5.28 58.2821 5.808 57.8801 6.156C57.4781 6.498 56.9261 6.669 56.2241 6.669C55.3961 6.669 54.7361 6.429 54.2441 5.949C53.9501 5.661 53.7251 5.301 53.5691 4.869C53.4131 4.431 53.3351 3.942 53.3351 3.402C53.3351 2.796 53.434 2.25 53.632 1.764C53.8301 1.272 54.1091 0.876 54.4691 0.576C54.9251 0.198 55.5281 0.00899982 56.2781 0.00899982C56.4641 0.00899982 56.6291 0.0209998 56.7731 0.0449998C56.9231 0.063 57.0611 0.0990001 57.187 0.153C57.313 0.201 57.4301 0.267 57.5381 0.351C57.6521 0.435 57.7661 0.54 57.8801 0.666L58.0601 0.0989997H58.5551V2.088H58.0061C57.8321 1.026 57.2291 0.495 56.1971 0.495Z" transform="translate(8.37842 88.842) scale(2)" fill="white"/>
<path d="M68.6494 3.267C68.6494 3.795 68.5714 4.287 68.4154 4.743C68.2594 5.199 68.0374 5.58 67.7494 5.886C67.2634 6.408 66.5704 6.669 65.6704 6.669C64.7524 6.669 64.0594 6.417 63.5914 5.913C63.3154 5.625 63.1024 5.265 62.9524 4.833C62.8024 4.395 62.7274 3.921 62.7274 3.411C62.7274 2.883 62.8054 2.391 62.9614 1.935C63.1174 1.479 63.3394 1.098 63.6274 0.792C63.8794 0.522 64.1704 0.324 64.5004 0.198C64.8364 0.0719999 65.2324 0.00899982 65.6884 0.00899982C66.5944 0.00899982 67.2904 0.261 67.7764 0.765C68.0584 1.053 68.2744 1.416 68.4244 1.854C68.5744 2.286 68.6494 2.757 68.6494 3.267ZM63.7624 3.231C63.7624 3.735 63.8044 4.179 63.8884 4.563C63.9724 4.947 64.0924 5.262 64.2484 5.508C64.5484 5.952 65.0374 6.174 65.7154 6.174C66.3514 6.174 66.8194 5.976 67.1194 5.58C67.4494 5.13 67.6144 4.401 67.6144 3.393C67.6144 2.895 67.5724 2.457 67.4884 2.079C67.4044 1.701 67.2814 1.395 67.1194 1.161C66.8074 0.717 66.3214 0.495 65.6614 0.495C65.0314 0.495 64.5634 0.693 64.2574 1.089C63.9274 1.527 63.7624 2.241 63.7624 3.231Z" transform="translate(8.37842 88.842) scale(2)" fill="white"/>
<path d="M77.6299 0.675L76.8739 0.486V0.0989997H78.9529V0.486L78.1969 0.675V4.392C78.1969 5.142 77.9959 5.712 77.5939 6.102C77.1979 6.486 76.6099 6.678 75.8299 6.678C75.0259 6.678 74.4109 6.48 73.9849 6.084C73.5589 5.688 73.3459 5.121 73.3459 4.383V0.675L72.5899 0.486V0.0989997H75.0019V0.486L74.2459 0.675V4.23C74.2459 5.532 74.8399 6.183 76.0279 6.183C76.5919 6.183 76.9999 6.033 77.2519 5.733C77.5039 5.427 77.6299 4.932 77.6299 4.248V0.675Z" transform="translate(8.37842 88.842) scale(2)" fill="white"/>
<path d="M83.6821 0.675L82.9261 0.486V0.0989997H84.6451L88.0111 5.076V0.675L87.2551 0.486V0.0989997H89.3521V0.486L88.5961 0.675V6.579H87.9571L84.2671 1.188V6.003L85.0231 6.192V6.579H82.9261V6.192L83.6821 6.003V0.675Z" transform="translate(8.37842 88.842) scale(2)" fill="white"/>
<path d="M98.5841 0.0989997V1.989H98.1161L97.8281 0.639H96.3521V5.976L97.3061 6.192V6.579H94.4981V6.192L95.4521 5.976V0.639H93.9671L93.6881 1.989H93.2201V0.0989997H98.5841Z" transform="translate(8.37842 88.842) scale(2)" fill="white"/>
<path d="M106.902 0.675L106.173 0.486V0.0989997H108.216V0.486L107.478 0.675L105.642 4.041V6.003L106.488 6.192V6.579H103.896V6.192L104.742 6.003V4.185L102.807 0.675L102.06 0.486V0.0989997H104.544V0.486L103.788 0.675L105.336 3.555L106.902 0.675Z" transform="translate(8.37842 88.842) scale(2)" fill="white"/>
<path d="M120.001 0.495C119.431 0.495 119.005 0.681 118.723 1.053C118.543 1.287 118.402 1.596 118.3 1.98C118.198 2.358 118.147 2.775 118.147 3.231C118.147 3.663 118.192 4.065 118.282 4.437C118.372 4.803 118.498 5.112 118.66 5.364C118.822 5.616 119.017 5.802 119.245 5.922C119.479 6.036 119.77 6.093 120.118 6.093C120.652 6.093 121.078 5.967 121.396 5.715C121.714 5.457 121.915 5.076 121.999 4.572H122.494C122.356 5.28 122.086 5.808 121.684 6.156C121.282 6.498 120.73 6.669 120.028 6.669C119.2 6.669 118.54 6.429 118.048 5.949C117.754 5.661 117.529 5.301 117.373 4.869C117.217 4.431 117.139 3.942 117.139 3.402C117.139 2.796 117.238 2.25 117.436 1.764C117.634 1.272 117.913 0.876 118.273 0.576C118.729 0.198 119.332 0.00899982 120.082 0.00899982C120.268 0.00899982 120.433 0.0209998 120.577 0.0449998C120.727 0.063 120.865 0.0990001 120.991 0.153C121.117 0.201 121.234 0.267 121.342 0.351C121.456 0.435 121.57 0.54 121.684 0.666L121.864 0.0989997H122.359V2.088H121.81C121.636 1.026 121.033 0.495 120.001 0.495Z" transform="translate(8.37842 88.842) scale(2)" fill="white"/>
<path d="M130.941 3.141C130.833 3.225 130.707 3.297 130.563 3.357C130.419 3.417 130.242 3.468 130.032 3.51C130.14 3.618 130.26 3.78 130.392 3.996L131.589 6.021L132.39 6.192V6.579H130.536V6.192L129.24 3.672H128.142V6.003L128.997 6.192V6.579H126.486V6.192L127.242 6.003V0.675L126.486 0.486V0.0989997H129.582C129.87 0.0989997 130.122 0.126 130.338 0.18C130.554 0.234 130.749 0.321 130.923 0.441C131.145 0.585 131.316 0.783 131.436 1.035C131.562 1.287 131.625 1.539 131.625 1.791C131.625 2.043 131.562 2.292 131.436 2.538C131.316 2.778 131.151 2.979 130.941 3.141ZM129.429 3.15C129.759 3.15 130.032 3.057 130.248 2.871C130.368 2.763 130.461 2.619 130.527 2.439C130.599 2.253 130.635 2.055 130.635 1.845C130.635 1.635 130.599 1.446 130.527 1.278C130.461 1.104 130.365 0.963 130.239 0.855C130.137 0.771 130.017 0.711 129.879 0.675C129.747 0.639 129.585 0.621 129.393 0.621H128.142V3.15H129.429Z" transform="translate(8.37842 88.842) scale(2)" fill="white"/>
<path d="M137.782 6.003L138.628 6.192V6.579H136.036V6.192L136.882 6.003V0.675L136.036 0.486V0.0989997H138.628V0.486L137.782 0.675V6.003Z" transform="translate(8.37842 88.842) scale(2)" fill="white"/>
<path d="M148.366 0.0989997H150.472V0.486L149.716 0.675V6.003L150.472 6.192V6.579H148.159V6.192L148.816 6.003V0.684L146.962 6.579H145.9L144.028 0.684V6.003L144.685 6.192V6.579H142.687V6.192L143.443 6.003V0.675L142.687 0.486V0.0989997H144.829L146.593 5.76H146.629L148.366 0.0989997Z" transform="translate(8.37842 88.842) scale(2)" fill="white"/>
<path d="M156.277 6.003L157.123 6.192V6.579H154.531V6.192L155.377 6.003V0.675L154.531 0.486V0.0989997H157.123V0.486L156.277 0.675V6.003Z" transform="translate(8.37842 88.842) scale(2)" fill="white"/>
<path d="M161.938 0.675L161.182 0.486V0.0989997H162.901L166.267 5.076V0.675L165.511 0.486V0.0989997H167.608V0.486L166.852 0.675V6.579H166.213L162.523 1.188V6.003L163.279 6.192V6.579H161.182V6.192L161.938 6.003V0.675Z" transform="translate(8.37842 88.842) scale(2)" fill="white"/>
<path d="M175.383 4.401H172.971L172.423 6.003L173.169 6.192V6.579H171.063V6.192L171.801 6.003L173.962 0.00899982H174.798L176.931 6.003L177.651 6.192V6.579H175.176V6.192L175.914 6.003L175.383 4.401ZM173.151 3.879H175.212L174.24 0.81H174.204L173.151 3.879Z" transform="translate(8.37842 88.842) scale(2)" fill="white"/>
<path d="M182.986 6.039H185.434L185.74 4.482H186.235V6.579H181.24V6.192L182.086 6.003V0.675L181.24 0.486V0.0989997H183.922V0.486L182.986 0.675V6.039Z" transform="translate(8.37842 88.842) scale(2)" fill="white"/>
<path d="M198.533 6.039C199.169 6.039 199.637 5.841 199.937 5.445C200.267 5.025 200.432 4.341 200.432 3.393C200.432 2.457 200.267 1.761 199.937 1.305C199.625 0.861 199.127 0.639 198.443 0.639H197.138V6.039H198.533ZM198.506 0.0989997C199.4 0.0989997 200.096 0.351 200.594 0.855C200.876 1.143 201.092 1.497 201.242 1.917C201.392 2.337 201.467 2.787 201.467 3.267C201.467 3.777 201.389 4.251 201.233 4.689C201.077 5.127 200.855 5.496 200.567 5.796C200.315 6.066 200.015 6.264 199.667 6.39C199.319 6.516 198.905 6.579 198.425 6.579H195.482V6.192L196.238 6.003V0.675L195.482 0.486V0.0989997H198.506Z" transform="translate(8.37842 88.842) scale(2)" fill="white"/>
<path d="M208.864 4.437L208.702 3.519H207.208V6.039H209.926L210.205 4.572H210.727V6.579H205.462V6.192L206.308 6.003V0.675L205.462 0.486V0.0989997H210.529V2.007H210.061L209.773 0.621H207.208V2.979H208.702L208.864 2.061H209.323V4.437H208.864Z" transform="translate(8.37842 88.842) scale(2)" fill="white"/>
<path d="M218.265 4.536L218.112 3.618H216.609V5.976L217.662 6.147V6.579H214.863V6.192L215.709 5.976V0.675L214.863 0.486V0.0989997H219.93V2.025H219.444L219.156 0.621H216.609V3.078H218.112L218.265 2.16H218.724V4.536H218.265Z" transform="translate(8.37842 88.842) scale(2)" fill="white"/>
<path d="M227.227 4.437L227.065 3.519H225.571V6.039H228.289L228.568 4.572H229.09V6.579H223.825V6.192L224.671 6.003V0.675L223.825 0.486V0.0989997H228.892V2.007H228.424L228.136 0.621H225.571V2.979H227.065L227.227 2.061H227.686V4.437H227.227Z" transform="translate(8.37842 88.842) scale(2)" fill="white"/>
<path d="M234.027 0.675L233.271 0.486V0.0989997H234.99L238.356 5.076V0.675L237.6 0.486V0.0989997H239.697V0.486L238.941 0.675V6.579H238.302L234.612 1.188V6.003L235.368 6.192V6.579H233.271V6.192L234.027 6.003V0.675Z" transform="translate(8.37842 88.842) scale(2)" fill="white"/>
<path d="M246.175 6.678C245.815 6.678 245.491 6.624 245.203 6.516C244.915 6.408 244.675 6.255 244.483 6.057L244.384 6.579H243.88V4.536H244.429C244.465 5.112 244.606 5.532 244.852 5.796C245.104 6.054 245.488 6.183 246.004 6.183C246.862 6.183 247.291 5.856 247.291 5.202C247.291 5.01 247.252 4.842 247.174 4.698C247.102 4.554 246.997 4.425 246.859 4.311C246.721 4.191 246.55 4.083 246.346 3.987C246.148 3.885 245.923 3.783 245.671 3.681C245.383 3.567 245.128 3.456 244.906 3.348C244.69 3.234 244.507 3.108 244.357 2.97C244.213 2.826 244.102 2.664 244.024 2.484C243.946 2.298 243.907 2.073 243.907 1.809C243.907 1.239 244.084 0.795 244.438 0.477C244.798 0.159 245.278 0 245.878 0C246.472 0 246.955 0.168 247.327 0.504L247.399 0.0989997H247.903V2.142H247.39C247.39 1.56 247.282 1.14 247.066 0.882C246.856 0.618 246.517 0.486 246.049 0.486C245.227 0.486 244.816 0.861 244.816 1.611C244.816 1.761 244.834 1.89 244.87 1.998C244.906 2.1 244.972 2.196 245.068 2.286C245.17 2.376 245.305 2.463 245.473 2.547C245.641 2.631 245.857 2.73 246.121 2.844C246.493 3.006 246.811 3.162 247.075 3.312C247.339 3.456 247.552 3.609 247.714 3.771C247.882 3.933 248.005 4.107 248.083 4.293C248.161 4.479 248.2 4.689 248.2 4.923C248.2 5.199 248.149 5.448 248.047 5.67C247.951 5.886 247.813 6.069 247.633 6.219C247.459 6.369 247.246 6.483 246.994 6.561C246.748 6.639 246.475 6.678 246.175 6.678Z" transform="translate(8.37842 88.842) scale(2)" fill="white"/>
<path d="M255.702 4.437L255.54 3.519H254.046V6.039H256.764L257.043 4.572H257.565V6.579H252.3V6.192L253.146 6.003V0.675L252.3 0.486V0.0989997H257.367V2.007H256.899L256.611 0.621H254.046V2.979H255.54L255.702 2.061H256.161V4.437H255.702Z" transform="translate(8.37842 88.842) scale(2)" fill="white"/>
<path d="M268.973 6.039H271.421L271.727 4.482H272.222V6.579H267.227V6.192L268.073 6.003V0.675L267.227 0.486V0.0989997H269.909V0.486L268.973 0.675V6.039Z" transform="translate(8.37842 88.842) scale(2)" fill="white"/>
<path d="M279.997 4.401H277.585L277.036 6.003L277.783 6.192V6.579H275.677V6.192L276.415 6.003L278.575 0.00899982H279.412L281.545 6.003L282.265 6.192V6.579H279.79V6.192L280.528 6.003L279.997 4.401ZM277.765 3.879H279.826L278.854 0.81H278.818L277.765 3.879Z" transform="translate(8.37842 88.842) scale(2)" fill="white"/>
<path d="M292.993 0.666L292.282 0.486V0.0989997H294.343V0.486L293.596 0.675L291.886 6.579H290.95L289.627 2.25L288.43 6.579H287.494L285.622 0.675L284.92 0.486V0.0989997H287.476V0.486L286.612 0.675L288.097 5.733H288.133L289.357 1.215L289.24 0.675L288.538 0.486V0.0989997H290.914V0.486L290.086 0.675L291.562 5.733H291.598L292.993 0.666Z" transform="translate(8.37842 88.842) scale(2)" fill="white"/>
<path d="M302.371 0.675L301.642 0.486V0.0989997H303.685V0.486L302.947 0.675L301.111 4.041V6.003L301.957 6.192V6.579H299.365V6.192L300.211 6.003V4.185L298.276 0.675L297.529 0.486V0.0989997H300.013V0.486L299.257 0.675L300.805 3.555L302.371 0.675Z" transform="translate(8.37842 88.842) scale(2)" fill="white"/>
<path d="M310.703 4.437L310.541 3.519H309.047V6.039H311.765L312.044 4.572H312.566V6.579H307.301V6.192L308.147 6.003V0.675L307.301 0.486V0.0989997H312.368V2.007H311.9L311.612 0.621H309.047V2.979H310.541L310.703 2.061H311.162V4.437H310.703Z" transform="translate(8.37842 88.842) scale(2)" fill="white"/>
<path d="M321.202 3.141C321.094 3.225 320.968 3.297 320.824 3.357C320.68 3.417 320.503 3.468 320.293 3.51C320.401 3.618 320.521 3.78 320.653 3.996L321.85 6.021L322.651 6.192V6.579H320.797V6.192L319.501 3.672H318.403V6.003L319.258 6.192V6.579H316.747V6.192L317.503 6.003V0.675L316.747 0.486V0.0989997H319.843C320.131 0.0989997 320.383 0.126 320.599 0.18C320.815 0.234 321.01 0.321 321.184 0.441C321.406 0.585 321.577 0.783 321.697 1.035C321.823 1.287 321.886 1.539 321.886 1.791C321.886 2.043 321.823 2.292 321.697 2.538C321.577 2.778 321.412 2.979 321.202 3.141ZM319.69 3.15C320.02 3.15 320.293 3.057 320.509 2.871C320.629 2.763 320.722 2.619 320.788 2.439C320.86 2.253 320.896 2.055 320.896 1.845C320.896 1.635 320.86 1.446 320.788 1.278C320.722 1.104 320.626 0.963 320.5 0.855C320.398 0.771 320.278 0.711 320.14 0.675C320.008 0.639 319.846 0.621 319.654 0.621H318.403V3.15H319.69Z" transform="translate(8.37842 88.842) scale(2)" fill="white"/>
<defs>
<filter id="filter0_d" x="0" y="22.8851" width="659.715" height="50.9396" filterUnits="userSpaceOnUse" color-interpolation-filters="sRGB">
<feFlood flood-opacity="0" result="BackgroundImageFix"/>
<feColorMatrix in="SourceAlpha" type="matrix" values="0 0 0 0 0 0 0 0 0 0 0 0 0 0 0 0 0 0 255 0"/>
<feOffset dy="4"/>
<feGaussianBlur stdDeviation="2"/>
<feColorMatrix type="matrix" values="0 0 0 0 0 0 0 0 0 0 0 0 0 0 0 0 0 0 0.06 0"/>
<feBlend mode="normal" in2="BackgroundImageFix" result="effect1_dropShadow"/>
<feBlend mode="normal" in="SourceGraphic" in2="effect1_dropShadow" result="shape"/>
</filter>
<linearGradient id="paint0_linear" x2="1" gradientUnits="userSpaceOnUse" gradientTransform="translate(329.061 -3.91496) scale(330.331 27.0507) rotate(90)">
<stop stop-color="white"/>
<stop offset="1" stop-color="#ABAFB3"/>
</linearGradient>
<linearGradient id="paint1_linear" x2="1" gradientUnits="userSpaceOnUse" gradientTransform="translate(329.061 -3.91496) scale(330.331 27.0507) rotate(90)">
<stop stop-color="white"/>
<stop offset="1" stop-color="#ABAFB3"/>
</linearGradient>
<linearGradient id="paint2_linear" x2="1" gradientUnits="userSpaceOnUse" gradientTransform="translate(329.061 -3.91496) scale(330.331 27.0507) rotate(90)">
<stop stop-color="white"/>
<stop offset="1" stop-color="#ABAFB3"/>
</linearGradient>
<linearGradient id="paint3_linear" x2="1" gradientUnits="userSpaceOnUse" gradientTransform="translate(329.061 -3.91496) scale(330.331 27.0507) rotate(90)">
<stop stop-color="white"/>
<stop offset="1" stop-color="#ABAFB3"/>
</linearGradient>
<linearGradient id="paint4_linear" x2="1" gradientUnits="userSpaceOnUse" gradientTransform="translate(329.061 -3.91496) scale(330.331 27.0507) rotate(90)">
<stop stop-color="white"/>
<stop offset="1" stop-color="#ABAFB3"/>
</linearGradient>
<linearGradient id="paint5_linear" x2="1" gradientUnits="userSpaceOnUse" gradientTransform="translate(329.061 -3.91496) scale(330.331 27.0507) rotate(90)">
<stop stop-color="white"/>
<stop offset="1" stop-color="#ABAFB3"/>
</linearGradient>
<linearGradient id="paint6_linear" x2="1" gradientUnits="userSpaceOnUse" gradientTransform="translate(329.061 -3.91496) scale(330.331 27.0507) rotate(90)">
<stop stop-color="white"/>
<stop offset="1" stop-color="#ABAFB3"/>
</linearGradient>
<linearGradient id="paint7_linear" x2="1" gradientUnits="userSpaceOnUse" gradientTransform="translate(329.061 -3.91496) scale(330.331 27.0507) rotate(90)">
<stop stop-color="white"/>
<stop offset="1" stop-color="#ABAFB3"/>
</linearGradient>
<linearGradient id="paint8_linear" x2="1" gradientUnits="userSpaceOnUse" gradientTransform="translate(329.061 -3.91496) scale(330.331 27.0507) rotate(90)">
<stop stop-color="white"/>
<stop offset="1" stop-color="#ABAFB3"/>
</linearGradient>
<linearGradient id="paint9_linear" x2="1" gradientUnits="userSpaceOnUse" gradientTransform="translate(329.061 -3.91496) scale(330.331 27.0507) rotate(90)">
<stop stop-color="white"/>
<stop offset="1" stop-color="#ABAFB3"/>
</linearGradient>
<linearGradient id="paint10_linear" x2="1" gradientUnits="userSpaceOnUse" gradientTransform="translate(329.061 -3.91496) scale(330.331 27.0507) rotate(90)">
<stop stop-color="white"/>
<stop offset="1" stop-color="#ABAFB3"/>
</linearGradient>
<linearGradient id="paint11_linear" x2="1" gradientUnits="userSpaceOnUse" gradientTransform="translate(329.061 -3.91496) scale(330.331 27.0507) rotate(90)">
<stop stop-color="white"/>
<stop offset="1" stop-color="#ABAFB3"/>
</linearGradient>
<linearGradient id="paint12_linear" x2="1" gradientUnits="userSpaceOnUse" gradientTransform="translate(329.061 -3.91496) scale(330.331 27.0507) rotate(90)">
<stop stop-color="white"/>
<stop offset="1" stop-color="#ABAFB3"/>
</linearGradient>
<linearGradient id="paint13_linear" x2="1" gradientUnits="userSpaceOnUse" gradientTransform="translate(36.4272 -9.448) scale(38 57) rotate(90)">
<stop stop-color="#879196"/>
<stop offset="1" stop-color="#5A6266"/>
</linearGradient>
</defs>
</svg>
