<svg width="80" height="56" viewBox="0 0 80 56" fill="none" xmlns="http://www.w3.org/2000/svg">
<path d="M36.9214 8.18589C36.9214 8.18589 36.9201 8.18589 36.9196 8.18589H2.54463C2.12552 8.18589 1.7857 7.84772 1.7857 7.43064V2.01064C1.7857 1.59357 2.12552 1.25539 2.54463 1.25539H35.4018C35.7423 1.25539 36.0414 1.48126 36.1328 1.80788L37.6364 7.17653C37.6647 7.25596 37.6803 7.34144 37.6803 7.43056C37.6803 7.84781 37.3406 8.18589 36.9214 8.18589ZM3.30356 6.6754H35.9204L34.8255 2.76589H3.30356V6.6754Z" transform="scale(2)" fill="#FDB753"/>
<path d="M24.0178 12.5397H2.99103C2.57193 12.5397 2.23211 12.2015 2.23211 11.7844V7.51949C2.23211 7.10366 2.56991 6.76611 2.98776 6.76425L36.8271 6.61684C36.8282 6.61684 36.8292 6.61684 36.8305 6.61684C37.248 6.61684 37.5875 6.95279 37.5892 7.3688C37.5911 7.78587 37.2527 8.12555 36.8336 8.12733L3.74996 8.27145V11.0292H24.0178C24.4369 11.0292 24.7767 11.3673 24.7767 11.7844C24.7767 12.2015 24.437 12.5397 24.0178 12.5397Z" transform="scale(2)" fill="#FDB753"/>
<path d="M23.3928 18.2262H16.9642C14.9949 18.2262 13.3928 16.6319 13.3928 14.6721C13.3928 12.7124 14.9949 11.118 16.9642 11.118H23.3928C25.3621 11.118 26.9642 12.7124 26.9642 14.6721C26.9642 16.6319 25.3621 18.2262 23.3928 18.2262ZM16.9642 12.6285C15.8318 12.6285 14.9107 13.5453 14.9107 14.6721C14.9107 15.799 15.8318 16.7157 16.9642 16.7157H23.3928C24.5251 16.7157 25.4464 15.799 25.4464 14.6721C25.4464 13.5453 24.5251 12.6285 23.3928 12.6285H16.9642Z" transform="scale(2)" fill="#FDB753"/>
<path d="M36.3383 28H29.3761C27.7123 28 26.3567 26.6616 26.3395 25.0098L25.7976 18.1625C25.7647 17.7467 26.0767 17.3831 26.4947 17.3503C26.9125 17.3176 27.2779 17.6281 27.3109 18.0439L27.8549 24.9187C27.8565 24.9384 27.8573 24.9582 27.8573 24.9779C27.8573 25.8114 28.5387 26.4895 29.3762 26.4895H36.3384C37.1406 26.4895 37.7994 25.8675 37.8538 25.0827L35.8178 18.6511C35.6919 18.2532 35.9139 17.8292 36.3137 17.7039C36.7137 17.5786 37.1397 17.7995 37.2656 18.1973L39.3401 24.751C39.3634 24.8245 39.3752 24.901 39.3752 24.9779C39.375 26.6443 38.0127 28 36.3383 28Z" transform="scale(2)" fill="#FDB753"/>
<path d="M35.7106 16.911C35.3881 16.911 35.089 16.7049 34.987 16.3826C34.9637 16.309 34.9512 16.2669 34.9419 16.225C34.9395 16.2173 34.9364 16.2071 34.9321 16.1938C34.8062 15.7959 35.0281 15.3719 35.428 15.2465C35.8279 15.1211 36.2539 15.3422 36.3799 15.7399C36.4004 15.8049 36.4124 15.8454 36.4217 15.8871C36.4246 15.8968 36.4288 15.9101 36.4346 15.9287C36.5607 16.3265 36.3388 16.7506 35.939 16.876C35.863 16.8997 35.7861 16.911 35.7106 16.911Z" transform="scale(2)" fill="#FDB753"/>
<path d="M35.0672 14.5226C34.7448 14.5226 34.4459 14.3167 34.3436 13.9946L34.3223 13.9271C34.3218 13.9257 34.3213 13.9242 34.3209 13.9227C34.2653 13.7473 34.2105 13.5808 34.1578 13.4212C33.7775 12.2685 33.449 11.2731 33.9227 9.85338C34.2886 8.75632 35.4164 7.91294 36.4447 7.20843C36.7902 6.9719 37.2626 7.0587 37.5002 7.40229C37.7378 7.74588 37.6506 8.2161 37.3054 8.45262C36.7517 8.83202 35.5995 9.62139 35.3631 10.3294C35.0474 11.2757 35.2436 11.8704 35.5997 12.95C35.6542 13.1152 35.7111 13.2874 35.7686 13.4689C35.7702 13.4737 35.7717 13.4787 35.7733 13.4838L35.791 13.5395C35.9172 13.9373 35.6956 14.3616 35.2959 14.4872C35.2199 14.5112 35.1427 14.5226 35.0672 14.5226Z" transform="scale(2)" fill="#FDB753"/>
<path d="M37.2621 6.66065H36.5032V5.15016H37.2621C37.4991 5.15016 37.7671 4.91896 38.0013 4.58923C37.3069 4.47701 36.6139 4.1774 36.0874 3.85158L35.4428 3.4528L36.2443 2.17004L36.8889 2.56881C37.7135 3.07909 38.5798 3.22294 38.9099 3.06372C39.18 2.93319 39.5021 2.97362 39.7313 3.16679C39.9605 3.35986 40.0538 3.66924 39.9693 3.95597C39.673 4.96054 38.7693 6.66065 37.2621 6.66065Z" transform="scale(2)" fill="#FDB753"/>
<path d="M21.1916 16.3909L20.1183 15.3228L20.1103 15.3308C20.1459 15.2932 20.9778 14.3872 20.7352 12.4555C20.6832 12.0416 20.9784 11.6642 21.3943 11.6125C21.8104 11.5612 22.1894 11.8543 22.2413 12.2683C22.581 14.9731 21.2484 16.3343 21.1916 16.3909Z" transform="scale(2)" fill="#FDB753"/>
<path d="M32.3661 23.4241C31.947 23.4241 31.6071 23.0859 31.6071 22.6689V22.58C31.6071 22.1629 31.947 21.8248 32.3661 21.8248C32.7852 21.8248 33.125 22.1629 33.125 22.58V22.6689C33.125 23.086 32.7853 23.4241 32.3661 23.4241Z" transform="scale(2)" fill="#FDB753"/>
<path d="M27.3382 6.07784L26.1293 2.91173L24.7104 3.44826L25.9193 6.61437L27.3382 6.07784Z" transform="scale(2)" fill="#FDB753"/>
<path d="M29.749 6.07788L28.5401 2.91177L27.1212 3.4483L28.3301 6.61441L29.749 6.07788Z" transform="scale(2)" fill="#FDB753"/>
<path d="M32.0707 5.99558L30.8618 2.82947L29.4429 3.366L30.6518 6.53211L32.0707 5.99558Z" transform="scale(2)" fill="#FDB753"/>
<path d="M34.3029 5.99554L33.094 2.82943L31.6751 3.36596L32.884 6.53207L34.3029 5.99554Z" transform="scale(2)" fill="#FDB753"/>
<path d="M2.41071 6.76425H0.758929C0.339822 6.76425 0 6.42608 0 6.009V2.81031C0 2.39324 0.339822 2.05506 0.758929 2.05506H2.05357C2.47268 2.05506 2.8125 2.39324 2.8125 2.81031C2.8125 3.22738 2.47268 3.56556 2.05357 3.56556H1.51786V5.25376H2.41071C2.82982 5.25376 3.16964 5.59193 3.16964 6.009C3.16964 6.42608 2.82991 6.76425 2.41071 6.76425Z" transform="scale(2)" fill="#FDB753"/>
<path d="M7.73897 2.45509C7.68388 2.45509 7.62789 2.44905 7.57191 2.43652C6.82539 2.26956 6.18414 2.01954 5.66896 1.81855C5.39914 1.71326 5.05065 1.57749 4.84324 1.52853C4.7436 1.92437 4.34404 2.17085 3.94145 2.08128C3.53243 1.99021 3.27502 1.58637 3.36663 1.17934C3.47743 0.686564 3.71591 0.340305 4.07538 0.15016C4.70189 -0.180993 5.40656 0.093923 6.2229 0.412282C6.71433 0.603937 7.27137 0.821272 7.90468 0.962903C8.3137 1.05433 8.57068 1.45843 8.4788 1.86538C8.39952 2.21652 8.0862 2.45509 7.73897 2.45509Z" transform="scale(2)" fill="#FDB753"/>
<path d="M14.0625 15.1608C13.6434 15.1608 13.3035 14.8226 13.3035 14.4056V11.7844C13.3035 11.3673 13.6434 11.0292 14.0625 11.0292H20.3571C20.7762 11.0292 21.116 11.3673 21.116 11.7844C21.116 12.2015 20.7762 12.5397 20.3571 12.5397H14.8214V14.4056C14.8214 14.8227 14.4817 15.1608 14.0625 15.1608Z" transform="scale(2)" fill="#FDB753"/>
<path d="M26.2499 18.2262H22.3214C21.9023 18.2262 21.5624 17.8881 21.5624 17.471C21.5624 17.0539 21.9023 16.7157 22.3214 16.7157H26.2499C26.6691 16.7157 27.0089 17.0539 27.0089 17.471C27.0089 17.8881 26.6691 18.2262 26.2499 18.2262Z" transform="scale(2)" fill="#FDB753"/>
</svg>
