<svg width="76" height="72" viewBox="0 0 76 72" fill="none" xmlns="http://www.w3.org/2000/svg">
<path d="M0.0152085 0.976281L0.749455 0.823282L0.748382 0.818302L0.0152085 0.976281ZM35.9778 0.976281L36.71 1.13861L36.711 1.13426L35.9778 0.976281ZM31.3225 33.25H4.86237V34.75H31.3225V33.25ZM4.86237 33.25C4.59607 33.25 4.30327 33.14 4.08092 32.9524C3.85944 32.7655 3.76678 32.5561 3.76678 32.381H2.26678C2.26678 33.0995 2.64048 33.6996 3.11357 34.0988C3.5858 34.4973 4.21579 34.75 4.86237 34.75V33.25ZM3.76678 32.381V15.381H2.26678V32.381H3.76678ZM3.75101 15.228L0.749438 0.823286L-0.719021 1.12928L2.28255 15.5339L3.75101 15.228ZM0.748382 0.818302C0.751728 0.833832 0.749091 0.847205 0.747878 0.850812C0.747611 0.851605 0.752035 0.838896 0.770866 0.819301C0.789597 0.799809 0.815685 0.780933 0.845745 0.767622C0.875403 0.754489 0.901459 0.75 0.920641 0.75V-0.75C0.438408 -0.75 -0.00599389 -0.537108 -0.310678 -0.220056C-0.618391 0.100147 -0.835573 0.588443 -0.717965 1.13426L0.748382 0.818302ZM0.920641 0.75H35.265V-0.75H0.920641V0.75ZM35.265 0.75C35.2812 0.75 35.2781 0.753006 35.2655 0.746429C35.2537 0.740232 35.2462 0.732117 35.2433 0.727978C35.2386 0.721296 35.2596 0.748781 35.2446 0.818302L36.711 1.13426C36.8043 0.701066 36.7314 0.240411 36.4746 -0.128734C36.2086 -0.511035 35.7736 -0.75 35.265 -0.75V0.75ZM35.2456 0.813953L32.0522 15.2186L33.5166 15.5433L36.71 1.13861L35.2456 0.813953ZM32.0344 15.381V32.381H33.5344V15.381H32.0344ZM32.0344 32.381C32.0344 32.6791 31.9431 32.9017 31.8267 33.0374C31.7204 33.1614 31.5642 33.25 31.3225 33.25V34.75C31.9944 34.75 32.5692 34.4759 32.9654 34.0138C33.3516 33.5634 33.5344 32.9765 33.5344 32.381H32.0344ZM3.01678 16.131H32.7844V14.631H3.01678V16.131ZM10.4587 26.6547C12.2468 26.6547 13.6893 25.2436 13.6893 23.4761H12.1893C12.1893 24.3915 11.4422 25.1547 10.4587 25.1547V26.6547ZM13.6893 23.4761V22.6666H12.1893V23.4761H13.6893ZM13.6893 22.6666C13.6893 20.8992 12.2468 19.488 10.4587 19.488V20.988C11.4422 20.988 12.1893 21.7513 12.1893 22.6666H13.6893ZM10.4587 19.488C8.67055 19.488 7.22803 20.8992 7.22803 22.6666H8.72803C8.72803 21.7513 9.47508 20.988 10.4587 20.988V19.488ZM7.22803 22.6666V23.4761H8.72803V22.6666H7.22803ZM7.22803 23.4761C7.22803 25.2436 8.67055 26.6547 10.4587 26.6547V25.1547C9.47508 25.1547 8.72803 24.3915 8.72803 23.4761H7.22803ZM15.3431 29.9523V28.3333H13.8431V29.9523H15.3431ZM15.3431 28.3333C15.3431 26.999 14.2975 26.2022 13.363 25.7791C12.3948 25.3408 11.2534 25.1547 10.4587 25.1547V26.6547C11.0713 26.6547 11.9971 26.8074 12.7444 27.1456C13.5252 27.4991 13.8431 27.9165 13.8431 28.3333H15.3431ZM10.4587 25.1547C9.66397 25.1547 8.5226 25.3408 7.55444 25.7791C6.61989 26.2022 5.57434 26.9991 5.57434 28.3333H7.07434C7.07434 27.9165 7.39229 27.4991 8.17306 27.1456C8.92022 26.8074 9.84601 26.6547 10.4587 26.6547V25.1547ZM5.57434 28.3333V29.9523H7.07434V28.3333H5.57434ZM17.0737 20.988H21.2081V19.488H17.0737V20.988ZM17.0737 23.4166H22.8619V21.9166H17.0737V23.4166ZM24.5156 23.4166H30.3038V21.9166H24.5156V23.4166ZM12.1126 12.0834H22.862V10.5834H12.1126V12.0834ZM17.0737 27.4642H20.3812V25.9642H17.0737V27.4642ZM17.0737 29.8928H22.8619V28.3928H17.0737V29.8928ZM24.5156 29.8928H30.3038V28.3928H24.5156V29.8928Z" transform="translate(2 2) scale(2)" fill="#FDB753"/>
</svg>
