<svg width="68" height="80" viewBox="0 0 68 80" fill="none" xmlns="http://www.w3.org/2000/svg">
<path d="M9.61972 30.4595C4.31494 30.4595 0 26.1052 0 20.753C0 15.3999 4.31494 11.0455 9.61972 11.0455C14.9245 11.0455 19.2394 15.3999 19.2394 20.753C19.2394 26.1052 14.9245 30.4595 9.61972 30.4595ZM9.61972 12.7729C5.2597 12.7729 1.71173 16.3527 1.71173 20.753C1.71173 25.1529 5.2597 28.7322 9.61972 28.7322C13.9797 28.7322 17.5277 25.1529 17.5277 20.753C17.5277 16.3527 13.9797 12.7729 9.61972 12.7729Z" transform="scale(2)" fill="#FDB753"/>
<path d="M20.4808 25.0582C15.1761 25.0582 10.8611 20.7039 10.8611 15.3507C10.8611 9.99753 15.1761 5.64321 20.4808 5.64321C25.7856 5.64321 30.1006 9.99805 30.1006 15.3507C30.1006 20.7039 25.7856 25.0582 20.4808 25.0582ZM20.4808 7.37057C16.1208 7.37057 12.5729 10.9504 12.5729 15.3507C12.5729 19.751 16.1203 23.3314 20.4808 23.3314C24.8414 23.3314 28.3888 19.751 28.3888 15.3507C28.3888 10.9504 24.8409 7.37057 20.4808 7.37057Z" transform="scale(2)" fill="#FDB753"/>
<path d="M10.4759 29.5956H8.76361V40H10.4759V29.5956Z" transform="scale(2)" fill="#FDB753"/>
<path d="M14.5566 34.6288H4.58956V36.3561H14.5566V34.6288Z" transform="scale(2)" fill="#FDB753"/>
<path d="M32.8322 2.57582L31.6236 1.35268L25.2592 7.75703L26.4678 8.98017L32.8322 2.57582Z" transform="scale(2)" fill="#FDB753"/>
<path d="M34 6.69381H32.2883V1.85505L27.3457 1.72734L27.3888 0L33.1659 0.149419C33.6296 0.162344 34 0.545448 34 1.01335V6.69381Z" transform="scale(2)" fill="#FDB753"/>
</svg>
