<svg width="84" height="84" viewBox="0 0 84 84" fill="none" xmlns="http://www.w3.org/2000/svg">
<path d="M8.7065 29.3292L9.2369 28.799L8.70665 28.2686L8.17624 28.7988L8.7065 29.3292ZM10.7067 31.33L11.237 31.8604L11.7674 31.3302L11.2371 30.7998L10.7067 31.33ZM7.37085 34.6649L6.84045 35.1952L7.3707 35.7256L7.90111 35.1953L7.37085 34.6649ZM5.37063 32.6642L4.84038 32.1337L4.30997 32.664L4.84023 33.1944L5.37063 32.6642ZM25.1389 9.7541L25.6693 9.22384L25.139 8.69344L24.6086 9.22369L25.1389 9.7541ZM30.2529 14.8696L30.7832 15.4L31.3136 14.8698L30.7834 14.3394L30.2529 14.8696ZM12.2379 32.8796L11.7074 33.4099L12.2377 33.9403L12.7681 33.41L12.2379 32.8796ZM7.12376 27.7641L6.59351 27.2337L6.0631 27.7639L6.59336 28.2943L7.12376 27.7641ZM33.9511 14.7773L34.4815 15.3075L35.0117 14.7772L34.4814 14.247L33.9511 14.7773ZM8.1761 29.8595L10.1763 31.8603L11.2371 30.7998L9.2369 28.799L8.1761 29.8595ZM10.1765 30.7996L6.8406 34.1345L7.90111 35.1953L11.237 31.8604L10.1765 30.7996ZM7.90126 34.1347L5.90104 32.1339L4.84023 33.1944L6.84045 35.1952L7.90126 34.1347ZM5.90089 33.1946L9.23675 29.8596L8.17624 28.7988L4.84038 32.1337L5.90089 33.1946ZM24.6085 10.2844L29.7225 15.3999L30.7834 14.3394L25.6693 9.22384L24.6085 10.2844ZM29.7227 14.3392L11.7076 32.3492L12.7681 33.41L30.7832 15.4L29.7227 14.3392ZM12.7683 32.3494L7.65417 27.2338L6.59336 28.2943L11.7074 33.4099L12.7683 32.3494ZM7.65402 28.2945L25.6691 10.2845L24.6086 9.22369L6.59351 27.2337L7.65402 28.2945ZM31.1619 12.6774L36.6103 7.229L35.5496 6.16834L30.1012 11.6167L31.1619 12.6774ZM32.7694 3.38933L27.3218 8.8373L28.3825 9.89793L33.8301 4.44995L32.7694 3.38933ZM24.6912 6.57843L33.4208 15.3076L34.4814 14.247L25.7518 5.51775L24.6912 6.57843ZM33.4207 14.2471L32.1561 15.512L33.217 16.5725L34.4815 15.3075L33.4207 14.2471ZM30.7412 0.530318L39.4697 9.25913L40.5303 8.19849L31.8019 -0.530318L30.7412 0.530318ZM4.5874 34.3515L-0.530351 39.4697L0.530351 40.5303L5.6481 35.4122L4.5874 34.3515ZM24.7579 15.0665L27.1004 17.4098L28.1612 16.3493L25.8188 14.0061L24.7579 15.0665ZM23.4339 18.2117L24.866 19.6442L25.9268 18.5837L24.4947 17.1512L23.4339 18.2117ZM21.2009 20.4459L22.631 21.8775L23.6922 20.8175L22.2622 19.3858L21.2009 20.4459ZM18.0569 21.7697L20.3985 24.1117L21.4592 23.0512L19.1176 20.7092L18.0569 21.7697ZM16.7314 24.9151L18.1631 26.346L19.2234 25.285L17.7917 23.8541L16.7314 24.9151ZM14.4978 27.1474L15.9291 28.5799L16.9902 27.5197L15.5589 26.0872L14.4978 27.1474ZM11.3539 28.4726L13.6963 30.8142L14.7568 29.7534L12.4143 27.4118L11.3539 28.4726Z" transform="translate(2 2) scale(2)" fill="#FDB753"/>
</svg>
