<svg width="48" height="88" viewBox="0 0 48 88" fill="none" xmlns="http://www.w3.org/2000/svg">
<path d="M12.0002 9.77481C9.31147 9.77481 7.12403 7.58228 7.12403 4.8874C7.12403 2.19253 9.31147 0 12.0002 0C14.6889 0 16.8763 2.19253 16.8763 4.8874C16.8763 7.58228 14.6889 9.77481 12.0002 9.77481ZM12.0002 1.50349C10.1386 1.50349 8.62403 3.02157 8.62403 4.8874C8.62403 6.75324 10.1386 8.27132 12.0002 8.27132C13.8618 8.27132 15.3763 6.75324 15.3763 4.8874C15.3763 3.02157 13.8618 1.50349 12.0002 1.50349Z" transform="scale(2)" fill="#FDB753"/>
<path d="M5.73535 20.5632H4.23535V37.2785H5.73535V20.5632Z" transform="scale(2)" fill="#FDB753"/>
<path d="M19.6763 20.5632H18.1763V37.2785H19.6763V20.5632Z" transform="scale(2)" fill="#FDB753"/>
<path d="M16.3234 21.8014H7.58813V23.3049H16.3234V21.8014Z" transform="scale(2)" fill="#FDB753"/>
<path d="M16.3234 35.9519H7.58813V37.4554H16.3234V35.9519Z" transform="scale(2)" fill="#FDB753"/>
<path d="M9.35278 24.6315H7.85278V35.0675H9.35278V24.6315Z" transform="scale(2)" fill="#FDB753"/>
<path d="M16.2354 24.6315H14.7354V35.0675H16.2354V24.6315Z" transform="scale(2)" fill="#FDB753"/>
<path d="M21.2647 39.2242H2.82349V40.7277H21.2647V39.2242Z" transform="scale(2)" fill="#FDB753"/>
<path d="M24 42.4965H0V44H24V42.4965Z" transform="scale(2)" fill="#FDB753"/>
<path d="M12.0897 14.9217C9.79373 14.9217 7.92578 13.0495 7.92578 10.7481C7.92578 10.6907 7.92693 10.6335 7.92932 10.5767L9.42799 10.6395C9.4264 10.6755 9.42578 10.7118 9.42578 10.7481C9.42578 12.2204 10.6208 13.4182 12.0897 13.4182C13.2331 13.4182 14.2476 12.6893 14.6138 11.6046L16.0346 12.0865C15.4621 13.7823 13.8768 14.9217 12.0897 14.9217Z" transform="scale(2)" fill="#FDB753"/>
<path d="M21.1764 19.2366H19.6764V16.1952C19.6764 13.7758 17.6251 11.8076 15.1038 11.8076H8.89629C6.37479 11.8076 4.32349 13.7758 4.32349 16.1952V18.8828H2.82349V16.1952C2.82349 12.9469 5.54767 10.3041 8.89629 10.3041H15.1038C18.4523 10.3041 21.1764 12.9469 21.1764 16.1952V19.2366Z" transform="scale(2)" fill="#FDB753"/>
<path d="M22.6765 18.1754H1.5V19.6788H22.6765V18.1754Z" transform="scale(2)" fill="#FDB753"/>
</svg>
