<svg width="68" height="76" viewBox="0 0 68 76" fill="none" xmlns="http://www.w3.org/2000/svg">
<path d="M9.99597 14.0917L9.92888 13.3399C9.90703 13.0948 9.89639 12.835 9.89639 12.5459C9.89639 11.7438 9.97564 11.0472 10.1386 10.4166L10.3275 9.68553L11.8024 10.0601L11.6135 10.7912C11.4844 11.2909 11.4189 11.8812 11.4189 12.546C11.4189 12.7904 11.4276 13.0066 11.4455 13.207L11.5126 13.9588L9.99597 14.0917Z" transform="scale(2)" fill="#FDB753"/>
<path d="M16.8633 22.75C14.7977 22.75 12.6964 20.9442 11.2425 17.9198L10.9149 17.2385L12.2895 16.5892L12.6169 17.2706C13.7763 19.6823 15.4432 21.2407 16.8633 21.2407C16.8858 21.2407 16.9082 21.2402 16.9306 21.2397L17.6917 21.2212L17.7289 22.7302L16.9679 22.7485C16.933 22.7493 16.8983 22.75 16.8633 22.75Z" transform="scale(2)" fill="#FDB753"/>
<path d="M12.631 18.2228H11.8697C11.2056 18.2228 10.5492 17.8905 10.0212 17.2872C9.37786 16.552 9.04033 15.5343 9.16115 14.6944C9.23324 14.1932 9.51679 13.5796 9.94302 13.229C9.90844 12.9217 9.8992 12.6313 9.89625 12.3856L9.88713 11.631L11.4097 11.6131L11.4187 12.3677C11.4228 12.7076 11.4403 13.1481 11.5406 13.5406L11.959 15.1776L10.7878 14.57C10.7348 14.6682 10.6852 14.7914 10.6685 14.9074C10.6091 15.3201 10.8159 15.892 11.1713 16.2982C11.3988 16.5582 11.6598 16.7134 11.8697 16.7134H12.6309L12.631 18.2228Z" transform="scale(2)" fill="#FDB753"/>
<path d="M24.166 14.0917L22.6493 13.9587L22.7164 13.2069C22.7341 13.0078 22.7429 12.7915 22.7429 12.5459C22.7429 11.9366 22.688 11.3897 22.58 10.9201L22.4105 10.1843L23.8949 9.84845L24.0643 10.5842C24.1996 11.1719 24.2654 11.8135 24.2654 12.5459C24.2654 12.8363 24.2548 13.0961 24.2331 13.3399L24.166 14.0917Z" transform="scale(2)" fill="#FDB753"/>
<path d="M17.2985 22.7499C17.1515 22.7499 17.0012 22.7407 16.8516 22.7224L16.0959 22.6304L16.2817 21.1323L17.0372 21.2243C17.1255 21.2351 17.2135 21.2406 17.2985 21.2406C18.7187 21.2406 20.3855 19.6822 21.5447 17.2705L21.8722 16.5891L23.2467 17.2384L22.9193 17.9197C21.4653 20.9442 19.3641 22.7499 17.2985 22.7499Z" transform="scale(2)" fill="#FDB753"/>
<path d="M22.2923 18.2228H21.531V16.7134H22.2923C22.502 16.7134 22.7631 16.5581 22.9906 16.2981C23.3461 15.8919 23.5528 15.32 23.4934 14.9076C23.4766 14.7916 23.427 14.6683 23.374 14.57L22.2027 15.1779L22.6212 13.5406C22.7228 13.1431 22.7393 12.6809 22.743 12.368L22.7516 11.6134L24.2741 11.6306L24.2653 12.3853C24.2625 12.631 24.2534 12.9215 24.2186 13.2291C24.645 13.5795 24.9285 14.1931 25.0006 14.6944C25.1215 15.5342 24.784 16.5519 24.1406 17.2871C23.6128 17.8904 22.9564 18.2228 22.2923 18.2228Z" transform="scale(2)" fill="#FDB753"/>
<path d="M16.6527 12.6797C10.5642 12.6797 9.71846 10.117 9.64135 9.82145L11.1154 9.4434C11.1154 9.4434 11.1136 9.43319 11.107 9.41455C11.1133 9.43239 11.7869 11.1704 16.6498 11.1704C16.7196 11.1704 16.7901 11.17 16.8617 11.1692C22.1502 11.1156 23.5528 9.30694 23.5663 9.28874L23.5567 9.3025L24.823 10.1405C24.6525 10.3939 22.9806 12.6166 16.8773 12.6785C16.802 12.6793 16.7264 12.6797 16.6527 12.6797Z" transform="scale(2)" fill="#FDB753"/>
<path d="M24.3054 10.7209L23.5832 10.4824C22.5186 10.1308 21.4362 9.85762 20.3662 9.67046L19.6165 9.53923L19.8811 8.05288L20.6307 8.18399C21.7741 8.38403 22.9293 8.67543 24.0644 9.05037L24.7866 9.28893L24.3054 10.7209Z" transform="scale(2)" fill="#FDB753"/>
<path d="M9.83827 10.6381L9.31837 9.21939L10.0339 8.96173C11.601 8.3975 14.863 7.51791 19.1029 7.96903L19.8598 8.04947L19.6974 9.55021L18.9404 9.46969C15.0057 9.05115 11.9971 9.86059 10.5538 10.3803L9.83827 10.6381Z" transform="scale(2)" fill="#FDB753"/>
<path d="M17.0588 7.29196C15.6459 7.29196 14.4963 6.15239 14.4963 4.7518C14.4963 3.35103 15.6459 2.21138 17.0588 2.21138C18.4716 2.21138 19.6212 3.35103 19.6212 4.7518C19.6212 6.15239 18.4716 7.29196 17.0588 7.29196ZM17.0588 3.72073C16.4854 3.72073 16.0189 4.1833 16.0189 4.7518C16.0189 5.3202 16.4854 5.7826 17.0588 5.7826C17.6322 5.7826 18.0987 5.3202 18.0987 4.7518C18.0987 4.1833 17.6322 3.72073 17.0588 3.72073Z" transform="scale(2)" fill="#FDB753"/>
<path d="M10.1358 10.5954L9.69243 9.98197C9.23038 9.34281 7.92377 7.57101 7.43271 7.05535C6.74434 6.33281 6.43025 4.40483 7.42339 3.32396C7.78075 2.93499 8.61761 2.02398 10.2351 1.2535C12.135 0.348329 14.5008 -0.0702948 17.2659 0.00961206C23.6721 0.194108 26.1386 2.62345 27.0672 3.53803L27.1057 3.57603C28.4332 4.88197 27.4051 6.78402 26.5798 7.71289L24.2567 10.5494L23.0748 9.59798L25.4294 6.72401C25.4408 6.71113 26.6654 5.26924 26.0334 4.64739L25.9942 4.6087C25.1825 3.80919 23.0262 1.68534 17.2218 1.51816C13.2909 1.40532 10.3735 2.35433 8.54919 4.3402C8.12637 4.80037 8.3542 5.81315 8.54031 6.01966C9.20181 6.71405 10.8599 9.00553 10.9302 9.10275L11.3736 9.71616L10.1358 10.5954Z" transform="scale(2)" fill="#FDB753"/>
<path d="M17.059 26.4551L11.359 21.3197L12.3831 20.2028L17.0586 24.4153L21.7318 20.2028L22.7559 21.3194L17.059 26.4551Z" transform="scale(2)" fill="#FDB753"/>
<path d="M0.139399 37.2516L0.0870088 36.4988C0.0717834 36.281 -0.275089 31.1383 0.532039 28.8785C1.30773 26.7056 2.98254 25.4134 4.18115 24.9669C8.257 23.4491 11.1612 21.659 11.19 21.641L11.8353 21.2406L12.6431 22.52L11.9979 22.9204C11.8747 22.9968 8.93398 24.8093 4.71653 26.3799C3.99806 26.6475 2.61033 27.5809 1.96736 29.3821C1.38477 31.0133 1.50897 34.9975 1.60597 36.3949L1.65827 37.1478L0.139399 37.2516Z" transform="scale(2)" fill="#FDB753"/>
<path d="M15.3023 38L10.9319 22.4708L12.3985 22.0653L15.2127 32.0653L16.2008 28.1003L17.6789 28.4621L15.3023 38Z" transform="scale(2)" fill="#FDB753"/>
<path d="M33.8609 37.2515L32.3421 37.1478L32.3942 36.395C32.4911 34.9975 32.6151 31.0134 32.0327 29.3822C31.3894 27.5809 30.002 26.6474 29.2836 26.3799C28.9841 26.2685 28.6748 26.1495 28.3648 26.0265L27.6579 25.746L28.2239 24.3448L28.9306 24.6253C29.2306 24.7443 29.5293 24.8593 29.8187 24.967C31.0174 25.4134 32.692 26.7057 33.468 28.8788C34.2748 31.1385 33.9284 36.2811 33.9132 36.4989L33.8609 37.2515Z" transform="scale(2)" fill="#FDB753"/>
<path d="M26.1764 25.0991L25.49 24.7727C23.3681 23.7642 22.0573 22.9544 22.0025 22.9204L21.3572 22.52L22.165 21.2406L22.8104 21.641C22.8324 21.6546 24.1175 22.4465 26.1484 23.4119L26.8348 23.7381L26.1764 25.0991Z" transform="scale(2)" fill="#FDB753"/>
<path d="M18.6977 37.9998L16.3209 28.4621L17.799 28.1003L18.7873 32.0656L21.6017 22.0653L23.0683 22.4708L18.6977 37.9998Z" transform="scale(2)" fill="#FDB753"/>
<path d="M17.0275 29.2851C15.9622 29.2851 15.0955 28.4126 15.0955 27.3401C15.0955 26.2675 15.9623 25.3948 17.0275 25.3948C18.0928 25.3948 18.9595 26.2675 18.9595 27.3401C18.9595 28.4126 18.0928 29.2851 17.0275 29.2851ZM17.0275 26.9041C16.8017 26.9041 16.6181 27.0997 16.6181 27.3401C16.6181 27.5803 16.8017 27.7757 17.0275 27.7757C17.2533 27.7757 17.437 27.5803 17.437 27.3401C17.437 27.0997 17.2534 26.9041 17.0275 26.9041Z" transform="scale(2)" fill="#FDB753"/>
</svg>
