<svg width="80" height="78" viewBox="0 0 80 78" fill="none" xmlns="http://www.w3.org/2000/svg">
<path d="M1.31344 11.3849C1.25331 11.3849 1.17738 11.3778 1.09575 11.3532C1.08346 11.3504 1.07124 11.3474 1.05903 11.344C0.681098 11.2385 0.460814 10.849 0.56711 10.4739C0.647481 10.1902 0.873036 9.98625 1.15563 9.94169C1.25022 9.92675 1.3607 9.93055 1.47134 9.96292C1.49217 9.96715 1.51291 9.97238 1.53357 9.97852C1.90941 10.0913 2.12191 10.4851 2.00826 10.858C1.9232 11.1371 1.69623 11.3363 1.41598 11.3778C1.39298 11.3812 1.35735 11.3849 1.31344 11.3849Z" transform="scale(2)" fill="#FDB753"/>
<path d="M15.1798 30.1278C6.8096 30.1278 0 23.3703 0 15.064C0 14.4139 0.0421526 13.7595 0.125367 13.1191C0.17563 12.7325 0.531899 12.4604 0.921374 12.5095C1.31077 12.5594 1.58567 12.913 1.53549 13.2995C1.45997 13.8803 1.42175 14.4739 1.42175 15.064C1.42175 22.5922 7.59357 28.7169 15.1798 28.7169C22.7659 28.7169 28.9376 22.5922 28.9376 15.064C28.9376 7.53569 22.7659 1.41091 15.1798 1.41091C9.99039 1.41091 5.29552 4.26037 2.92739 8.84731C2.74833 9.19406 2.31996 9.33108 1.97055 9.15339C1.62113 8.9757 1.48297 8.55061 1.66203 8.20394C2.91668 5.77377 4.81547 3.72399 7.15299 2.27607C9.55692 0.787146 12.3326 0 15.1799 0C23.5499 0 30.3594 6.75769 30.3594 15.064C30.3594 23.3703 23.5499 30.1278 15.1798 30.1278Z" transform="scale(2)" fill="#FDB753"/>
<path d="M35.3133 39L25.7479 30.3485L30.4346 25.2455L40 33.8969L35.3133 39ZM27.7563 30.256L35.2202 37.0068L37.9915 33.9893L30.5276 27.2386L27.7563 30.256Z" transform="scale(2)" fill="#FDB753"/>
<path d="M28.3987 28.6436L24.6797 25.2628L23.7193 26.3032L27.4383 29.684L28.3987 28.6436Z" transform="scale(2)" fill="#FDB753"/>
<path d="M30.1023 26.9307L26.3834 23.5499L25.423 24.5903L29.1419 27.9711L30.1023 26.9307Z" transform="scale(2)" fill="#FDB753"/>
<path d="M15.2399 14.0552C13.124 14.0552 11.4026 12.347 11.4026 10.2473C11.4026 8.14752 13.124 6.4393 15.2399 6.4393C17.3558 6.4393 19.0772 8.14752 19.0772 10.2473C19.0772 12.347 17.3558 14.0552 15.2399 14.0552ZM15.2399 7.8502C13.9079 7.8502 12.8243 8.92551 12.8243 10.2473C12.8243 11.569 13.9079 12.6443 15.2399 12.6443C16.5718 12.6443 17.6554 11.569 17.6554 10.2473C17.6554 8.92551 16.5718 7.8502 15.2399 7.8502Z" transform="scale(2)" fill="#FDB753"/>
<path d="M12.6225 28.0762L11.2011 28.0434L11.2176 27.3381C11.2422 26.285 11.3735 20.9802 11.5393 19.9653L11.653 19.2689L13.0565 19.4947L12.9427 20.1911C12.8338 20.8578 12.7089 24.3802 12.6389 27.3709L12.6225 28.0762Z" transform="scale(2)" fill="#FDB753"/>
<path d="M18.2804 27.4269L18.2595 26.7218C18.1874 24.2755 17.916 21.5302 17.7462 20.3623L17.6448 19.6641L19.0519 19.4628L19.1534 20.161C19.3279 21.362 19.6069 24.1787 19.6806 26.6805L19.7015 27.3857L18.2804 27.4269Z" transform="scale(2)" fill="#FDB753"/>
<path d="M8.003 24.477L6.68194 23.9553L9.00449 18.1619C9.71161 15.9919 11.2821 14.748 13.3166 14.748H17.364C19.1826 14.748 20.8267 15.8828 21.6547 17.7095L24.2968 23.5197L23.0008 24.1001L20.3584 18.289C19.8915 17.2589 18.8599 16.1589 17.364 16.1589H13.3166C11.5191 16.1589 10.7118 17.4946 10.3511 18.6152L10.3345 18.6614L8.003 24.477Z" transform="scale(2)" fill="#FDB753"/>
<path d="M22.2014 27.5919C21.4741 27.5919 20.737 27.3333 20.1696 26.8333L21.1135 25.7782C21.6941 26.2897 22.4912 26.2641 22.9465 25.9805C23.3859 25.7067 23.5219 25.2262 23.3402 24.5908L24.7079 24.2055C25.0643 25.4509 24.6884 26.5611 23.7027 27.1753C23.2534 27.4553 22.73 27.5919 22.2014 27.5919Z" transform="scale(2)" fill="#FDB753"/>
<path d="M8.7397 27.8263C8.30799 27.8263 7.89895 27.7242 7.55028 27.5475C6.47962 27.005 5.99405 25.8235 6.34205 24.6072L7.70977 24.9925C7.54527 25.5677 7.72733 26.053 8.19684 26.2909C8.6452 26.5182 9.39538 26.498 10.0342 25.6935L11.1509 26.5668C10.4355 27.4674 9.54817 27.8263 8.7397 27.8263Z" transform="scale(2)" fill="#FDB753"/>
<path d="M16.178 26.0768H14.7562V29.6456H16.178V26.0768Z" transform="scale(2)" fill="#FDB753"/>
</svg>
