<svg width="64" height="84" viewBox="0 0 64 84" fill="none" xmlns="http://www.w3.org/2000/svg">
<path d="M23.238 15.1475C23.238 18.0055 20.9708 20.2967 18.2061 20.2967V21.7967C21.8275 21.7967 24.738 18.8055 24.738 15.1475H23.238ZM18.2061 20.2967C15.4414 20.2967 13.1742 18.0055 13.1742 15.1475H11.6742C11.6742 18.8055 14.5847 21.7967 18.2061 21.7967V20.2967ZM13.1742 15.1475V10.3773H11.6742V15.1475H13.1742ZM13.1742 10.3773C13.1742 7.51925 15.4414 5.2281 18.2061 5.2281V3.7281C14.5847 3.7281 11.6742 6.71932 11.6742 10.3773H13.1742ZM18.2061 5.2281C20.9708 5.2281 23.238 7.51925 23.238 10.3773H24.738C24.738 6.71932 21.8274 3.7281 18.2061 3.7281V5.2281ZM23.238 10.3773V15.1475H24.738V10.3773H23.238ZM31.75 40V20.6701H30.25V40H31.75ZM31.75 20.6701C31.75 18.8144 30.2718 17.2842 28.4166 17.2842V18.7842C29.415 18.7842 30.25 19.6142 30.25 20.6701H31.75ZM28.4166 17.2842H23.2455V18.7842H28.4166V17.2842ZM13.1667 17.2842H7.99554V18.7842H13.1667V17.2842ZM7.99554 17.2842C6.1404 17.2842 4.66218 18.8144 4.66218 20.6701H6.16218C6.16218 19.6142 6.99716 18.7842 7.99554 18.7842V17.2842ZM4.66218 20.6701V40H6.16218V20.6701H4.66218ZM4.7353 40.1226H21.4659V38.6226H4.7353V40.1226ZM21.4659 40.1226C23.7289 40.1226 25.5374 38.2554 25.5374 35.9836H24.0374C24.0374 37.4556 22.8721 38.6226 21.4659 38.6226V40.1226ZM25.5374 35.9836C25.5374 33.7118 23.7289 31.8446 21.4659 31.8446V33.3446C22.8721 33.3446 24.0374 34.5117 24.0374 35.9836H25.5374ZM21.4659 31.8446H17.8983V33.3446H21.4659V31.8446ZM8.78298 18.0342V39.3726H10.283V18.0342H8.78298ZM23.5451 27.0716V34.0379H25.0451V27.0716H23.5451ZM13.494 19.7708L19.8908 39.5939L21.3183 39.1333L14.9215 19.3101L13.494 19.7708ZM13.5433 7.10918L23.631 13.8872L24.4676 12.6422L14.3799 5.86413L13.5433 7.10918ZM3.9763 12.7329L5.63703 15.6678L6.94252 14.9291L5.28178 11.9942L3.9763 12.7329ZM0.82684 16.5931L3.70285 18.2876L4.4643 16.9952L1.58829 15.3007L0.82684 16.5931ZM-0.000166089 21.5459L3.32094 21.5466L3.32127 20.0466L0.000166089 20.0459L-0.000166089 21.5459ZM30.0153 7.55621L26.6942 7.55657L26.6944 9.05657L30.0155 9.05621L30.0153 7.55621ZM28.3038 2.84459L25.4281 4.53947L26.1897 5.83172L29.0654 4.13684L28.3038 2.84459ZM24.5195 -0.369267L22.8595 2.56529L24.1651 3.30382L25.8251 0.369267L24.5195 -0.369267Z" transform="translate(0 2) scale(2)" fill="#FDB753"/>
</svg>
