<svg width="62" height="80" viewBox="0 0 62 80" fill="none" xmlns="http://www.w3.org/2000/svg">
<path d="M18.4925 8.6907L17.1649 7.87244L18.1379 6.2427L19.4673 7.05798L18.4925 8.6907Z" transform="scale(2)" fill="#FDB753"/>
<path d="M19.5468 6.92353L18.211 6.1188L18.6075 5.44114C19.1798 4.46293 19.6204 3.69026 19.9092 3.15931C16.4368 0.431995 13.0923 1.8911 11.8749 2.59777L13.0003 5.79936L11.5372 6.329L10.2041 2.53673L10.4716 1.63986C10.5281 1.59714 11.8786 0.588805 13.8926 0.174351C15.7684 -0.211837 18.5945 -0.144246 21.4054 2.37038L21.5878 3.31114C21.3463 3.80622 20.793 4.79352 19.9434 6.24569L19.5468 6.92353Z" transform="scale(2)" fill="#FDB753"/>
<path d="M13.6748 7.76214L12.9302 5.64406L11.4671 6.17368L12.2117 8.29176L13.6748 7.76214Z" transform="scale(2)" fill="#FDB753"/>
<path d="M12.705 13.8676L7.21497 6.42752L7.17122 5.54885C7.22858 5.45219 8.60006 3.17399 10.7289 2.57715L11.4776 2.36722L11.8912 3.88658L11.1426 4.0966C10.0797 4.39456 9.22114 5.36856 8.79442 5.93816L13.9486 12.9229L12.705 13.8676Z" transform="scale(2)" fill="#FDB753"/>
<path d="M17.6589 13.9647L16.4997 12.9155L22.1475 6.49072C21.7516 5.97015 21.0202 5.15181 20.1097 4.78582L19.3876 4.49553L19.9598 3.03011L20.6819 3.3204C22.5592 4.07498 23.7523 6.05903 23.8021 6.14309L23.7163 7.07412L17.6589 13.9647Z" transform="scale(2)" fill="#FDB753"/>
<path d="M11.9734 40H11.973C10.6833 40 9.78041 39.9687 9.28948 39.9071C6.97387 39.616 4.82357 38.8312 3.23462 37.6969C1.2258 36.2629 0.110144 34.2866 0.00803158 31.9817C-0.172081 27.9132 2.71538 23.6121 4.82375 20.4716L4.88129 20.3859C6.05495 18.6373 7.4911 16.6302 9.24382 15.0004C11.3394 13.0519 13.4864 12.0638 15.6252 12.0638C16.2676 12.0638 16.9182 12.153 17.559 12.3288C18.312 12.5355 19.0451 13.0847 19.6918 13.5692C19.9157 13.7369 20.127 13.8953 20.3166 14.0223C23.4487 16.1212 25.7163 19.551 27.7172 22.577C27.9929 22.9939 28.2655 23.4063 28.537 23.8105C30.3484 26.5063 31.3216 30.3476 30.904 33.1518C30.6145 35.0954 29.6487 36.5057 27.7722 37.7247C25.4444 39.237 23.016 39.4404 20.4449 39.6557C20.2588 39.6713 20.0719 39.6869 19.8842 39.7032C17.8967 39.8751 14.5697 40 11.9734 40ZM15.6251 13.64C13.8627 13.64 12.1186 14.4652 10.2933 16.1626C8.65772 17.6834 7.2887 19.5995 6.1651 21.2733L6.10756 21.3591C4.12212 24.3165 1.4029 28.3669 1.5599 31.911C1.73837 35.9418 5.76843 37.8764 9.48037 38.3428C9.89613 38.3949 10.7814 38.4238 11.9731 38.4238C14.4899 38.4238 17.8342 38.2985 19.7522 38.1325C19.9413 38.1161 20.1297 38.1003 20.3172 38.0846C22.6903 37.8858 24.9318 37.6983 26.9345 36.3971C28.4403 35.4188 29.1453 34.4102 29.3679 32.916C29.7262 30.511 28.837 27.055 27.2535 24.6982C26.9799 24.291 26.705 23.8753 26.4272 23.4551C24.414 20.4104 22.3324 17.2622 19.4605 15.3375C19.237 15.1878 19.0098 15.0174 18.7692 14.8372C18.2326 14.4353 17.6244 13.9797 17.1534 13.8504C16.6447 13.7108 16.1306 13.64 15.6251 13.64Z" transform="scale(2)" fill="#FDB753"/>
<path d="M19.2395 17.045L17.4397 11.9986L15.979 12.535L17.7789 17.5814L19.2395 17.045Z" transform="scale(2)" fill="#FDB753"/>
<path d="M15.1346 12.6656L13.674 12.1292L11.8741 17.1755L13.3348 17.7119L15.1346 12.6656Z" transform="scale(2)" fill="#FDB753"/>
<path d="M17.7098 10.0041L16.2011 9.62845L15.346 13.1648L16.8547 13.5405L17.7098 10.0041Z" transform="scale(2)" fill="#FDB753"/>
<path d="M15.8733 13.2268L14.5198 9.76855L13.0761 10.3503L14.4296 13.8085L15.8733 13.2268Z" transform="scale(2)" fill="#FDB753"/>
<path d="M15.6583 33.822C15.6104 33.822 15.5622 33.8212 15.5137 33.8197C13.6538 33.7591 11.9061 32.5611 11.2637 30.9067L10.9789 30.1736L12.4241 29.5957L12.7089 30.329C13.1242 31.3983 14.3248 32.2037 15.5636 32.2441C16.12 32.2631 17.1285 32.1312 17.6303 31.0488C17.8762 30.5181 17.9123 30.032 17.7405 29.5627C17.3146 28.399 15.7421 27.6111 15.2702 27.3974C14.2886 26.9523 12.586 25.9712 12.2108 24.4021C12.0699 23.8126 12.0706 22.8955 12.8748 21.8748C13.5937 20.9619 14.7021 20.3899 15.7677 20.382C16.4972 20.3752 17.5801 20.6252 18.5672 21.8416L19.0608 22.45L17.8617 23.452L17.3679 22.8436C16.8912 22.256 16.3607 21.9581 15.7912 21.9581C15.7871 21.9581 15.7832 21.9581 15.7791 21.9581C15.0504 21.9636 14.4129 22.4468 14.0883 22.859C13.5912 23.49 13.6885 23.8968 13.7205 24.0306C13.8757 24.6792 14.7122 25.418 15.9039 25.9584C16.8773 26.3994 18.5999 27.383 19.1968 29.0141C19.517 29.8888 19.4629 30.7991 19.0361 31.7198C18.4221 33.0437 17.1664 33.822 15.6583 33.822Z" transform="scale(2)" fill="#FDB753"/>
<path d="M14.6835 35.5844L14.673 34.7964C14.673 34.7964 14.6662 34.2886 14.655 33.1905L14.647 32.4023L16.2003 32.3861L16.2084 33.1742C16.2195 34.2679 16.2263 34.7742 16.2263 34.775L16.2369 35.563L14.6835 35.5844Z" transform="scale(2)" fill="#FDB753"/>
<path d="M16.1136 21.8223L16.0775 18.2636L14.5242 18.2798L14.5603 21.8385L16.1136 21.8223Z" transform="scale(2)" fill="#FDB753"/>
</svg>
