<svg width="200" height="200" viewBox="0 0 200 200" fill="none" xmlns="http://www.w3.org/2000/svg">
<rect width="100" height="100" fill="black" fill-opacity="0" transform="scale(2)"/>
<path fill-rule="evenodd" clip-rule="evenodd" d="M96.464 134.214C94.921 135.675 92.8222 136.258 90.6212 136.3C90.417 136.332 90.2127 136.353 90.0085 136.364C89.6341 136.353 89.2824 136.311 88.8967 136.258C86.7978 136.152 84.7897 135.58 83.3034 134.172L82.0668 133.007C81.9534 132.912 56.9256 109.213 56.9256 109.213C53.2951 105.771 53.885 99.619 58.253 95.4892C62.6209 91.3488 69.1105 90.7876 72.7523 94.2397L89.8951 110.452L127.255 74.9779C130.886 71.5364 137.375 72.1082 141.743 76.238C146.111 80.3784 146.712 86.5096 143.082 89.9511L96.464 134.214Z" fill="#FFD600"/>
</svg>
