<svg width="14" height="18" viewBox="0 0 14 18" fill="none" xmlns="http://www.w3.org/2000/svg">
<rect width="13.9953" height="18" fill="black" fill-opacity="0"/>
<path d="M6.30465 17.7122L0.287096 11.6777C-0.095891 11.2938 -0.095891 10.6715 0.287096 10.2878C0.669742 9.90407 1.29036 9.90407 1.67297 10.2878L6.99759 15.6274L12.322 10.2879C12.7048 9.90423 13.3254 9.90423 13.708 10.2879C14.0908 10.6716 14.0908 11.294 13.708 11.6779L7.69037 17.7123C7.49895 17.9042 7.24835 18 6.99762 18C6.74676 18 6.49597 17.904 6.30465 17.7122Z" fill="#9DAFBD"/>
<path d="M6.30465 7.71217L0.287096 1.6777C-0.095891 1.29383 -0.095891 0.671461 0.287096 0.287783C0.669742 -0.0959275 1.29036 -0.0959275 1.67297 0.287783L6.99759 5.62736L12.322 0.287938C12.7048 -0.0957722 13.3254 -0.0957722 13.708 0.287938C14.0908 0.671648 14.0908 1.29399 13.708 1.67785L7.69037 7.71233C7.49895 7.90418 7.24835 8 6.99762 8C6.74676 8 6.49597 7.904 6.30465 7.71217Z" fill="#9DAFBD"/>
</svg>
