<svg width="24" height="36" viewBox="0 0 24 36" fill="none" xmlns="http://www.w3.org/2000/svg">
<rect width="11.3295" height="18" fill="black" fill-opacity="0" transform="scale(2)"/>
<path d="M10.2079 35.4243L0.46524 23.3554C-0.154833 22.5877 -0.154833 21.3429 0.46524 20.5756C1.08476 19.8081 2.08957 19.8081 2.70904 20.5756L11.3298 31.2547L19.9504 20.5759C20.5701 19.8085 21.5748 19.8085 22.1944 20.5759C22.8141 21.3433 22.8141 22.588 22.1944 23.3557L12.4515 35.4247C12.1416 35.8084 11.7358 36 11.3299 36C10.9238 36 10.5177 35.808 10.2079 35.4243Z" fill="white"/>
<path d="M10.2079 15.4243L0.46524 3.3554C-0.154833 2.58767 -0.154833 1.34292 0.46524 0.575565C1.08476 -0.191855 2.08957 -0.191855 2.70904 0.575565L11.3298 11.2547L19.9504 0.575876C20.5701 -0.191544 21.5748 -0.191544 22.1944 0.575876C22.8141 1.3433 22.8141 2.58798 22.1944 3.35571L12.4515 15.4247C12.1416 15.8084 11.7358 16 11.3299 16C10.9238 16 10.5177 15.808 10.2079 15.4243Z" fill="white"/>
</svg>
