<svg width="28" height="36" viewBox="0 0 28 36" fill="none" xmlns="http://www.w3.org/2000/svg">
<rect width="13.9953" height="18" fill="black" fill-opacity="0" transform="scale(2)"/>
<path d="M12.6093 35.4243L0.574192 23.3554C-0.191782 22.5877 -0.191782 21.3429 0.574192 20.5756C1.33948 19.8081 2.58072 19.8081 3.34595 20.5756L13.9952 31.2547L24.644 20.5759C25.4096 19.8085 26.6507 19.8085 27.416 20.5759C28.1816 21.3433 28.1816 22.588 27.416 23.3557L15.3807 35.4247C14.9979 35.8084 14.4967 36 13.9952 36C13.4935 36 12.9919 35.808 12.6093 35.4243Z" fill="#9DAFBD"/>
<path d="M12.6093 15.4243L0.574192 3.3554C-0.191782 2.58767 -0.191782 1.34292 0.574192 0.575565C1.33948 -0.191855 2.58072 -0.191855 3.34595 0.575565L13.9952 11.2547L24.644 0.575876C25.4096 -0.191544 26.6507 -0.191544 27.416 0.575876C28.1816 1.3433 28.1816 2.58798 27.416 3.35571L15.3807 15.4247C14.9979 15.8084 14.4967 16 13.9952 16C13.4935 16 12.9919 15.808 12.6093 15.4243Z" fill="#9DAFBD"/>
</svg>
