<svg width="22" height="22" viewBox="0 0 22 22" fill="none" xmlns="http://www.w3.org/2000/svg">
<rect width="22" height="22" fill="black" fill-opacity="0"/>
<rect width="22" height="22" fill="#FFD600"/>
<path fill-rule="evenodd" clip-rule="evenodd" d="M10.6109 13.7635C10.4412 13.9243 10.2103 13.9884 9.96817 13.993C9.94571 13.9965 9.92325 13.9988 9.90078 14C9.8596 13.9988 9.82091 13.9942 9.77848 13.9884C9.5476 13.9767 9.32671 13.9138 9.16322 13.7589L9.02719 13.6308C9.01471 13.6203 6.26166 11.0134 6.26166 11.0134C5.8623 10.6349 5.9272 9.95809 6.40767 9.50382C6.88815 9.04837 7.60199 8.98664 8.0026 9.36637L9.8883 11.1497L13.9979 7.24757C14.3973 6.869 15.1111 6.9319 15.5916 7.38618C16.0721 7.84162 16.1382 8.51605 15.7389 8.89462L10.6109 13.7635Z" fill="#333333"/>
</svg>
