<svg width="90" height="80" viewBox="0 0 90 80" fill="none" xmlns="http://www.w3.org/2000/svg">
<rect width="45.0001" height="40" fill="black" fill-opacity="0" transform="scale(2)"/>
<path fill-rule="evenodd" clip-rule="evenodd" d="M68.4657 23.3583C63.1463 17.9679 55.7678 14.7166 47.5314 14.7166C40.8393 14.7166 34.5761 16.9412 29.6 20.7059C24.967 24.2139 21.3635 29.1764 19.476 34.8235H26.4255C31.0585 25.754 40.7535 19.5936 50.9632 19.5936C63.3179 19.5936 73.6993 27.9786 76.7021 39.3583C75.6726 33.1123 72.7555 27.5508 68.4657 23.3583ZM32.946 67.7647C28.4846 64 25.2244 58.6952 23.9374 52.7914H19.1328C20.9345 58.6952 24.4522 63.7433 29.2568 67.508C33.6324 70.9305 39.0376 73.155 44.9575 73.6684C40.4103 72.6417 36.2921 70.5882 32.946 67.7647Z" fill="#94C13A"/>
<path fill-rule="evenodd" clip-rule="evenodd" d="M41.9542 80C45.7292 80 49.4184 79.4866 52.8503 78.4599C51.1344 78.7166 49.3326 78.8877 47.4451 78.8877C38.2649 78.8877 29.7711 75.4652 23.3364 69.9037C18.1886 65.369 14.242 59.4652 12.2686 52.7059H11.7539H10.8101H4.97595H4.11799H3.9464C5.91971 58.6096 9.26577 63.9144 13.6414 68.2781C20.8483 75.5508 30.8864 80 41.9542 80ZM70.3527 11.7219C63.0601 4.4492 53.1077 0 41.9542 0C31.5728 0 22.1352 3.93583 15.0141 10.4385C8.15041 16.5989 3.43162 25.2406 2.23047 34.8235H5.14754H6.00551L7.37825 38.0749L9.35156 34.8235H10.1237H11.5823C13.2982 26.6096 17.7596 19.4225 23.9369 14.2032C30.2859 8.8984 38.5223 5.64706 47.5309 5.64706C57.6549 5.64706 66.8351 9.75401 73.5272 16.3422C74.8141 17.6257 76.0153 19.0802 77.1307 20.5348C75.2431 17.369 73.0124 14.3743 70.3527 11.7219Z" fill="#9B9D9D"/>
<path fill-rule="evenodd" clip-rule="evenodd" d="M67.0069 43.6363C67.0069 44.7486 67.2643 45.6042 67.8649 46.032C68.3797 46.5454 69.1518 46.8021 70.0956 46.8021C71.0393 46.8021 71.8115 46.5454 72.3263 46.1176C72.8411 45.6042 73.0985 44.7486 73.0985 43.5507C73.0985 42.524 72.8411 41.7539 72.2405 41.2406C71.7257 40.7272 70.9536 40.5561 70.0098 40.5561C69.066 40.5561 68.3797 40.8128 67.7791 41.3261C67.3501 41.6684 67.0069 42.524 67.0069 43.6363ZM62.5455 43.6363C62.5455 41.8395 63.2319 40.385 64.5188 39.3582C65.8916 38.3315 67.6933 37.8181 70.0956 37.8181C72.5837 37.8181 74.4712 38.3315 75.7581 39.2727C77.0451 40.2994 77.7315 41.6684 77.7315 43.4652C77.7315 44.7486 77.4741 45.8609 76.8735 46.6309C76.2729 47.4866 75.5008 48.0855 74.3854 48.5989C73.2701 49.0267 71.8973 49.2834 70.2672 49.2834C68.6371 49.2834 67.2643 49.1122 66.149 48.6844C65.0336 48.2566 64.1756 47.6577 63.4893 46.8021C62.8029 46.032 62.5455 44.9197 62.5455 43.6363ZM47.4454 45.5187L51.7352 45.3475C51.821 45.8609 51.9926 46.2887 52.3358 46.5454C52.7647 46.9732 53.4511 47.2299 54.3091 47.2299C54.9954 47.2299 55.4244 47.1443 55.7676 46.8876C56.1108 46.6309 56.2824 46.3743 56.2824 46.1176C56.2824 45.8609 56.1108 45.6042 55.7676 45.3475C55.4244 45.0908 54.6523 44.9197 53.4511 44.663C51.4778 44.3208 50.0192 43.893 49.1613 43.294C48.3033 42.6951 47.8743 42.0106 47.8743 41.155C47.8743 40.5561 48.1317 40.0427 48.5607 39.5293C48.9897 39.016 49.6761 38.5882 50.534 38.3315C51.392 38.0748 52.5931 37.9037 54.1375 37.9037C56.025 37.9037 57.4835 38.1604 58.4273 38.6737C59.371 39.1871 59.9716 40.0427 60.229 41.2406L55.9392 41.4117C55.8534 40.8983 55.596 40.5561 55.2528 40.2994C54.9096 40.0427 54.3949 39.9572 53.7085 39.9572C53.1937 39.9572 52.7647 40.0427 52.5073 40.2138C52.25 40.385 52.0784 40.5561 52.0784 40.8128C52.0784 40.9839 52.1642 41.155 52.4215 41.3261C52.6789 41.4973 53.1079 41.5828 53.9659 41.7539C55.9392 42.0962 57.3977 42.4384 58.2557 42.7807C59.1137 43.1229 59.7142 43.5507 60.1432 43.9785C60.5722 44.4919 60.7438 45.0053 60.7438 45.6042C60.7438 46.2887 60.4864 46.9732 59.9716 47.5721C59.4568 48.1711 58.6847 48.5989 57.8267 48.9411C56.883 49.2834 55.6818 49.3689 54.3091 49.3689C51.821 49.3689 50.105 49.0267 49.0755 48.2566C48.1317 47.5721 47.617 46.6309 47.4454 45.5187ZM36.8924 42.6096H38.7799C38.9515 42.6096 39.3805 42.524 39.9811 42.4384C40.3243 42.3529 40.4959 42.2673 40.7533 42.0962C40.9248 41.9251 41.0106 41.6684 41.0106 41.4117C41.0106 41.0695 40.839 40.8128 40.5817 40.5561C40.2385 40.385 39.7237 40.2994 38.8657 40.2994H36.8924V42.6096ZM32.3452 49.1978V38.0748H39.8953C41.268 38.0748 42.3834 38.1604 43.1555 38.3315C43.9277 38.5026 44.5283 38.8449 44.9573 39.3582C45.3863 39.8716 45.6436 40.4705 45.6436 41.155C45.6436 41.7539 45.472 42.2673 45.1289 42.7807C44.7857 43.2085 44.2709 43.6363 43.6703 43.893C43.2413 44.0641 43.2413 44.0641 42.555 44.2352C44.0135 45.8609 45.472 47.6577 46.8448 49.2834H41.697L39.2947 45.8609C38.9515 45.4331 38.6941 45.0908 38.4367 45.0053C38.0936 44.8342 37.7504 44.7486 37.3214 44.7486H36.8924V49.2834H32.3452V49.1978ZM17.4167 38.0748H29.5997V40.4705H21.9639V42.2673H28.9992V44.4919H21.9639V46.7165H29.7713V49.2834H17.4167V38.0748ZM0 38.0748H4.7188L8.06485 46.1176L11.3251 38.0748H15.9581L10.4671 49.1978H5.57676L0 38.0748Z" fill="#414042"/>
<path fill-rule="evenodd" clip-rule="evenodd" d="M78.9312 36.9624C79.7034 36.9624 80.3897 37.6469 80.3897 38.4169C80.3897 39.187 79.7034 39.8715 78.9312 39.8715C78.159 39.8715 77.4727 39.187 77.4727 38.4169C77.5585 37.5613 78.159 36.9624 78.9312 36.9624Z" stroke="#706F70" stroke-width="0.216" stroke-miterlimit="22.9256" stroke-linecap="round" stroke-linejoin="round"/>
<path fill-rule="evenodd" clip-rule="evenodd" d="M78.4175 38.2461H79.0181C79.1039 38.2461 79.2755 38.2461 79.2755 38.2461C79.3613 38.2461 79.3613 38.1605 79.4471 38.1605C79.4471 38.075 79.5329 38.075 79.5329 37.9894C79.5329 37.9039 79.5329 37.8183 79.4471 37.7327C79.3613 37.6472 79.2755 37.6472 79.1039 37.6472H78.5033V38.2461H78.4175ZM78.1602 39.3584V37.3049H79.0181C79.1897 37.3049 79.3613 37.3049 79.4471 37.3905C79.5329 37.3905 79.6187 37.4761 79.7045 37.5616C79.7903 37.6472 79.7903 37.8183 79.7903 37.9039C79.7903 38.075 79.7045 38.1605 79.6187 38.2461C79.5329 38.3317 79.3613 38.4172 79.1897 38.4172C79.2755 38.4172 79.2755 38.5028 79.3613 38.5028C79.4471 38.5884 79.5329 38.6739 79.6187 38.7595L79.9619 39.2728H79.6187L79.3613 38.845C79.2755 38.7595 79.1897 38.5884 79.1897 38.5884C79.1039 38.5028 79.1039 38.5028 79.0181 38.4172L78.9323 38.3317C78.9323 38.3317 78.8465 38.3317 78.7607 38.3317H78.4175V39.1873H78.1602V39.3584Z" fill="#706F70"/>
<path fill-rule="evenodd" clip-rule="evenodd" d="M50.5332 57.4973H52.5923V74.9519H50.5332V57.4973ZM51.9917 73.9251L51.8201 75.0374H61.6009L61.7725 73.9251H51.9917Z" fill="#9B9D9D"/>
<path fill-rule="evenodd" clip-rule="evenodd" d="M70.1808 75.0374H68.4649C67.5211 75.0374 66.6632 74.9519 65.9768 74.7807C65.2904 74.6096 64.7756 74.3529 64.5183 74.0962C64.1751 73.754 64.0035 73.4973 63.9177 73.2406C63.8319 72.9839 63.7461 72.7273 63.7461 72.385V57.4973H65.8052V71.7005C65.8052 72.2139 65.891 72.7273 66.1484 73.1551C66.4058 73.5829 66.6632 73.8396 67.0063 74.0107C67.3495 74.1818 67.6927 74.3529 68.1217 74.4385C68.5507 74.5241 68.8081 74.6096 68.9797 74.6096C69.1513 74.6096 69.2371 74.6096 69.4086 74.6096H70.524L70.1808 75.0374ZM69.1513 74.5241H68.3791L68.6365 74.9519H70.0092C70.953 74.9519 71.8109 74.8663 72.4973 74.6952C73.1837 74.5241 73.6985 74.2674 73.9558 74.0107C74.299 73.6684 74.4706 73.4118 74.5564 73.1551C74.6422 72.8984 74.728 72.6417 74.728 72.2995V57.4973H72.7547V71.7005C72.7547 72.2139 72.6689 72.7273 72.4115 73.1551C72.1541 73.5829 71.8967 73.8396 71.5536 74.0107C71.2104 74.1818 70.8672 74.3529 70.524 74.4385C70.1808 74.5241 69.8376 74.6096 69.666 74.6096L69.1513 74.5241Z" fill="#9B9D9D"/>
<path fill-rule="evenodd" clip-rule="evenodd" d="M86.0533 75.0373L76.873 57.4972H78.5032L87.6834 74.9517L86.0533 75.0373ZM76.9588 78.8876L89.9999 53.6469V49.0266L76.9588 73.925V78.8876Z" fill="#9B9D9D"/>
</svg>
