<svg width="29" height="20" viewBox="0 0 29 20" fill="none" xmlns="http://www.w3.org/2000/svg">
<path fill-rule="evenodd" clip-rule="evenodd" d="M10.145 10.9944L3.42684 17.6038L1.90066 19.1394C1.58199 19.46 1.81291 19.9999 2.26875 19.9999L26.715 19.9998C27.1722 19.9998 27.4026 19.4572 27.0811 19.1373L25.4622 17.5262L18.8365 11.0077L16.3159 13.4875C15.3116 14.4755 13.6835 14.4755 12.6792 13.4875L10.145 10.9944Z" fill="white"/>
<path d="M26.9393 0C27.3057 -3.50092e-06 27.4914 0.434047 27.2352 0.691851L25.5436 2.39386L15.0822 12.6859C14.7589 13.004 14.2348 13.004 13.9115 12.6859L3.52889 2.47142L1.74244 0.69352C1.48402 0.436338 1.6692 7.73382e-05 2.03679 7.85738e-05C10.3376 0.000106581 18.6384 7.90801e-05 26.9393 0Z" fill="white"/>
<path d="M29 18.4657C29 18.7097 28.7014 18.8333 28.5241 18.6627L27.3533 17.5365L20.2736 10.5714C20.0548 10.3562 20.0548 10.0072 20.2736 9.79201L27.3 2.8794L28.5229 1.69C28.6999 1.51795 28.9999 1.64124 28.9999 1.88597C28.9999 7.41255 28.9999 12.9391 29 18.4657Z" fill="white"/>
<path d="M0 1.88934C-2.40725e-06 1.64534 0.298573 1.52173 0.475912 1.69231L1.64669 2.81853L8.72643 9.78363C8.94519 9.99886 8.94519 10.3478 8.72643 10.563L1.70005 17.4756L0.47706 18.665C0.300149 18.8371 5.32389e-05 18.7138 5.40849e-05 18.4691C7.30639e-05 12.9425 5.47042e-05 7.41592 0 1.88934Z" fill="white"/>
</svg>
