<svg width="357" height="83" viewBox="0 0 357 83" fill="none" xmlns="http://www.w3.org/2000/svg">
<path d="M28.5259 0C35.5999 0 42.6739 0 49.8209 0C58.9369 6.79616 68.053 13.5923 77.169 20.3885C77.7524 20.8269 78.0441 21.3385 77.9712 22.0692C77.8983 24.9923 78.0441 27.9154 77.8253 30.7654C76.0021 29.3769 74.106 27.9885 72.2828 26.6C71.9182 26.3808 71.6264 26.0885 71.1889 26.1616C71.1159 25.5769 70.6054 25.4308 70.2408 25.1385C63.6773 20.2423 57.1137 15.3462 50.6231 10.45C49.9668 10.0115 49.3833 9.79231 48.5811 9.79231C41.8717 9.79231 35.2353 9.79231 28.5259 9.79231C28.5259 6.57693 28.5259 3.28846 28.5259 0Z" fill="#7276AF"/>
<path d="M53.0298 39.9C52.0817 38.95 50.9148 38.2923 49.8938 37.4154C49.5292 37.1231 49.0916 37.2693 48.727 37.2693C42.0176 37.2693 35.3082 37.2693 28.5259 37.2693C28.5259 33.9808 28.5259 30.6923 28.5259 27.4039C28.6717 27.4039 28.7447 27.3308 28.8905 27.3308C35.6728 27.3308 42.3822 27.3308 49.1646 27.3308C49.6751 27.3308 50.0397 27.55 50.4773 27.8423C53.4673 30.1077 56.5303 32.3731 59.5204 34.5654C59.5933 34.6385 59.6662 34.6385 59.7391 34.7116C59.8121 34.7846 59.885 34.7846 59.885 34.7846C61.927 36.6116 64.1878 38.1462 66.3756 39.7539C67.1778 40.3385 67.98 40.9962 68.8552 41.5808C71.043 43.4077 73.3038 45.0154 75.5646 46.6231C76.2938 47.2077 77.0231 47.7193 77.8253 48.3039C77.8253 51.5193 77.8253 54.8077 77.8253 58.2424C75.4916 56.4885 73.3038 54.8808 71.1159 53.2731C70.3867 52.6885 69.5845 52.177 68.8552 51.5923C66.6673 49.9116 64.4795 48.1577 62.1458 46.6231C61.3436 46.0385 60.6143 45.4539 59.8121 44.7962C57.5513 43.1885 55.4364 41.3616 53.0298 39.9Z" fill="#183884"/>
<path d="M0.156738 44.4308C0.156738 41.2885 0.156738 38.1462 0.156738 35.0039C0.594307 35.0039 0.813083 35.2962 1.1048 35.5154C2.63629 36.6846 4.16778 37.7808 5.69927 38.95C6.06392 39.1692 6.2827 39.6077 6.86613 39.4616C6.7932 39.5346 6.7932 39.5346 6.86613 39.6077C6.86613 39.7539 6.86613 39.8269 7.01198 39.8269C7.81419 40.4116 8.61641 40.9962 9.41862 41.5808C11.4606 43.3346 13.6484 44.9423 15.9092 46.4039C18.8263 48.8154 21.9623 50.9346 24.9523 53.2731C25.9733 54.0769 26.9214 54.6616 28.4529 54.5154C31.2971 54.2231 33.9225 56.7077 34.2871 59.6308C34.6518 62.4808 32.6827 65.4039 29.8385 66.0616C26.9214 66.7923 23.8584 65.1846 22.9103 62.4077C22.6915 61.6769 22.3269 61.1654 21.6706 60.727C17.5136 57.6577 13.3567 54.5885 9.19983 51.4462C7.08491 49.6923 4.89706 48.0116 2.56336 46.55C1.76115 45.9654 1.03187 45.3077 0.22966 44.7231C0.302588 44.65 0.229666 44.5769 0.156738 44.4308Z" fill="#3B5195"/>
<path d="M7.01213 53.5654C13.4298 58.3154 19.7746 63.1385 26.1922 67.8885C26.6298 68.1808 26.9944 68.4 27.5779 68.2539C30.6409 67.7423 33.558 69.7885 34.2143 72.9308C34.8707 75.8539 32.9746 78.9231 30.1304 79.727C27.2132 80.6039 24.0044 78.9962 22.9834 76.0731C22.7646 75.3423 22.327 74.9039 21.7436 74.4654C14.5967 69.1308 7.4497 63.7962 0.302734 58.4616C0.302734 55.2462 0.302734 51.9577 0.302734 48.5962C2.70936 50.35 4.89721 51.9577 7.01213 53.5654Z" fill="#183884"/>
<path d="M2.63618 32.9577C2.41739 32.7385 2.27154 32.5193 1.97983 32.3731C0.375408 31.6424 0.0836951 30.327 0.156623 28.7193C0.30248 26.2347 0.229549 23.75 0.302477 21.2654C0.667118 21.4847 0.958827 21.7039 1.32347 21.9962C3.2196 23.3116 4.96987 24.8462 6.93894 26.0885C7.74115 26.8193 8.54336 27.477 9.49142 27.9154C11.5334 29.6693 13.7213 31.35 15.982 32.8116C16.7842 33.6154 17.6594 34.2731 18.6804 34.7847C18.8262 35.077 19.1179 35.2962 19.4097 35.4424C21.3787 36.9039 23.4207 38.4385 25.3898 39.9001C26.2649 40.7039 27.213 40.9962 28.4528 40.9231C31.3699 40.7039 33.9224 43.1154 34.3599 45.9654C34.7246 48.8154 32.8285 51.7385 30.0572 52.4693C27.213 53.2001 24.15 51.7385 23.129 49.0347C22.7644 48.0847 22.2539 47.427 21.4517 46.9154C20.4307 46.2577 19.4826 45.3077 18.3157 44.7962C17.8052 43.9193 16.9301 43.4808 16.1279 42.9693C14.6693 41.9462 13.4296 40.6308 11.8251 39.9731C11.0959 39.0962 10.1478 38.4385 9.12678 37.927C7.15772 35.9539 4.89695 34.4193 2.63618 32.9577Z" fill="#7276AF"/>
<path d="M71.0431 53.2C73.2309 54.8077 75.4188 56.4154 77.7525 58.1693C77.7525 54.7346 77.7525 51.5193 77.7525 48.2308C78.1171 48.5231 77.9713 48.8885 77.9713 49.2539C77.9713 51.8846 77.9713 54.5885 77.9713 57.2193C77.9713 57.95 77.7525 58.4616 77.0961 58.9C70.095 64.0885 63.0939 69.35 56.0928 74.5385C55.6552 74.9039 55.2906 75.2693 55.1447 75.8539C54.1237 78.9231 51.0608 80.6039 47.9249 79.8C45.1536 79.0693 43.1845 75.8539 43.695 73.077C44.3514 69.7885 47.2685 67.7423 50.5503 68.2539C51.0608 68.3269 51.3525 68.1808 51.6442 67.8885C57.916 63.2116 64.1878 58.5346 70.4597 53.8577C70.8243 53.7116 71.116 53.5654 71.0431 53.2Z" fill="#AAA9A9"/>
<path d="M77.8985 34.7847C77.8985 38.0001 77.8985 41.2154 77.8985 44.3578C77.4609 44.3578 77.1692 43.9924 76.8775 43.7731C75.2731 42.6039 73.7416 41.4347 72.1372 40.2654C71.8455 40.0462 71.6267 39.7539 71.1891 39.9001C71.262 39.827 71.262 39.827 71.262 39.6808C71.262 39.5347 71.262 39.4616 71.1162 39.4616C70.314 38.877 69.5118 38.2924 68.6366 37.7808C66.5946 36.027 64.4068 34.4193 62.146 32.9578C61.8543 32.7385 61.6355 32.4462 61.3438 32.227C57.4786 29.3039 53.5405 26.3808 49.6753 23.4577C49.6753 20.1693 49.6753 16.9539 49.6753 13.6654C50.1129 13.6654 50.3316 14.0308 50.6234 14.177C54.3427 16.9539 58.062 19.7308 61.7814 22.5077C64.188 24.2616 66.5217 26.2347 69.0742 27.8424C71.1162 29.5962 73.304 31.2039 75.5648 32.6654C76.367 33.2501 77.0963 33.9078 77.8985 34.4924C77.8256 34.6385 77.8985 34.7116 77.8985 34.7847Z" fill="#3C5295"/>
<path d="M6.93919 26.0154C4.97013 24.7731 3.21986 23.2385 1.32372 21.9231C0.959084 21.7039 0.667375 21.4846 0.302734 21.1923C0.302734 20.8269 0.667378 20.6077 0.886162 20.4615C9.92926 13.7385 18.9724 6.94231 28.0154 0.219231C28.1613 0.146154 28.3801 0.073077 28.5259 0C28.5259 3.28846 28.5259 6.57693 28.5259 9.79231C23.7856 13.3 19.0453 16.8077 14.3779 20.3154C11.8983 22.2154 9.2729 23.9692 6.93919 26.0154Z" fill="#AAA9A9"/>
<path d="M62.1455 46.6231C64.4792 48.1577 66.667 49.8385 68.8549 51.5923C64.9897 54.5154 61.1245 57.3654 57.1864 60.2154C56.2383 60.9462 55.4361 61.6769 54.9985 62.8462C53.8317 65.6231 50.5499 66.9385 47.8516 65.9885C45.0074 64.9654 43.2571 61.8962 43.9864 59.1193C44.7886 55.9769 47.5599 54.0039 50.6958 54.5885C51.425 54.7346 51.7168 54.3693 52.1543 54.0769C55.2902 51.7385 58.3532 49.4 61.4162 47.1346C61.635 46.9154 61.8538 46.7692 62.1455 46.6231Z" fill="#AAA9A9"/>
<path d="M53.0296 39.9001C55.4363 41.3616 57.5512 43.1885 59.812 44.8693C58.718 45.0885 58.0617 46.0385 57.1136 46.6231C56.0926 47.2808 55.3633 48.0847 54.9258 49.2539C53.7589 52.0308 50.4771 53.3462 47.7788 52.3962C44.9346 51.3732 43.1843 48.3039 43.9136 45.527C44.7158 42.3847 47.4871 40.4847 50.623 40.9962C51.0606 41.0693 51.3523 40.9231 51.7169 40.7039C52.1545 40.4116 52.4462 39.9001 53.0296 39.9001Z" fill="#AAA9A9"/>
<path d="M25.3896 39.9C23.4205 38.4385 21.3785 36.9039 19.4095 35.4423C19.1177 35.2231 18.826 35.0769 18.6802 34.7846C21.8161 32.1539 25.1708 29.7423 28.5255 27.4039C28.5255 30.6923 28.5255 33.9808 28.5255 37.2692C27.6503 37.9269 26.7752 38.5116 25.9001 39.1692C25.6813 39.3154 25.3896 39.4616 25.3896 39.9Z" fill="#ABAAAA"/>
<path d="M7.01165 53.5654C4.8238 51.9577 2.63596 50.35 0.302256 48.5962C0.302256 52.0308 0.302256 55.2462 0.302256 58.4616C-0.135313 58.1693 0.0834695 57.7308 0.0834695 57.2923C0.0834695 54.8808 0.156393 52.4693 0.0105368 49.9846C-0.0623914 48.8154 0.229324 47.9385 1.32325 47.427C1.76082 47.2077 2.19839 46.8423 2.63596 46.55C4.96966 48.0846 7.15751 49.6923 9.27243 51.4462C8.54314 52.25 7.44922 52.5423 7.01165 53.5654Z" fill="#AAA9A9"/>
<path d="M71.1887 39.9C71.6262 39.7539 71.845 40.0462 72.1367 40.2654C73.7412 41.4346 75.2727 42.6039 76.8771 43.7731C77.1688 43.9923 77.4605 44.3577 77.8981 44.3577C77.6793 45.1616 76.8771 45.3077 76.4395 45.7462C76.1478 46.0385 75.7102 46.1846 75.5644 46.55C73.3036 44.8693 70.9699 43.2616 68.855 41.5077C69.5843 40.9962 70.3865 40.4116 71.1887 39.9Z" fill="#AAA9A9"/>
<path d="M2.63612 32.9577C4.8969 34.4193 7.15767 35.9539 9.12673 37.8539C8.47038 38.5116 7.74109 39.0962 6.93888 39.5346C6.42839 39.6808 6.13668 39.2423 5.77204 39.0231C4.24055 37.8539 2.70905 36.6846 1.17756 35.5885C0.885848 35.3693 0.667061 35.0769 0.229492 35.0769C0.73999 33.9808 1.76099 33.6154 2.63612 32.9577Z" fill="#AAA9A9"/>
<path d="M75.4916 32.7385C73.2308 31.277 71.043 29.6693 69.001 27.9154C69.5844 27.1116 70.3866 26.6731 71.1888 26.2347C71.6264 26.1616 71.9181 26.4539 72.2827 26.6731C74.1059 28.0616 76.0021 29.45 77.8253 30.8385C77.3148 31.7885 76.2938 32.1539 75.4916 32.7385Z" fill="#AAA9A9"/>
<path d="M11.8249 39.9001C13.5023 40.6308 14.742 41.8731 16.1277 42.8962C16.9299 43.4078 17.805 43.8462 18.3155 44.7231C17.5862 45.3808 16.857 45.9655 15.9818 46.477C13.7211 45.0155 11.5332 43.4078 9.49121 41.6539C10.1476 40.8501 10.9498 40.3385 11.8249 39.9001Z" fill="#AAA9A9"/>
<path d="M59.812 34.7846C60.3954 33.9808 61.3435 33.5423 62.1457 32.9577C64.4065 34.4193 66.5943 36.0269 68.6363 37.7808C68.0529 38.5846 67.0319 38.95 66.3755 39.6808C64.1148 38.1462 61.9269 36.5385 59.812 34.7846Z" fill="#AAA9A9"/>
<path d="M49.6017 23.4578C43.9133 23.4578 38.2249 23.677 32.5365 23.4578C29.6194 23.3847 27.2857 24.1154 25.0249 26.0154C22.1078 28.427 19.0448 30.5462 15.9818 32.7385C13.7211 31.277 11.5332 29.5962 9.49121 27.8424C11.8978 25.7231 14.5962 23.9693 17.1487 22.0693C20.6492 19.4385 24.1498 16.8808 27.5774 14.2501C28.015 13.8847 28.4525 13.6654 29.1089 13.6654C35.8183 13.6654 42.5277 13.6654 49.2371 13.6654C49.3829 13.6654 49.5288 13.7385 49.6746 13.7385C49.6017 16.9539 49.6017 20.2424 49.6017 23.4578Z" fill="#AAA9A9"/>
<path d="M157.34 8.79864C156.93 10.8088 156.521 12.819 156.112 14.7701C154.768 21.3918 153.365 28.0136 152.078 34.6354C151.962 35.1675 151.786 35.404 151.202 35.3448C149.799 35.2857 148.454 35.2857 147.051 35.3448C146.525 35.3448 146.35 35.1675 146.233 34.6354C144.83 27.5406 143.368 20.4459 141.907 13.3511C141.615 11.8139 141.264 10.2176 140.972 8.68039C140.913 8.68039 140.855 8.68039 140.855 8.68039C140.855 9.03513 140.855 9.38987 140.855 9.74461C140.855 17.9627 140.855 26.1808 140.855 34.3989C140.855 35.1084 140.738 35.3448 139.978 35.2857C138.75 35.2266 137.523 35.2266 136.295 35.2857C135.652 35.2857 135.477 35.1083 135.477 34.458C135.477 30.7333 135.477 26.9494 135.477 23.2246C135.477 15.9525 135.477 8.73952 135.477 1.46739C135.477 0.698796 135.71 0.521423 136.412 0.521423C138.633 0.580546 140.913 0.580546 143.134 0.521423C143.778 0.521423 144.07 0.698789 144.187 1.34914C145.707 8.62126 147.285 15.8343 148.863 23.1064C148.922 23.3429 148.98 23.6385 149.156 24.1115C149.916 20.4459 150.675 17.0167 151.435 13.5876C152.312 9.44899 153.248 5.31039 154.066 1.17178C154.183 0.639673 154.358 0.521423 154.884 0.521423C157.281 0.521423 159.678 0.521423 162.075 0.521423C162.601 0.521423 162.776 0.639667 162.776 1.2309C162.776 12.346 162.776 23.4611 162.776 34.6354C162.776 35.2266 162.542 35.3448 162.075 35.3448C160.847 35.2857 159.619 35.2857 158.392 35.3448C157.69 35.404 157.515 35.1083 157.515 34.458C157.515 26.4173 157.515 18.3766 157.515 10.3358C157.515 9.80373 157.515 9.33074 157.515 8.79864C157.457 8.79864 157.398 8.79864 157.34 8.79864Z" fill="#183884"/>
<path d="M212.582 20.2094C215.096 21.9239 216.557 24.4662 217.902 27.0676C219.305 29.7873 220.708 32.507 222.111 35.404C219.889 35.404 217.785 35.404 215.68 35.404C215.213 35.404 215.154 35.0492 215.037 34.7536C213.283 31.561 211.471 28.3092 209.718 25.1166C209.542 24.821 209.308 24.5254 209.191 24.1706C208.022 21.7466 206.093 20.6824 203.463 20.8597C202.761 20.9189 202.527 21.0371 202.527 21.8057C202.586 26.0034 202.527 30.2012 202.586 34.3989C202.586 35.1675 202.41 35.4631 201.592 35.404C200.306 35.3449 199.02 35.3449 197.734 35.404C197.032 35.404 196.857 35.2266 196.857 34.5171C196.915 29.9647 196.857 25.4713 196.857 20.9189C196.857 14.4745 196.857 7.97093 196.857 1.52652C196.857 0.876171 196.974 0.639679 197.675 0.639679C201.826 0.698802 205.918 0.639683 210.068 0.698806C211.062 0.698806 212.114 0.817048 213.108 0.935294C216.732 1.40828 218.662 3.7732 219.538 7.08409C220.181 9.62637 220.123 12.1687 219.246 14.6518C218.194 17.4306 216.148 19.086 213.342 19.8546C213.108 19.9138 212.874 19.9138 212.582 20.2094ZM206.912 6.6111C206.912 6.55198 206.912 6.55198 206.912 6.49286C205.684 6.49286 204.398 6.49286 203.17 6.49286C202.703 6.49286 202.527 6.6111 202.527 7.08409C202.527 9.62637 202.527 12.2278 202.527 14.7701C202.527 15.1248 202.586 15.3022 202.995 15.3022C205.626 15.2431 208.315 15.4204 210.945 15.0657C212.29 14.8883 213.225 14.1197 213.693 12.819C214.043 11.8139 214.102 10.8088 213.927 9.80374C213.576 7.73443 212.465 6.67022 210.361 6.6111C209.25 6.6111 208.081 6.6111 206.912 6.6111Z" fill="#183884"/>
<path d="M254.671 13.1146C254.671 13.4102 254.671 13.7058 254.671 14.0014C254.671 20.8597 254.671 27.6588 254.671 34.5171C254.671 35.2266 254.495 35.4631 253.794 35.4039C252.625 35.3448 251.397 35.3448 250.228 35.4039C249.643 35.4039 249.41 35.2857 249.41 34.6353C249.41 23.5202 249.41 12.4642 249.41 1.34911C249.41 0.757879 249.585 0.639635 250.111 0.639635C251.456 0.698758 252.8 0.698758 254.145 0.639635C254.788 0.580512 255.08 0.876128 255.372 1.40824C258.88 8.50299 262.446 15.6569 265.953 22.7516C266.07 22.9881 266.245 23.2837 266.479 23.5202C266.479 23.2246 266.479 22.8699 266.479 22.5743C266.479 15.5977 266.479 8.62123 266.479 1.64472C266.479 0.757879 266.713 0.580512 267.531 0.639635C268.701 0.698758 269.87 0.698758 271.039 0.639635C271.682 0.639635 271.799 0.817009 271.799 1.46736C271.799 6.84755 271.799 12.2277 271.799 17.6079C271.799 23.2246 271.799 28.8413 271.799 34.458C271.799 35.2266 271.623 35.4631 270.864 35.4039C269.577 35.3448 268.291 35.3448 267.005 35.4039C266.304 35.4631 265.953 35.2266 265.661 34.5762C262.212 27.6588 258.763 20.7414 255.314 13.8241C255.197 13.5876 255.08 13.3511 254.963 13.1146C254.788 13.1146 254.729 13.1146 254.671 13.1146Z" fill="#183884"/>
<path d="M276.592 18.6722C276.592 14.1197 277.118 10.2767 278.989 6.78846C281.678 1.82214 285.829 -0.247169 291.265 0.107568C296.292 0.462306 299.741 3.24108 301.904 7.73443C303.775 11.6957 304.067 15.9525 303.775 20.3276C303.541 23.6385 302.84 26.8311 301.144 29.7282C298.631 34.0441 294.831 36.1134 289.921 35.9952C284.718 35.9361 280.977 33.4529 278.638 28.7231C277.06 25.3531 276.592 21.6874 276.592 18.6722ZM298.046 17.9627C298.046 16.1299 297.929 14.3562 297.52 12.5825C296.877 10.0402 295.708 7.9118 293.311 6.72934C289.628 4.95565 285.361 6.72934 283.724 10.7497C282.204 14.5927 282.263 18.613 282.964 22.6334C283.198 24.0524 283.666 25.3531 284.484 26.5947C287.641 31.4427 293.896 31.1471 296.585 26.0034C297.754 23.4611 297.988 20.7415 298.046 17.9627Z" fill="#183884"/>
<path d="M127.059 10.7497C127 10.7497 126.942 10.7497 126.883 10.7497C126.123 10.8088 125.305 11.0453 124.662 10.8088C123.902 10.5132 124.194 9.5081 123.902 8.85774C123.376 7.37967 122.382 6.4337 120.862 6.07896C119.459 5.78334 118.056 5.78335 116.712 6.31546C115.484 6.78844 114.549 7.61616 114.432 9.09423C114.315 10.5723 115.075 11.5774 116.302 12.2278C117.472 12.819 118.641 13.2328 119.868 13.5876C121.271 14.0014 122.733 14.4744 124.136 15.0065C127.935 16.4846 130.157 19.1451 130.683 23.2837C131.151 27.1267 130.449 30.5559 127.643 33.3346C125.772 35.1675 123.434 35.7587 120.921 35.9361C117.472 36.1725 114.198 35.6996 111.567 33.1573C109.58 31.2062 108.703 28.6639 108.177 26.0034C107.826 24.0523 107.826 24.0523 109.814 23.8158C110.807 23.6976 111.801 23.5794 112.736 23.4611C113.263 23.402 113.496 23.4611 113.555 24.0523C113.73 25.1757 114.081 26.299 114.607 27.3041C116.361 30.3785 121.096 31.0288 123.668 28.6048C126.006 26.3581 125.363 22.8699 122.44 21.6874C120.044 20.7415 117.588 20.0911 115.192 19.1451C108.528 16.662 107.475 8.32563 110.866 3.71404C112.21 1.88123 114.023 0.817017 116.244 0.344034C118.758 -0.12895 121.271 -0.188073 123.668 0.639648C128.345 2.23597 129.865 6.19721 130.04 10.0993C130.04 10.5723 129.748 10.5723 129.455 10.5723C128.637 10.5723 127.819 10.5723 127.059 10.5723C127.059 10.6906 127.059 10.6906 127.059 10.7497Z" fill="#183884"/>
<path d="M353.815 35.404C352.996 35.3449 351.71 35.8178 351.067 35.2266C350.424 34.6945 350.366 33.4529 350.073 32.507C349.606 31.0289 349.138 29.6099 348.729 28.1319C348.612 27.718 348.437 27.5406 347.969 27.5406C344.578 27.5406 341.188 27.5406 337.856 27.5406C337.33 27.5406 337.213 27.7771 337.096 28.191C336.453 30.3785 335.81 32.507 335.225 34.6945C335.05 35.2266 334.816 35.4631 334.231 35.4631C332.77 35.404 331.309 35.404 329.847 35.4631C329.146 35.4631 328.97 35.3449 329.204 34.5763C331.542 27.245 333.881 19.8546 336.161 12.5234C337.33 8.85777 338.499 5.19215 339.61 1.46741C339.785 0.817053 340.077 0.639679 340.72 0.639679C342.24 0.698802 343.702 0.698802 345.221 0.639679C345.689 0.639679 345.981 0.757925 346.098 1.23091C349.664 12.4051 353.289 23.5203 356.913 34.6945C357.088 35.2857 357.03 35.4631 356.445 35.404C355.627 35.3449 354.808 35.404 353.815 35.404ZM342.766 8.73952C342.357 10.0994 342.006 11.2227 341.714 12.346C340.837 15.1839 340.019 18.081 339.142 20.9189C338.966 21.5101 339.025 21.6875 339.726 21.6875C341.772 21.6283 343.818 21.6875 345.923 21.6875C346.507 21.6875 346.741 21.6283 346.507 20.978C346.274 20.3868 346.157 19.7955 345.981 19.1452C344.871 15.7752 343.877 12.346 342.766 8.73952Z" fill="#183884"/>
<path d="M190.66 35.404C189.9 35.404 189.082 35.3449 188.322 35.404C187.796 35.404 187.62 35.2266 187.445 34.7536C186.802 32.5661 186.042 30.3785 185.399 28.191C185.223 27.6589 184.99 27.4815 184.464 27.5406C181.19 27.5406 177.916 27.5406 174.584 27.5406C174 27.5406 173.824 27.7771 173.707 28.2501C173.123 30.3785 172.421 32.507 171.837 34.6945C171.661 35.2857 171.369 35.4631 170.785 35.4631C169.323 35.404 167.862 35.404 166.4 35.4631C165.582 35.5222 165.64 35.2266 165.816 34.5763C169.265 23.7568 172.655 12.8781 176.104 1.99951C176.513 0.639681 176.513 0.639679 177.916 0.639679C179.261 0.639679 180.605 0.639679 181.95 0.639679C182.418 0.639679 182.593 0.757925 182.768 1.23091C186.393 12.4051 190.017 23.5794 193.641 34.7536C193.817 35.3449 193.7 35.404 193.174 35.404C192.297 35.3449 191.478 35.404 190.66 35.404ZM175.636 21.6875C178.092 21.6875 180.43 21.6875 182.71 21.6875C183.236 21.6875 183.294 21.5101 183.177 21.0371C181.95 17.0167 180.722 12.9964 179.495 8.73952C178.209 13.1146 176.923 17.3124 175.636 21.6875Z" fill="#183884"/>
<path d="M318.799 26.3581C319.384 24.2297 319.91 22.2786 320.436 20.3867C322.131 14.0606 323.827 7.7344 325.463 1.40824C325.639 0.81701 325.873 0.580516 326.457 0.639639C327.919 0.698762 329.38 0.698762 330.842 0.639639C331.543 0.639639 331.66 0.75789 331.485 1.46737C329.965 6.55194 328.503 11.6365 327.042 16.7211C325.347 22.6334 323.593 28.6048 321.898 34.5171C321.722 35.2266 321.43 35.4039 320.728 35.4039C319.267 35.3448 317.864 35.3448 316.403 35.4039C315.701 35.4631 315.409 35.2266 315.233 34.5171C312.486 24.9392 309.738 15.3613 306.932 5.78333C306.523 4.30526 306.056 2.76807 305.646 1.29C305.529 0.817011 305.53 0.639639 306.056 0.639639C307.751 0.639639 309.388 0.698762 311.083 0.639639C311.668 0.639639 311.726 0.994379 311.843 1.40824C314.123 9.62633 316.403 17.8444 318.799 26.3581Z" fill="#183884"/>
<path d="M237.251 20.9189C237.251 25.4713 237.251 29.9647 237.251 34.5171C237.251 35.1675 237.134 35.404 236.433 35.404C235.147 35.3449 233.802 35.3449 232.516 35.404C231.814 35.404 231.639 35.2266 231.639 34.5171C231.698 29.3734 231.639 24.1706 231.639 19.0269C231.639 15.1839 231.639 11.3409 231.639 7.49795C231.639 6.72935 231.522 6.43373 230.704 6.49286C228.482 6.55198 226.203 6.49285 223.981 6.55197C223.397 6.55197 223.221 6.3746 223.221 5.78337C223.28 4.3053 223.28 2.88635 223.221 1.40828C223.221 0.876173 223.338 0.639679 223.923 0.639679C230.938 0.639679 237.894 0.639679 244.909 0.639679C245.493 0.639679 245.669 0.81705 245.669 1.40828C245.61 2.82723 245.61 4.24618 245.669 5.66513C245.669 6.31548 245.552 6.55197 244.85 6.55197C242.629 6.49285 240.408 6.55198 238.245 6.49286C237.485 6.49286 237.309 6.67022 237.309 7.43882C237.251 11.9322 237.251 16.4255 237.251 20.9189Z" fill="#183884"/>
<path d="M122.586 69.0601C122.052 69.6527 121.637 70.2452 121.162 70.7193C118.256 73.682 113.809 73.445 111.14 70.2452C109.243 67.9343 108.353 65.2086 108.116 62.3051C107.879 59.2832 107.938 56.3205 108.946 53.417C109.717 51.2246 110.962 49.3877 112.979 48.0841C115.944 46.188 119.739 46.8398 121.993 49.5655C122.348 49.9802 122.645 50.395 123.119 51.0468C123.119 49.9802 123.119 49.1507 123.119 48.3211C123.119 47.7878 123.238 47.4916 123.89 47.4916C125.076 47.5508 126.322 47.4916 127.508 47.4916C128.041 47.4916 128.279 47.6693 128.279 48.2026C128.279 56.2019 128.279 64.2013 128.219 72.2006C128.219 73.682 128.041 75.1633 127.686 76.5855C126.796 80.2 124.602 82.3331 120.806 82.8072C118.375 83.1034 115.825 83.1627 113.453 82.2146C110.429 81.0888 108.59 78.3038 108.768 75.0448C108.768 74.5708 109.005 74.393 109.42 74.5115C111.14 74.7486 112.919 75.0448 114.639 75.2818C115.054 75.3411 115.054 75.6374 115.173 75.9337C115.588 77.2372 116.122 77.7705 117.486 77.8298C118.375 77.889 119.265 77.889 120.213 77.652C121.518 77.2965 122.289 76.4669 122.586 75.1633C122.763 74.0968 122.882 70.423 122.586 69.0601ZM122.823 59.8757C122.823 57.9796 122.645 56.1427 121.696 54.4243C120.036 51.5208 116.596 51.4023 114.817 54.2465C114.461 54.7798 114.224 55.3724 114.046 55.9649C113.512 58.0981 113.572 60.2312 113.809 62.3644C113.927 63.4902 114.283 64.6161 114.936 65.6234C116.537 67.9936 119.443 68.1121 121.222 65.9197C122.586 64.0828 122.763 62.0089 122.823 59.8757Z" fill="#969594"/>
<path d="M202.881 51.2838C203.592 50.2765 204.126 49.4469 204.897 48.7951C208.099 46.1879 212.191 46.6027 214.86 49.7432C216.817 52.0541 217.647 54.7798 217.884 57.6833C218.121 60.7645 218.062 63.8457 217.054 66.8677C216.461 68.5861 215.571 70.1267 214.267 71.371C211.301 74.2153 207.387 74.156 204.541 71.1933C204.185 70.8378 203.829 70.423 203.414 70.0082C203.177 70.3045 203.296 70.66 203.296 70.897C203.296 74.4523 203.296 78.0668 203.296 81.6221C203.296 82.2739 203.177 82.5109 202.465 82.5109C201.22 82.4516 199.915 82.4516 198.67 82.5109C197.958 82.5701 197.84 82.2739 197.84 81.6221C197.84 73.682 197.84 65.6826 197.84 57.7425C197.84 54.6613 197.84 51.6393 197.84 48.5581C197.84 47.8471 198.018 47.61 198.729 47.61C199.856 47.6693 201.042 47.6693 202.169 47.61C202.762 47.61 202.94 47.7878 202.94 48.3804C202.821 49.2099 202.881 50.0987 202.881 51.2838ZM212.369 59.935C212.25 59.0461 212.428 57.9203 212.072 56.7945C211.894 56.2019 211.717 55.5501 211.479 55.0168C210.768 53.417 209.582 52.2911 207.743 52.2911C205.846 52.3504 204.66 53.5355 203.948 55.1946C203.058 57.3278 203.058 59.5794 203.296 61.8311C203.414 63.1939 203.711 64.616 204.422 65.8011C205.193 67.0455 206.201 67.9935 207.743 68.0528C209.522 68.112 211.005 66.9862 211.776 64.9716C212.31 63.431 212.31 61.7718 212.369 59.935Z" fill="#969594"/>
<path d="M169.256 58.8684C169.197 64.0235 168.248 67.5788 165.52 70.423C161.073 75.0448 153.363 74.156 150.042 68.6453C148.026 65.3271 147.67 61.7126 148.026 57.9796C148.263 55.1946 149.212 52.6467 151.051 50.5135C155.617 45.1806 163.741 46.0694 167.24 52.1726C168.604 54.6613 169.256 57.2685 169.256 58.8684ZM163.563 60.172C163.623 58.5129 163.445 56.8537 162.615 55.3131C161.725 53.7133 160.48 52.5282 158.582 52.5282C156.625 52.5282 155.261 53.654 154.49 55.3724C153.067 58.5721 153.067 61.9496 154.49 65.1493C155.261 66.8677 156.625 67.9936 158.641 67.9936C160.658 67.9936 161.844 66.7492 162.674 65.0901C163.445 63.5495 163.623 61.8904 163.563 60.172Z" fill="#969594"/>
<path d="M187.166 69.1194C186.217 70.6008 185.209 71.6674 183.904 72.4377C179.575 74.9856 174.534 72.6154 173.704 67.6973C173.467 66.2752 173.348 64.8531 173.348 63.431C173.348 58.5129 173.348 53.5355 173.348 48.6174C173.348 47.7878 173.585 47.5508 174.356 47.6101C175.483 47.6693 176.669 47.6693 177.796 47.6101C178.685 47.5508 178.863 47.9064 178.804 48.6767C178.745 50.3358 178.745 51.9949 178.804 53.654C178.863 57.0315 178.863 60.409 178.923 63.8458C178.923 64.3791 178.982 64.9124 179.1 65.4456C179.516 68.0528 182.006 69.1194 184.26 67.7566C185.98 66.69 186.454 64.9716 186.573 63.0755C186.81 58.2759 186.75 53.417 186.691 48.6174C186.691 47.7878 186.869 47.4916 187.759 47.5508C188.945 47.6101 190.19 47.6101 191.376 47.5508C191.91 47.5508 192.206 47.6693 192.206 48.3211C192.206 56.2612 192.206 64.2013 192.206 72.1414C192.206 72.6154 192.088 72.8524 191.554 72.8524C190.309 72.7932 189.004 72.8524 187.759 72.8524C187.284 72.8524 187.106 72.6747 187.106 72.2006C187.225 71.2526 187.166 70.3045 187.166 69.1194Z" fill="#969594"/>
<path d="M138.479 51.0468C139.131 50.0987 139.605 49.2692 140.198 48.4989C141.977 46.2472 144.883 46.899 146.603 48.1433C146.84 48.3211 146.781 48.4989 146.722 48.6766C146.188 50.4543 145.654 52.2319 145.18 54.0095C144.824 53.7725 144.527 53.5947 144.172 53.417C142.274 52.4689 140.495 53.1207 139.783 55.1354C139.19 56.7352 139.072 58.4536 139.072 60.1127C139.012 64.0235 139.012 67.9343 139.012 71.8451C139.012 72.5561 138.834 72.7931 138.123 72.7931C136.818 72.7339 135.454 72.7339 134.15 72.7931C133.616 72.7931 133.438 72.6154 133.438 72.1414C133.438 64.2013 133.438 56.2019 133.438 48.2618C133.438 47.7878 133.616 47.5508 134.09 47.5508C135.336 47.5508 136.64 47.5508 137.886 47.5508C138.36 47.5508 138.479 47.7878 138.479 48.2026C138.419 49.0914 138.479 49.9802 138.479 51.0468Z" fill="#969594"/>
</svg>
