<svg width="20" height="25" viewBox="0 0 20 25" fill="none" xmlns="http://www.w3.org/2000/svg">
<path d="M4.20325 6.65952C3.38008 6.95363 3.08508 8.12383 3.54067 9.42854C3.81767 10.2214 4.3 10.8477 4.83092 11.1038C4.95075 11.1617 5.04875 11.2007 5.16908 11.2207C5.52892 11.954 6 12.6849 6.5 13.3185V15.2778H4.50133C2.03 15.2778 0 17.371 0 19.8674V22.1971C0 22.4525 0.155833 22.685 0.38475 22.7937C3.93208 24.4782 7.28492 25.0001 10.0719 25C11.539 25 12.8534 24.8553 13.9567 24.6595C17.4313 24.0428 19.5927 22.8236 19.6836 22.772C19.8895 22.6552 20 22.4354 20 22.1971V19.8674C20 17.371 18.0255 15.2778 15.554 15.2778H13.5833V13.1455C14.0833 12.5548 14.4717 11.8909 14.7989 11.2246C15.0997 11.1818 15.4077 11.0211 15.6838 10.7514C16.015 10.4282 16.3009 9.95834 16.4862 9.42812C16.8206 8.47013 16.7658 7.59042 16.3871 7.07383C16.3871 2.31449 13.1839 0.000100983 9.99992 0.000100983C8.58367 0.000100983 4.30583 0.000690209 4.26283 0.000100983C4.066 -0.00343437 3.87875 0.0860437 3.75342 0.239242C3.62783 0.392357 3.57767 0.594545 3.6165 0.789494C3.82242 1.82325 4.20525 2.75549 4.75467 3.57948L4.20325 6.65952ZM6.38833 5.34168C6.385 6.01415 6.23808 6.48612 5.9735 6.67106C5.83667 6.76676 5.66583 6.79437 5.50608 6.7921L5.84808 4.87417C6.01925 5.03629 6.19975 5.19193 6.38833 5.34168ZM7.83333 15.9995V14.5171C8.5 14.9599 9.19642 15.2314 9.97033 15.2314C10.8012 15.2314 11.5833 14.9185 12.25 14.4168V15.9995C12.25 16.1726 12.3368 16.3297 12.4449 16.4473C12.3018 17.4079 11.0482 19.0615 10.0174 20.1896C8.97333 19.0457 7.77975 17.454 7.589 16.5165C7.74033 16.3958 7.83333 16.2093 7.83333 15.9995ZM15.3777 7.85573C15.4147 8.03477 15.4232 8.51272 15.2567 8.98957C15.0633 9.54302 14.7839 9.82501 14.6603 9.9006C14.5209 9.84378 14.3654 9.83679 14.2202 9.88284C14.0411 9.93957 13.8948 10.0715 13.8187 10.2449C13.0767 11.937 11.6313 13.9127 9.99992 13.9127C8.82733 13.9127 7.75 12.8903 6.96158 11.6879C7.52683 11.9189 8.06475 11.9788 8.47667 11.9873C8.64175 12.2024 8.89933 12.3317 9.18975 12.3317H10.3439C10.8422 12.3317 11.2502 11.9432 11.2502 11.4398V11.1529C11.2502 10.6495 10.8422 10.2273 10.3439 10.2273H9.18975C8.86117 10.2273 8.5745 10.4123 8.41667 10.6775C8.17142 10.6672 7.86408 10.6269 7.54008 10.5047C6.63 10.1615 5.96083 9.35674 5.54592 8.10986C5.90975 8.10632 6.32383 8.02467 6.70475 7.76255C7.18925 7.4293 7.49692 6.89387 7.62517 6.16558C8.43142 6.6155 9.34733 6.98225 10.37 7.2591C12.1372 7.73764 14.3689 7.84361 15.3777 7.85573ZM10.0004 1.31433C12.2716 1.31433 14.9113 2.73579 15.0827 6.52366C15.0812 6.52366 15.0798 6.52366 15.0782 6.52366C13.0518 6.52366 6.68792 6.13107 5.10508 1.31433C6.43958 1.32712 8.97017 1.31433 10.0004 1.31433ZM18.6667 21.7924C18 22.1391 16.1696 22.9299 13.6533 23.37C10.7253 23.8824 6.25 24.0082 1.33333 21.7742V19.8675C1.33333 18.0982 2.74975 16.6247 4.50133 16.6247H6.30508C6.63392 18.5607 9.25042 21.2726 9.56642 21.5915C9.69383 21.7201 9.86075 21.7929 10.0277 21.7929C10.1947 21.7929 10.3617 21.7158 10.4891 21.5872C10.8051 21.2684 13.4216 18.5607 13.7505 16.6247H15.5541C17.3057 16.6247 18.6667 18.0983 18.6667 19.8675V21.7924H18.6667Z" fill="#042567"/>
</svg>
