<svg width="27" height="19" viewBox="0 0 27 19" fill="none" xmlns="http://www.w3.org/2000/svg">
<path d="M25.1001 5.86015H25.1L25.0593 13.5573C25.0593 13.5574 25.0593 13.5575 25.0593 13.5575L25.0593 13.5579L24.9593 13.5573C24.9593 13.8366 24.7302 14.06 24.4502 14.06H23.4168C23.1368 14.06 22.9078 13.8315 22.9078 13.5523C22.9078 13.273 23.1368 13.0445 23.4168 13.0445L25.1001 5.86015ZM25.1001 5.86015L25.0999 5.85628C25.094 5.67815 25.0166 5.50288 24.8752 5.38638L21.2307 2.37561C21.1209 2.28437 20.9863 2.23572 20.841 2.23572H16.6547V0.507766C16.6547 0.173026 16.3806 -0.0999995 16.0456 -0.0999995H3.07982C2.74485 -0.0999995 2.47076 0.173027 2.47076 0.507766V4.22461C2.47076 4.55935 2.74485 4.83238 3.07982 4.83238C3.41479 4.83238 3.68888 4.55935 3.68888 4.22461V1.11553H15.4416V12.9547H11.3673C11.0324 12.9547 10.7583 13.2277 10.7583 13.5624C10.7583 13.8972 11.0324 14.1702 11.3673 14.1702H17.583C17.9179 14.1702 18.192 13.8972 18.192 13.5624C18.192 13.2277 17.9179 12.9547 17.583 12.9547H16.6598V3.45125H20.6268L23.8816 6.14009L23.8468 12.9445L25.1001 5.86015ZM18.7396 13.0291L18.7392 13.0296C18.2834 13.4842 18.0277 14.078 18.0277 14.7151C18.0277 15.3516 18.278 15.9458 18.7396 16.401L18.74 16.4014C19.2011 16.8507 19.8012 17.1 20.4388 17.1C21.747 17.1 22.8092 16.0289 22.8092 14.7151C22.8092 13.4012 21.747 12.3301 20.4388 12.3301C19.8015 12.3301 19.196 12.5792 18.7396 13.0291ZM22.6286 6.1205L22.6284 6.12034L21.0979 4.74591C21.0976 4.74561 21.0973 4.74532 21.0969 4.74502C20.9857 4.64069 20.8389 4.58668 20.6882 4.58668H18.0768C17.7418 4.58668 17.4677 4.8597 17.4677 5.19444V9.35812C17.4677 9.69286 17.7418 9.96589 18.0768 9.96589H22.2205C22.5555 9.96589 22.8296 9.69286 22.8296 9.35812V6.57049C22.8296 6.39975 22.7563 6.23577 22.6286 6.1205ZM6.30833 13.0291L6.30792 13.0296C5.85214 13.4842 5.5964 14.078 5.5964 14.7151C5.5964 15.3516 5.84671 15.9458 6.30833 16.401L6.30875 16.4014C6.7698 16.8507 7.36989 17.1 8.00753 17.1C9.31568 17.1 10.3779 16.0289 10.3779 14.7151C10.3779 13.4012 9.31568 12.3301 8.00753 12.3301C7.37022 12.3301 6.76472 12.5792 6.30833 13.0291ZM7.71679 8.58985H7.71737L1.54188 8.5543L1.5422 8.5543C1.54229 8.5543 1.54237 8.5543 1.54246 8.5543L7.71679 8.58985ZM1.54755 7.33877C1.21419 7.33877 0.938974 7.60494 0.938486 7.94056L7.72755 7.47431L7.72813 7.37432L7.72789 7.37431C7.72778 7.37431 7.72766 7.37431 7.72755 7.37431L1.55321 7.33877H1.55264H1.55261H1.55258H1.55255H1.55252H1.55249H1.55246H1.55243H1.5524H1.55237H1.55234H1.55232H1.55229H1.55226H1.55223H1.5522H1.55217H1.55215H1.55212H1.55209H1.55206H1.55204H1.55201H1.55198H1.55195H1.55193H1.5519H1.55187H1.55185H1.55182H1.55179H1.55177H1.55174H1.55171H1.55169H1.55166H1.55164H1.55161H1.55159H1.55156H1.55153H1.55151H1.55148H1.55146H1.55143H1.55141H1.55138H1.55136H1.55134H1.55131H1.55129H1.55126H1.55124H1.55121H1.55119H1.55117H1.55114H1.55112H1.5511H1.55107H1.55105H1.55103H1.551H1.55098H1.55096H1.55093H1.55091H1.55089H1.55087H1.55084H1.55082H1.5508H1.55078H1.55076H1.55073H1.55071H1.55069H1.55067H1.55065H1.55063H1.5506H1.55058H1.55056H1.55054H1.55052H1.5505H1.55048H1.55046H1.55044H1.55042H1.5504H1.55038H1.55036H1.55034H1.55032H1.5503H1.55028H1.55026H1.55024H1.55022H1.5502H1.55018H1.55016H1.55014H1.55012H1.5501H1.55008H1.55007H1.55005H1.55003H1.55001H1.54999H1.54997H1.54996H1.54994H1.54992H1.5499H1.54988H1.54987H1.54985H1.54983H1.54981H1.5498H1.54978H1.54976H1.54974H1.54973H1.54971H1.54969H1.54968H1.54966H1.54964H1.54963H1.54961H1.54959H1.54958H1.54956H1.54955H1.54953H1.54951H1.5495H1.54948H1.54947H1.54945H1.54944H1.54942H1.54941H1.54939H1.54938H1.54936H1.54935H1.54933H1.54932H1.5493H1.54929H1.54927H1.54926H1.54924H1.54923H1.54921H1.5492H1.54919H1.54917H1.54916H1.54914H1.54913H1.54912H1.5491H1.54909H1.54908H1.54906H1.54905H1.54904H1.54902H1.54901H1.549H1.54899H1.54897H1.54896H1.54895H1.54893H1.54892H1.54891H1.5489H1.54888H1.54887H1.54886H1.54885H1.54884H1.54882H1.54881H1.5488H1.54879H1.54878H1.54877H1.54875H1.54874H1.54873H1.54872H1.54871H1.5487H1.54869H1.54868H1.54867H1.54865H1.54864H1.54863H1.54862H1.54861H1.5486H1.54859H1.54858H1.54857H1.54856H1.54855H1.54854H1.54853H1.54852H1.54851H1.5485H1.54849H1.54848H1.54847H1.54846H1.54845H1.54844H1.54843H1.54842H1.54842H1.54841H1.5484H1.54839H1.54838H1.54837H1.54836H1.54835H1.54834H1.54834H1.54833H1.54832H1.54831H1.5483H1.54829H1.54828H1.54828H1.54827H1.54826H1.54825H1.54824H1.54824H1.54823H1.54822H1.54821H1.54821H1.5482H1.54819H1.54818H1.54818H1.54817H1.54816H1.54815H1.54815H1.54814H1.54813H1.54812H1.54812H1.54811H1.5481H1.5481H1.54809H1.54808H1.54808H1.54807H1.54806H1.54806H1.54805H1.54804H1.54804H1.54803H1.54803H1.54802H1.54801H1.54801H1.548H1.548H1.54799H1.54798H1.54798H1.54797H1.54797H1.54796H1.54796H1.54795H1.54794H1.54794H1.54793H1.54793H1.54792H1.54792H1.54791H1.54791H1.5479H1.5479H1.54789H1.54789H1.54788H1.54788H1.54787H1.54787H1.54786H1.54786H1.54785H1.54785H1.54785H1.54784H1.54784H1.54783H1.54783H1.54782H1.54782H1.54781H1.54781H1.54781H1.5478H1.5478H1.54779H1.54779H1.54779H1.54778H1.54778H1.54777H1.54777H1.54777H1.54776H1.54776H1.54775H1.54775H1.54774H1.54773H1.54773H1.54772H1.54771H1.54771H1.5477H1.5477H1.54769H1.54768H1.54768H1.54767H1.54767H1.54766H1.54766H1.54765H1.54765H1.54765H1.54764H1.54764H1.54763H1.54763H1.54763H1.54762H1.54762H1.54761H1.54761H1.5476H1.5476H1.54759H1.54759H1.54759H1.54758H1.54758H1.54757H1.54757H1.54756H1.54756H1.54756H1.54755H1.54755ZM20.4388 15.8845C19.7897 15.8845 19.2458 15.3486 19.2458 14.7151C19.2458 14.0815 19.7897 13.5456 20.4388 13.5456C21.0746 13.5456 21.5911 14.0682 21.5911 14.7151C21.5911 15.3619 21.0746 15.8845 20.4388 15.8845ZM21.6115 8.75036H18.6858V5.79713H20.4514L21.6115 6.83852V8.75036ZM8.00753 15.8845C7.35847 15.8845 6.81452 15.3486 6.81452 14.7151C6.81452 14.0815 7.35847 13.5456 8.00753 13.5456C8.6433 13.5456 9.15982 14.0682 9.15982 14.7151C9.15982 15.3619 8.6433 15.8845 8.00753 15.8845ZM4.6121 12.9547H3.68888V11.704C3.68888 11.3693 3.41479 11.0962 3.07982 11.0962C2.74485 11.0962 2.47076 11.3693 2.47076 11.704V13.5624C2.47076 13.8972 2.74485 14.1702 3.07982 14.1702H4.6121C4.94707 14.1702 5.22116 13.8972 5.22116 13.5624C5.22116 13.2277 4.94707 12.9547 4.6121 12.9547ZM7.29304 10.2873C7.29304 9.9526 7.01895 9.67957 6.68397 9.67957H0.509061C0.174089 9.67957 -0.1 9.9526 -0.1 10.2873C-0.1 10.6221 0.174089 10.8951 0.509061 10.8951H6.68397C7.01829 10.8951 7.29304 10.6278 7.29304 10.2873ZM2.58094 6.24904H8.75585C9.09083 6.24904 9.36492 5.97602 9.36492 5.64128C9.36492 5.30654 9.09083 5.03351 8.75585 5.03351H2.58094C2.24597 5.03351 1.97188 5.30654 1.97188 5.64128C1.97188 5.97602 2.24597 6.24904 2.58094 6.24904Z" transform="translate(1 1)" fill="#042567" stroke="#042567" stroke-width="0.2"/>
</svg>
