<svg width="30" height="30" viewBox="0 0 30 30" fill="none" xmlns="http://www.w3.org/2000/svg">
<circle cx="14.4701" cy="14.4701" r="13.9701" transform="translate(0 1.08008) rotate(-2.13865)" stroke="#0B1759"/>
<path d="M2.54132 8.33624C3.78294 9.81483 5.27757 10.979 6.98348 11.8027C7.63298 12.1094 8.50159 12.4732 9.46931 12.5355L9.47651 12.5359C9.53391 12.5383 9.5891 12.5407 9.64669 12.5407C10.2962 12.5407 10.8179 12.3173 11.243 11.8573C11.2457 11.8547 11.2509 11.8495 11.2535 11.8443C11.3944 11.6749 11.5533 11.5213 11.7198 11.3604C11.7322 11.3485 11.7445 11.3366 11.7569 11.3246C11.8795 11.2077 12.0047 11.0855 12.1247 10.9608C12.6803 10.3839 12.6803 9.65112 12.1195 9.09243L10.5518 7.53068C10.2858 7.25523 9.96752 7.10971 9.63364 7.10971C9.29977 7.10971 8.97893 7.25523 8.70504 7.52808L7.77123 8.45837C7.68515 8.409 7.59646 8.36483 7.51299 8.32325C7.40865 8.27128 7.31214 8.2219 7.22606 8.16733C6.37572 7.62943 5.60362 6.92781 4.86544 6.0261C4.49243 5.55576 4.24202 5.16078 4.06726 4.758C4.31245 4.53712 4.54199 4.30585 4.76371 4.07977C4.84195 3.99923 4.92279 3.91869 5.00364 3.83815L5.00368 3.8381C5.28539 3.55745 5.43668 3.23263 5.43668 2.90261C5.43668 2.57259 5.288 2.24777 5.00368 1.96712L4.22637 1.19275C4.13754 1.10425 4.05365 1.01822 3.96749 0.929862L3.96031 0.922495C3.78815 0.745792 3.60817 0.563892 3.4308 0.400181C3.16213 0.137725 2.84651 0 2.51263 0C2.18136 0 1.86313 0.137725 1.58403 0.40278L0.608479 1.37465C0.253732 1.72806 0.0528831 2.15682 0.0111482 2.65315C-0.038412 3.27421 0.076359 3.93425 0.37372 4.73201C0.830195 5.96634 1.51882 7.11231 2.54132 8.33624ZM0.647605 2.70772C0.678906 2.36211 0.811936 2.07367 1.06235 1.8242L2.03268 0.857531C2.18397 0.712011 2.35091 0.636652 2.51263 0.636652C2.67175 0.636652 2.83347 0.712011 2.98215 0.862728C3.13367 1.00241 3.27734 1.14795 3.42848 1.30105C3.45166 1.32453 3.47503 1.3482 3.49862 1.37205C3.54328 1.41785 3.5886 1.46365 3.63425 1.50978C3.67925 1.55526 3.72457 1.60106 3.7699 1.6475L4.54721 2.42188C4.70893 2.58299 4.7924 2.7467 4.7924 2.90781C4.7924 3.06892 4.70893 3.23263 4.54721 3.39374C4.50677 3.43402 4.46634 3.47495 4.42591 3.51588C4.38548 3.55681 4.34505 3.59773 4.30462 3.63801C4.28631 3.65645 4.26809 3.67481 4.24994 3.69311C4.02764 3.91713 3.8162 4.13022 3.5847 4.33443L3.57165 4.34742C3.35515 4.5631 3.38906 4.76839 3.44123 4.92431C3.44254 4.92821 3.44384 4.93145 3.44515 4.9347C3.44645 4.93795 3.44775 4.9412 3.44906 4.9451C3.64991 5.42583 3.92901 5.88318 4.36462 6.42888C5.14715 7.39036 5.97141 8.13615 6.87914 8.71044C6.97247 8.77098 7.07122 8.82073 7.16637 8.86867C7.18557 8.87834 7.20462 8.88794 7.22345 8.89753C7.32779 8.94951 7.4243 8.99888 7.51038 9.05345C7.5156 9.05605 7.52016 9.05865 7.52473 9.06124C7.52929 9.06384 7.53386 9.06644 7.53908 9.06904C7.62515 9.11322 7.70862 9.134 7.79209 9.134C8.00077 9.134 8.13641 9.00148 8.18075 8.9573L9.1563 7.98543C9.30759 7.83471 9.47192 7.75416 9.63364 7.75416C9.83189 7.75416 9.99361 7.87629 10.0953 7.98543L11.6682 9.54978C11.9812 9.86161 11.9786 10.1994 11.6604 10.5294C11.5508 10.6464 11.4361 10.7581 11.3135 10.8751C11.3035 10.8847 11.2935 10.8944 11.2835 10.904C11.1101 11.0717 10.9311 11.2449 10.7683 11.4389C10.4683 11.7612 10.111 11.9119 9.64929 11.9119C9.60495 11.9119 9.558 11.9093 9.51366 11.9067C8.65809 11.8521 7.86252 11.5195 7.26519 11.2363C5.64275 10.4541 4.21854 9.34449 3.03693 7.93606C2.06398 6.7693 1.40927 5.68309 0.976267 4.51893C0.707599 3.80432 0.60587 3.23003 0.647605 2.70772Z" transform="translate(9.1377 9.10791)" fill="#0B1759"/>
<path d="M2.54132 8.33624C3.78294 9.81483 5.27757 10.979 6.98348 11.8027C7.63298 12.1094 8.50159 12.4732 9.46931 12.5355L9.47651 12.5359C9.53391 12.5383 9.5891 12.5407 9.64669 12.5407C10.2962 12.5407 10.8179 12.3173 11.243 11.8573C11.2457 11.8547 11.2509 11.8495 11.2535 11.8443C11.3944 11.6749 11.5533 11.5213 11.7198 11.3604C11.7322 11.3485 11.7445 11.3366 11.7569 11.3246C11.8795 11.2077 12.0047 11.0855 12.1247 10.9608C12.6803 10.3839 12.6803 9.65112 12.1195 9.09243L10.5518 7.53068C10.2858 7.25523 9.96752 7.10971 9.63364 7.10971C9.29977 7.10971 8.97893 7.25523 8.70504 7.52808L7.77123 8.45837C7.68515 8.409 7.59646 8.36483 7.51299 8.32325C7.40865 8.27128 7.31214 8.2219 7.22606 8.16733C6.37572 7.62943 5.60362 6.92781 4.86544 6.0261C4.49243 5.55576 4.24202 5.16078 4.06726 4.758C4.31245 4.53712 4.54199 4.30585 4.76371 4.07977C4.84195 3.99923 4.92279 3.91869 5.00364 3.83815L5.00368 3.8381C5.28539 3.55745 5.43668 3.23263 5.43668 2.90261C5.43668 2.57259 5.288 2.24777 5.00368 1.96712L4.22637 1.19275C4.13754 1.10425 4.05365 1.01822 3.96749 0.929862L3.96031 0.922495C3.78815 0.745792 3.60817 0.563892 3.4308 0.400181C3.16213 0.137725 2.84651 0 2.51263 0C2.18136 0 1.86313 0.137725 1.58403 0.40278L0.608479 1.37465C0.253732 1.72806 0.0528831 2.15682 0.0111482 2.65315C-0.038412 3.27421 0.076359 3.93425 0.37372 4.73201C0.830195 5.96634 1.51882 7.11231 2.54132 8.33624ZM0.647605 2.70772C0.678906 2.36211 0.811936 2.07367 1.06235 1.8242L2.03268 0.857531C2.18397 0.712011 2.35091 0.636652 2.51263 0.636652C2.67175 0.636652 2.83347 0.712011 2.98215 0.862728C3.13367 1.00241 3.27734 1.14795 3.42848 1.30105C3.45166 1.32453 3.47503 1.3482 3.49862 1.37205C3.54328 1.41785 3.5886 1.46365 3.63425 1.50978C3.67925 1.55526 3.72457 1.60106 3.7699 1.6475L4.54721 2.42188C4.70893 2.58299 4.7924 2.7467 4.7924 2.90781C4.7924 3.06892 4.70893 3.23263 4.54721 3.39374C4.50677 3.43402 4.46634 3.47495 4.42591 3.51588C4.38548 3.55681 4.34505 3.59773 4.30462 3.63801C4.28631 3.65645 4.26809 3.67481 4.24994 3.69311C4.02764 3.91713 3.8162 4.13022 3.5847 4.33443L3.57165 4.34742C3.35515 4.5631 3.38906 4.76839 3.44123 4.92431C3.44254 4.92821 3.44384 4.93145 3.44515 4.9347C3.44645 4.93795 3.44775 4.9412 3.44906 4.9451C3.64991 5.42583 3.92901 5.88318 4.36462 6.42888C5.14715 7.39036 5.97141 8.13615 6.87914 8.71044C6.97247 8.77098 7.07122 8.82073 7.16637 8.86867C7.18557 8.87834 7.20462 8.88794 7.22345 8.89753C7.32779 8.94951 7.4243 8.99888 7.51038 9.05345C7.5156 9.05605 7.52016 9.05865 7.52473 9.06124C7.52929 9.06384 7.53386 9.06644 7.53908 9.06904C7.62515 9.11322 7.70862 9.134 7.79209 9.134C8.00077 9.134 8.13641 9.00148 8.18075 8.9573L9.1563 7.98543C9.30759 7.83471 9.47192 7.75416 9.63364 7.75416C9.83189 7.75416 9.99361 7.87629 10.0953 7.98543L11.6682 9.54978C11.9812 9.86161 11.9786 10.1994 11.6604 10.5294C11.5508 10.6464 11.4361 10.7581 11.3135 10.8751C11.3035 10.8847 11.2935 10.8944 11.2835 10.904C11.1101 11.0717 10.9311 11.2449 10.7683 11.4389C10.4683 11.7612 10.111 11.9119 9.64929 11.9119C9.60495 11.9119 9.558 11.9093 9.51366 11.9067C8.65809 11.8521 7.86252 11.5195 7.26519 11.2363C5.64275 10.4541 4.21854 9.34449 3.03693 7.93606C2.06398 6.7693 1.40927 5.68309 0.976267 4.51893C0.707599 3.80432 0.60587 3.23003 0.647605 2.70772Z" transform="translate(9.1377 9.10791)" stroke="#0B1759"/>
</svg>
