<svg width="25" height="22" viewBox="0 0 25 22" fill="none" xmlns="http://www.w3.org/2000/svg">
<path d="M17.9292 2.88221C17.9069 2.68713 17.7806 2.51362 17.5967 2.42366L12.7743 0.0633075C12.6019 -0.0211025 12.3982 -0.0211025 12.2258 0.0633075L7.40322 2.42351C7.19927 2.52331 7.07072 2.72543 7.07072 2.94638V2.94646V2.94654V6.8788L0.34632 10.0389C0.144394 10.1317 0.0115565 10.3242 0.000715901 10.54C-0.0101247 10.7559 0.102812 10.9599 0.294544 11.071L4.53459 13.529V17.8228C4.53459 18.044 4.66347 18.2463 4.86774 18.346L12.2264 21.937C12.3124 21.979 12.4062 22 12.5 22C12.5938 22 12.6875 21.979 12.7736 21.937L20.1322 18.346C20.3365 18.2463 20.4653 18.044 20.4653 17.8228V13.529L24.7054 11.071C24.8972 10.9599 25.0101 10.7559 24.9993 10.54C24.9884 10.3242 24.8557 10.1317 24.6538 10.039L17.9292 6.87848V2.88221ZM18.5144 8.48243L17.9293 8.7663V8.19442L18.5144 8.48243ZM12.5001 1.24333L15.9799 2.94654L12.5001 4.64967L9.02009 2.94638L12.5001 1.24333ZM7.07064 8.1945V8.76614L6.48574 8.48243L7.07064 8.1945ZM1.88957 10.6285L5.13398 9.13872L11.2863 12.1228L8.02583 14.1857L1.88957 10.6285ZM11.8933 20.4611L5.74817 17.4622V14.2325L7.72787 15.3801C7.82406 15.4359 7.93215 15.4637 8.04007 15.4637C8.156 15.4637 8.27168 15.4316 8.37248 15.3679L11.8933 13.1401V20.4611ZM12.5001 11.3996L8.28422 9.35475V3.90045L12.2259 5.82969C12.3121 5.87189 12.4061 5.893 12.5002 5.893C12.5942 5.893 12.6882 5.87189 12.7744 5.82969L16.7159 3.9006V9.35483L12.5001 11.3996ZM19.2519 17.4622L13.1068 20.4611V13.1402L16.6275 15.3679C16.7283 15.4317 16.8441 15.4638 16.9599 15.4638C17.0679 15.4638 17.1759 15.436 17.2721 15.3802L19.2519 14.2325V17.4622ZM16.974 14.1857L13.7137 12.1228L19.8659 9.13864L23.1104 10.6284L16.974 14.1857Z" fill="#042567"/>
</svg>
