<svg width="20" height="26" viewBox="0 0 20 26" fill="none" xmlns="http://www.w3.org/2000/svg">
<path d="M19.7782 9.19674L17.8432 7.15313L18.233 4.33833C18.2926 3.90782 18.0074 3.50653 17.5881 3.43152L14.8475 2.94061L13.5429 0.428329C13.3435 0.0443461 12.8817 -0.108903 12.4997 0.0820673L10.0003 1.33041L7.50029 0.0820673C7.11798 -0.108903 6.65658 0.0444535 6.45706 0.428544L5.153 2.94061L2.41204 3.43152C1.99292 3.50653 1.70758 3.90782 1.76721 4.33833L2.15689 7.15313L0.221879 9.19674C-0.0739773 9.50926 -0.0739773 10.0051 0.221985 10.3176L2.15689 12.361L1.76721 15.1773C1.70768 15.6077 1.99292 16.009 2.41204 16.084L4.60567 16.4769V25.194C4.60567 25.4733 4.74724 25.7327 4.97978 25.8795C5.10641 25.9596 5.25029 26 5.39448 26C5.51501 26 5.63586 25.9718 5.74724 25.9149L10.0004 23.7427L14.2529 25.9149C14.4974 26.0398 14.7879 26.0264 15.0204 25.8795C15.2529 25.7326 15.3945 25.4732 15.3945 25.1939V16.4771L17.5882 16.0839C18.0074 16.0088 18.2926 15.6076 18.2331 15.1771L17.8433 12.3608L19.7782 10.3175C20.0739 10.0052 20.0739 9.50926 19.7782 9.19674ZM10.3531 22.1206C10.1311 22.0072 9.86977 22.0071 9.64764 22.1206L6.18329 23.89V18.559L6.45717 19.0866C6.65658 19.4708 7.11851 19.6239 7.5005 19.4328L10.0004 18.1836L12.4996 19.4328C12.611 19.4885 12.7293 19.515 12.8457 19.515C13.1286 19.515 13.4016 19.3587 13.543 19.0867L13.8169 18.5596V23.89L10.3531 22.1206ZM16.4412 11.5232C16.272 11.7019 16.193 11.9504 16.2271 12.1966L16.5639 14.6309L14.1953 15.0553C13.9557 15.0981 13.7488 15.2517 13.6347 15.4713L12.5071 17.6421L10.347 16.5624C10.2376 16.5078 10.1189 16.4804 10.0003 16.4804C9.88166 16.4804 9.76302 16.5077 9.65375 16.5624L7.49303 17.6421L6.36588 15.4714C6.25187 15.2517 6.04499 15.0981 5.80529 15.0553L3.43613 14.6309L3.7729 12.1965C3.80697 11.9504 3.72799 11.7018 3.55876 11.5232L1.88638 9.75708L3.55887 7.99074C3.72799 7.81202 3.80697 7.56355 3.7729 7.31745L3.43613 4.8847L5.80529 4.46031C6.04499 4.41743 6.25187 4.26375 6.36598 4.04409L7.49314 1.8727L9.65396 2.95168C9.87251 3.06086 10.1282 3.06086 10.3467 2.95168L12.5069 1.8727L13.6347 4.04419C13.7487 4.26375 13.9556 4.41732 14.1953 4.46031L16.5639 4.88459L16.2271 7.31734C16.193 7.56355 16.272 7.81202 16.4411 7.99074L18.1136 9.75708L16.4412 11.5232Z" fill="#042567"/>
<path d="M5.39473 -3.27966e-09C2.42007 -3.27966e-09 2.63194e-07 2.47241 2.63194e-07 5.51149C2.63194e-07 8.55122 2.42007 11.0242 5.39473 11.0242C8.36897 11.0242 10.7887 8.55122 10.7887 5.51149C10.7887 2.47241 8.36897 -3.27966e-09 5.39473 -3.27966e-09ZM5.39473 9.41215C3.28997 9.41215 1.57762 7.66236 1.57762 5.51149C1.57762 3.36127 3.28997 1.61202 5.39473 1.61202C7.49907 1.61202 9.2111 3.36127 9.2111 5.51149C9.2111 7.66236 7.49907 9.41215 5.39473 9.41215Z" transform="translate(4.60645 4.24561)" fill="#042567"/>
<path d="M4.56314 0.236026L2.23299 2.61644L1.34626 1.71145C1.0381 1.39679 0.538627 1.39711 0.230675 1.7121C-0.0771716 2.02709 -0.0768565 2.53734 0.231411 2.8519L1.67578 4.32615C1.82975 4.48337 2.03148 4.56193 2.2332 4.56193C2.43503 4.56193 2.63697 4.48327 2.79094 4.32593L5.67852 1.37605C5.98668 1.06138 5.98668 0.551015 5.67862 0.236134C5.37067 -0.0786398 4.8712 -0.0787472 4.56314 0.236026Z" transform="translate(7.04492 7.47607)" fill="#042567"/>
</svg>
