<svg width="20" height="24" viewBox="0 0 20 24" fill="none" xmlns="http://www.w3.org/2000/svg">
<path d="M19.9743 6.17955C19.9621 5.53158 19.9504 4.91946 19.9504 4.32727C19.9504 3.86333 19.5775 3.48721 19.1173 3.48721C15.5543 3.48721 12.8416 2.45472 10.5804 0.237863C10.2569 -0.0793436 9.74212 -0.0792316 9.41876 0.237863C7.15777 2.45472 4.44546 3.48721 0.882686 3.48721C0.42258 3.48721 0.0495626 3.86333 0.0495626 4.32727C0.0495626 4.91957 0.03801 5.53192 0.0256797 6.17999C-0.0885138 12.21 -0.244918 20.4685 9.72668 23.9536C9.81511 23.9845 9.9073 24 9.9995 24C10.0917 24 10.184 23.9845 10.2723 23.9536C20.2447 20.4684 20.0885 12.2097 19.9743 6.17955ZM9.99962 22.2685C1.44766 19.1359 1.57696 12.2738 1.6917 6.21203C1.69859 5.84823 1.70526 5.49563 1.70992 5.14997C5.04686 5.00794 7.7153 3.98833 9.99962 1.98183C12.2842 3.98833 14.953 5.00805 18.2902 5.14997C18.2949 5.49551 18.3015 5.84789 18.3084 6.21147C18.4231 12.2734 18.5522 19.1358 9.99962 22.2685Z" fill="#042567"/>
<path d="M7.15917 0.245997L3.13807 4.30035L1.42217 2.57016C1.09681 2.2422 0.569274 2.2422 0.244022 2.57016C-0.0813405 2.89834 -0.0813405 3.43016 0.244022 3.75823L2.549 6.08239C2.71162 6.24637 2.9249 6.32836 3.13807 6.32836C3.35124 6.32836 3.56452 6.24637 3.72715 6.08239L8.33721 1.43407C8.66268 1.10599 8.66268 0.574068 8.33732 0.246109C8.01207 -0.0819617 7.48453 -0.0820737 7.15917 0.245997Z" transform="translate(5.70996 8.83594)" fill="#042567"/>
</svg>
