<svg width="28" height="26" viewBox="0 0 28 26" fill="none" xmlns="http://www.w3.org/2000/svg">
<path d="M27.9547 10.442C27.797 9.54633 27.0303 9.0089 25.9214 8.99696C25.5793 8.99218 25.2396 9.02562 24.9072 8.98979C24.252 8.92291 24.0798 9.13788 24.0846 9.64904C24.1162 12.157 24.1064 14.6626 24.0967 17.1635C24.0895 18.4748 22.7889 19.822 21.2263 20.1635C16.3735 21.2121 11.5255 22.2774 6.67025 23.3164C6.12431 23.4335 5.54926 23.4932 4.99361 23.4884C4.75097 23.4884 4.41612 23.3069 4.31178 23.1301C4.24384 23.0131 4.45737 22.7289 4.62479 22.5831C4.84559 22.4064 5.12705 22.2655 5.4158 22.1675C6.30629 21.8546 7.21134 21.5704 8.11154 21.2766C11.7148 20.0966 15.3253 18.931 18.9236 17.7439C20.5469 17.2041 21.4228 16.1388 21.4495 14.794C21.532 10.4373 21.4908 6.08051 21.4714 1.71898C21.4714 1.02869 21.1074 0.453038 20.2727 0.154467C19.3118 -0.18471 18.4675 0.0851979 17.6328 0.476924C12.5325 2.87266 7.43457 5.26362 2.33183 7.65458C0.82988 8.35921 -0.00723216 9.37913 4.70784e-05 10.8314C0.017032 14.9517 0.00489982 19.0648 0.00975264 23.1803C0.00975264 23.3857 0.0315896 23.5959 0.0971027 23.7918C0.59937 25.1915 1.90235 25.994 3.70275 25.994C7.29141 26.0036 10.8922 25.9988 14.4833 25.9988C18.0623 25.9988 21.6291 26.0036 25.208 25.994C25.9845 25.994 26.7003 25.8364 27.2826 25.3634C28.0372 24.7663 27.9984 24.0067 27.9984 23.2496C28.0008 19.2344 28.0008 15.2264 27.996 11.2088C28.0033 10.958 27.9984 10.6952 27.9547 10.442ZM13.0323 9.1546C13.3938 8.23022 14.1824 7.65219 15.3859 7.5041C16.1818 7.40378 16.8757 7.88866 16.9898 8.59568C17.162 9.68487 15.779 10.9508 14.4129 10.946C13.2749 10.946 12.6392 10.1602 13.0323 9.1546Z" fill="#F47B20"/>
</svg>
