<svg xmlns="http://www.w3.org/2000/svg" width="1150.955" height="1411.669" viewBox="0 0 1079.0202 1323.4399"><path d="M591.61 835.396l-172.46 71.861-172.666-71.676-71.728-173.225 71.228-173.302 172.46-71.861 172.665 71.676 71.728 173.225z" fill="#4990e2"/><path d="M416.853 418.203l-172.459 71.861-172.666-71.676L0 245.163 71.228 71.861 243.687 0l172.666 71.676L488.081 244.9zm590.939 590.939l-172.459 71.861-172.666-71.675-71.728-173.226L662.167 662.8l172.459-71.86 172.666 71.675 71.728 173.225zM416.853 1251.58l-172.459 71.86-172.666-71.676L0 1078.54l71.228-173.302 172.459-71.861 172.666 71.675 71.728 173.226z" fill="#192535"/></svg>