<svg width="24" height="24" viewBox="0 0 24 24" fill="none" xmlns="http://www.w3.org/2000/svg">
<path fill-rule="evenodd" clip-rule="evenodd" d="M12 24C18.6274 24 24 18.6274 24 12C24 5.37258 18.6274 0 12 0C5.37258 0 0 5.37258 0 12C0 18.6274 5.37258 24 12 24Z" fill="#CE0B24"/>
<path fill-rule="evenodd" clip-rule="evenodd" d="M3.98984 12.5455H1.3294V6.27194H0V4.11029H1.3294V2.81251C1.3294 1.04915 2.07966 0 4.21256 0H5.98781V2.16244H4.87828C4.04796 2.16244 3.99309 2.46451 3.99309 3.02828L3.98943 4.11029H6L5.76468 6.27194H3.98943V12.5455H3.98984Z" transform="translate(8.72717 6.54541)" fill="white"/>
</svg>
