<svg width="24" height="24" viewBox="0 0 24 24" fill="none" xmlns="http://www.w3.org/2000/svg">
<path fill-rule="evenodd" clip-rule="evenodd" d="M12 24C18.6274 24 24 18.6274 24 12C24 5.37258 18.6274 0 12 0C5.37258 0 0 5.37258 0 12C0 18.6274 5.37258 24 12 24Z" fill="white"/>
<path fill-rule="evenodd" clip-rule="evenodd" d="M3.94093 11.9253C2.45987 11.9253 1.39099 10.9812 1.39099 9.84746C1.39099 8.73587 2.71757 7.81015 4.1979 7.82638C4.54272 7.83081 4.86485 7.88613 5.15696 7.98128C5.96008 8.54482 6.53699 8.86274 6.69951 9.50447C6.73026 9.63503 6.7471 9.7678 6.7471 9.905C6.7471 11.0395 6.02158 11.9253 3.94093 11.9253ZM4.32979 5.27515C3.33631 5.24491 2.39189 4.15544 2.22058 2.841C2.04927 1.52656 2.71549 0.520444 3.70896 0.549949C4.7017 0.580191 5.64685 1.63425 5.81816 2.94943C5.98948 4.26387 5.32326 5.30539 4.32979 5.27515ZM6.38912 7.22131C6.04063 6.97273 5.37514 6.36862 5.37514 6.01308C5.37514 5.59559 5.49301 5.39127 6.11457 4.90149C6.75224 4.39917 7.20395 3.69327 7.20395 2.87303C7.20395 1.89495 6.77201 0.942679 5.96083 0.628453H7.18345L8.04661 0H4.18986C2.46208 0 0.834604 1.3196 0.834604 2.84795C0.834604 4.41023 2.0133 5.67083 3.77183 5.67083C3.89482 5.67083 4.01269 5.66862 4.1291 5.65976C4.01562 5.87958 3.93289 6.12815 3.93289 6.38485C3.93289 6.8193 4.16497 7.17189 4.45854 7.45882C4.23672 7.45882 4.02221 7.46546 3.79013 7.46546C1.64871 7.46546 0 8.83891 0 10.2647C0 11.6677 1.80758 12.5455 3.94826 12.5455C6.38912 12.5455 7.73839 11.1499 7.73839 9.74618C7.73839 8.62131 7.40821 7.94713 6.38912 7.22131ZM12 5.38956H10.4992V3.87744H9.2905V5.38956H7.78967V6.60738H9.2905V8.1195H10.4992V6.60738H12V5.38956Z" transform="translate(5.53845 6.46143)" fill="black"/>
</svg>
