<svg width="50" height="50" viewBox="0 0 50 50" fill="none" xmlns="http://www.w3.org/2000/svg">
<path d="M0.966323 1.86101C0.891158 1.86101 0.796246 1.85193 0.694214 1.82033C0.678847 1.81682 0.663575 1.8129 0.648312 1.80854C0.175894 1.6733 -0.0994613 1.17396 0.0334096 0.693122C0.133873 0.329329 0.415817 0.0678867 0.769059 0.0107482C0.887294 -0.00840444 1.02539 -0.00352485 1.1637 0.0379724C1.18973 0.043399 1.21566 0.0501012 1.24148 0.057975C1.71129 0.202577 1.97691 0.707479 1.83484 1.18555C1.72853 1.54338 1.44481 1.79877 1.0945 1.85187C1.06575 1.85623 1.02121 1.86101 0.966323 1.86101Z" transform="translate(0.675537 12.735)" fill="#474E55"/>
<path d="M18.9747 38.6254C8.51201 38.6254 8.16722e-07 29.9619 8.16722e-07 19.3128C8.16722e-07 18.4793 0.0526916 17.6404 0.156709 16.8193C0.219538 16.3238 0.664874 15.9749 1.15172 16.0378C1.63846 16.1018 1.98209 16.5551 1.91936 17.0506C1.82496 17.7953 1.77719 18.5563 1.77719 19.3128C1.77719 28.9644 9.49197 36.8165 18.9747 36.8165C28.4574 36.8165 36.172 28.9644 36.172 19.3128C36.172 9.66113 28.4574 1.80884 18.9747 1.80884C12.488 1.80884 6.6194 5.462 3.65923 11.3427C3.43541 11.7872 2.89995 11.9629 2.46318 11.7351C2.02641 11.5073 1.85372 10.9623 2.07754 10.5179C3.64585 7.40227 6.01934 4.77434 8.94124 2.91802C11.9462 1.00915 15.4157 -1.41317e-05 18.9748 -1.41317e-05C29.4374 -1.41317e-05 37.9493 8.6637 37.9493 19.3128C37.9492 29.9619 29.4373 38.6254 18.9747 38.6254Z" fill="#474E55"/>
<path d="M11.9568 17.634L-1.2455e-05 6.5423L5.85834 -4.15638e-07L17.8151 11.0916L11.9568 17.634ZM2.51054 6.42379L11.8404 15.0786L15.3045 11.21L5.97469 2.55529L2.51054 6.42379Z" transform="translate(32.1848 32.366)" fill="#474E55"/>
<path d="M6.35581 -2.02043e-05H-2.47018e-06V1.79446H6.35581V-2.02043e-05Z" transform="matrix(0.731424 0.681966 -0.668992 0.743309 30.8496 32.3882)" fill="#474E55"/>
<path d="M6.3557 5.77267e-06H-5.14622e-06V1.79448H6.3557V5.77267e-06Z" transform="matrix(0.731424 0.681966 -0.668992 0.743309 32.9792 30.1922)" fill="#474E55"/>
<path d="M4.79664 9.76399C2.15177 9.76399 5.10451e-06 7.57401 5.10451e-06 4.88201C5.10451e-06 2.19 2.15177 -2.32757e-05 4.79664 -2.32757e-05C7.44151 -2.32757e-05 9.59325 2.19 9.59325 4.88201C9.59325 7.57401 7.44151 9.76399 4.79664 9.76399ZM4.79664 1.80883C3.13162 1.80883 1.77719 3.18743 1.77719 4.88201C1.77719 6.57659 3.13162 7.95513 4.79664 7.95513C6.46155 7.95513 7.81606 6.57659 7.81606 4.88201C7.81606 3.18743 6.46155 1.80883 4.79664 1.80883Z" transform="translate(14.2532 8.25552)" fill="#CE0B24"/>
<path d="M1.77676 11.2913L-9.18812e-07 11.2493L0.0206979 10.345C0.0514328 8.9949 0.215568 2.19392 0.422768 0.892713L0.564941 -2.49383e-05L2.31923 0.289415L2.17705 1.18226C2.04094 2.037 1.88476 6.55294 1.79726 10.3871L1.77676 11.2913Z" transform="translate(14.0013 24.7038)" fill="#CE0B24"/>
<path d="M0.794514 10.2105L0.768379 9.30647C0.678265 6.17013 0.339035 2.65062 0.126818 1.15331L-3.67525e-06 0.258134L1.75888 2.28601e-05L1.88581 0.895151C2.10388 2.43491 2.45262 6.04605 2.54483 9.25348L2.57086 10.1576L0.794514 10.2105Z" transform="translate(22.056 24.9523)" fill="#CE0B24"/>
<path d="M1.65132 12.473L-2.04181e-06 11.8042L2.90319 4.37678C3.78708 1.59476 5.75014 1.16379e-05 8.2933 1.16379e-05H13.3525C15.6258 1.16379e-05 17.6809 1.45488 18.716 3.79681L22.0185 11.2458L20.3986 11.9899L17.0956 4.53971C16.5119 3.21904 15.2225 1.80887 13.3525 1.80887H8.2933C6.04641 1.80887 5.03729 3.52129 4.5864 4.95795L4.5657 5.01713L1.65132 12.473Z" transform="translate(8.35242 18.9077)" fill="#CE0B24"/>
<path d="M2.53972 4.34157C1.63063 4.34157 0.709192 4.01 -9.80066e-06 3.36903L1.17985 2.01634C1.90557 2.67199 2.90204 2.63922 3.47116 2.27564C4.02031 1.92462 4.1904 1.30863 3.96324 0.494011L5.67289 2.49383e-05C6.11834 1.59671 5.64853 3.02004 4.41631 3.80742C3.85472 4.16643 3.20052 4.34157 2.53972 4.34157Z" transform="translate(25.212 31.0327)" fill="#CE0B24"/>
<path d="M3.13623 4.12709C2.59659 4.12709 2.08529 3.99617 1.64946 3.76964C0.311138 3.07419 -0.295826 1.55935 0.139167 8.31276e-06L1.84882 0.494046C1.64319 1.23142 1.87077 1.85357 2.45766 2.15862C3.0181 2.44996 3.95583 2.42408 4.75441 1.39271L6.15024 2.51238C5.256 3.66697 4.14682 4.12709 3.13623 4.12709Z" transform="translate(7.78845 31.5477)" fill="#CE0B24"/>
<path d="M1.77718 9.14404e-06H-1.0209e-05V4.57535H1.77718V9.14404e-06Z" transform="translate(18.4453 33.4319)" fill="#CE0B24"/>
</svg>
