<svg width="48" height="46" viewBox="0 0 48 46" fill="none" xmlns="http://www.w3.org/2000/svg">
<path d="M40.0232 44H6.21304C5.04659 44 3.85478 43.0613 3.85478 41.9048V19.9048L0.0194426 1.26342C-0.118968 0.612851 0.504408 0 1.17638 0H45.0609C45.7318 0 46.1101 0.612851 45.9716 1.26342L41.8912 19.9048V41.9048C41.8912 43.0613 41.1907 44 40.0232 44Z" transform="translate(1 1)" stroke="#474E55" stroke-width="2" stroke-miterlimit="10"/>
<path d="M1.47032e-05 0H38.0364" transform="translate(4.85474 20.9048)" stroke="#474E55" stroke-width="2" stroke-miterlimit="10"/>
<path d="M3.16971 7.33333C4.94052 7.33333 6.33941 5.92638 6.33941 4.19048V3.14286C6.33941 1.40695 4.94052 0 3.16971 0C1.39891 0 1.47032e-05 1.40695 1.47032e-05 3.14286V4.19048C1.47032e-05 5.92638 1.39891 7.33333 3.16971 7.33333Z" transform="translate(11.1943 27.1905)" stroke="#CE0B24" stroke-width="2" stroke-miterlimit="10"/>
<path d="M10.5657 5.23705V3.14181C10.5657 0.875809 7.08112 7.41722e-06 5.28285 7.41722e-06C3.48457 7.41722e-06 1.47032e-05 0.875809 1.47032e-05 3.14181V5.23705" transform="translate(9.08105 34.5248)" stroke="#CE0B24" stroke-width="2" stroke-miterlimit="10"/>
<path d="M1.47032e-05 0H5.28285" transform="translate(22.8164 27.1905)" stroke="#474E55" stroke-width="2" stroke-miterlimit="10"/>
<path d="M1.47032e-05 0H7.39598" transform="translate(22.8164 30.3333)" stroke="#474E55" stroke-width="2" stroke-miterlimit="10"/>
<path d="M1.47032e-05 0H7.39598" transform="translate(32.3254 30.3333)" stroke="#474E55" stroke-width="2" stroke-miterlimit="10"/>
<path d="M1.47032e-05 0H13.7354" transform="translate(16.4771 15.6667)" stroke="#474E55" stroke-width="2" stroke-miterlimit="10"/>
<path d="M1.47032e-05 0H4.22628" transform="translate(22.8164 35.5714)" stroke="#474E55" stroke-width="2" stroke-miterlimit="10"/>
<path d="M1.47032e-05 0H7.39598" transform="translate(22.8164 38.7143)" stroke="#474E55" stroke-width="2" stroke-miterlimit="10"/>
<path d="M1.47032e-05 0H7.39598" transform="translate(32.3254 38.7143)" stroke="#474E55" stroke-width="2" stroke-miterlimit="10"/>
</svg>
