<svg width="41" height="52" viewBox="0 0 41 52" fill="none" xmlns="http://www.w3.org/2000/svg">
<path d="M14.9211 13.3368C14.9211 17.4093 11.5806 20.7108 7.46057 20.7108C3.34052 20.7108 1.23234e-05 17.4093 1.23234e-05 13.3368V7.37399C1.23234e-05 3.3015 3.34052 1.74673e-05 7.46057 1.74673e-05C11.5806 1.74673e-05 14.9211 3.3015 14.9211 7.37399V13.3368Z" transform="translate(16.0311 6.5976)" stroke="#474E55" stroke-width="1.8"/>
<path d="M10.0058 27.4573V3.29491C10.0058 1.47519 8.51344 1.74673e-05 6.67247 1.74673e-05H-6.51049e-06" transform="translate(29.9941 23.5427)" stroke="#474E55" stroke-width="1.8"/>
<path d="M10.0058 1.74673e-05H3.33339C1.49241 1.74673e-05 1.23234e-05 1.47519 1.23234e-05 3.29491V27.4573" transform="translate(6.9834 23.5427)" stroke="#474E55" stroke-width="1.8"/>
<path d="M-9.30071e-06 8.47259H21.5879C23.9551 8.47259 25.8737 6.57614 25.8737 4.2363C25.8737 1.89646 23.9551 1.379e-05 21.5879 1.379e-05H16.9845" transform="translate(6.11011 41.7432)" stroke="#474E55" stroke-width="1.8"/>
<path d="M-1.95312e-05 1.74673e-05V26.6731" transform="translate(12.3007 23.5427)" stroke="#474E55" stroke-width="1.8"/>
<path d="M-1.95312e-05 1.74673e-05V8.70794" transform="translate(31.3485 34.8395)" stroke="#474E55" stroke-width="1.8"/>
<path d="M-1.3021e-05 1.74673e-05L8.2539 24.779" transform="translate(18.3326 25.4255)" stroke="#474E55" stroke-width="1.8"/>
<path d="M-9.30071e-06 1.01127e-05L13.0164 8.47258" transform="translate(18.015 9.10828)" stroke="#474E55" stroke-width="1.8"/>
<path d="M7.9056e-06 -2.11447e-05L2.14289 3.66864" transform="translate(5.9729 16.4545)" stroke="#CE0B24" stroke-width="1.8"/>
<path d="M9.76574e-06 -2.52817e-05L3.71099 2.11812" transform="translate(1.55811 20.9336)" stroke="#CE0B24" stroke-width="1.8"/>
<path d="M-6.27798e-06 1.01127e-05L4.28529 0.000929446" transform="translate(0 26.9948)" stroke="#CE0B24" stroke-width="1.8"/>
<path d="M4.28528 5.27344e-05L8.60315e-06 0.0010293" transform="translate(34.4442 11.3827)" stroke="#CE0B24" stroke-width="1.8"/>
<path d="M3.71053 -1.56287e-05L-1.41836e-05 2.11859" transform="translate(33.3018 5.3634)" stroke="#CE0B24" stroke-width="1.8"/>
<path d="M2.14193 -2.4822e-05L4.18532e-06 3.66817" transform="translate(30.3384 1)" stroke="#CE0B24" stroke-width="1.8"/>
</svg>
