<svg width="60" height="48" viewBox="0 0 60 48" fill="none" xmlns="http://www.w3.org/2000/svg">
<path d="M12.6302 17.5679L-8.30125e-06 4.67001L4.71005 -3.70925e-07L17.3401 12.8978L12.6302 17.5679ZM2.69017 4.69005L12.65 14.861L14.6501 12.8779L4.69025 2.70696L2.69017 4.69005Z" transform="translate(13.8058 15.1397)" fill="#474E55"/>
<path d="M12.6304 17.5677L-8.0828e-06 4.66979L4.71027 -5.15173e-08L17.3402 12.8978L12.6304 17.5677ZM2.69017 4.68982L12.6502 14.8607L14.6501 12.8778L4.69036 2.70684L2.69017 4.68982Z" transform="translate(28.7434)" fill="#474E55"/>
<path d="M0.951242 12.4012C0.699583 12.4012 0.448375 12.3013 0.261364 12.1032C-0.100242 11.7199 -0.0848057 11.1142 0.296262 10.7502L11.2725 0.26305C11.6532 -0.100909 12.2554 -0.085266 12.6171 0.29805C12.9788 0.681365 12.9633 1.28706 12.5822 1.65102L1.606 12.1382C1.42212 12.314 1.18635 12.4012 0.951242 12.4012Z" transform="translate(19.7195 6.04102)" fill="#474E55"/>
<path d="M0.951159 12.4011C0.699612 12.4011 0.448404 12.3012 0.261282 12.1031C-0.100212 11.7198 -0.0847761 11.1141 0.29618 10.7501L11.2722 0.263093C11.6529 -0.100978 12.2551 -0.0852219 12.6168 0.298094C12.9785 0.68141 12.963 1.28722 12.5819 1.65107L1.60592 12.1381C1.42215 12.3139 1.18649 12.4011 0.951159 12.4011Z" transform="translate(27.3519 14.3789)" fill="#474E55"/>
<path d="M20.2569 1.9132H0.950705C0.425688 1.9132 -6.77207e-06 1.48487 -6.77207e-06 0.956603C-6.77207e-06 0.428334 0.425688 1.23642e-06 0.950705 1.23642e-06H20.2569C20.7819 1.23642e-06 21.2076 0.428334 21.2076 0.956603C21.2076 1.48487 20.7819 1.9132 20.2569 1.9132Z" transform="translate(11.2739 41.4714)" fill="#474E55"/>
<path d="M28.1299 1.9132H0.950714C0.425698 1.9132 2.62145e-06 1.48487 2.62145e-06 0.9566C2.62145e-06 0.428331 0.425698 -1.09904e-06 0.950714 -1.09904e-06H28.1299C28.6549 -1.09904e-06 29.0806 0.428331 29.0806 0.9566C29.0806 1.48487 28.6549 1.9132 28.1299 1.9132Z" transform="translate(7.3717 46.0868)" fill="#474E55"/>
<path d="M5.45904 11.1118C5.41821 11.1118 5.37706 11.1092 5.33545 11.1037C4.81457 11.0357 4.44705 10.5556 4.51461 10.0314L5.18534 4.83207L1.58282 8.05222C1.19023 8.40312 0.588946 8.36745 0.24009 7.97231C-0.108765 7.57718 -0.0733132 6.97216 0.319499 6.62114L7.72711 -2.19807e-07L6.40126 10.2778C6.33885 10.7602 5.92981 11.1118 5.45904 11.1118Z" transform="translate(33.8213 18.3828)" fill="#474E55"/>
<path d="M14.3155 17.0399L14.0394 16.1239C14.033 16.1028 13.3262 13.8271 11.3496 10.9764C9.5344 8.35844 6.24103 4.70018 0.859891 2.13952L1.52918e-06 1.73032L0.813251 -7.28112e-07L1.67314 0.4092C7.46723 3.16635 11.0079 7.11981 12.958 9.95102C15.0834 13.0368 15.8292 15.4668 15.86 15.5687L16.1359 16.4846L14.3155 17.0399Z" transform="translate(39.6667 22.6494)" fill="#474E55"/>
<path d="M15.904 16.7831L15.0506 16.3606C10.1073 13.9135 6.39963 10.0695 4.15998 7.2758C1.7379 4.25463 0.487209 1.82846 0.4352 1.72672L1.22334e-05 0.875683L1.69147 2.61021e-07L2.1268 0.851037C2.18977 0.973595 7.04029 10.2622 15.8903 14.6432L16.7438 15.0657L15.904 16.7831Z" transform="translate(36.6383 25.6721)" fill="#474E55"/>
<path d="M1.90858 0H0V9.52924H1.90858V0Z" transform="matrix(0.676336 0.736585 -0.732407 0.680858 58.7091 38.0059)" fill="#474E55"/>
<path d="M5.43384 0H-5.03441e-06V1.91035H5.43384V0Z" transform="matrix(0.823267 0.567576 -0.562825 0.826522 2.95203 25.9342)" fill="#CE0B24"/>
<path d="M5.81613 0H7.20898e-06V1.9132H5.81613V0Z" transform="translate(0 34.1314)" fill="#CE0B24"/>
<path d="M1.9093 0H-6.13953e-06V5.06054H1.9093V0Z" transform="matrix(0.629054 0.777404 -0.773586 0.633743 6.63745 39.6159)" fill="#CE0B24"/>
<path d="M5.11741 0H6.36663e-06V1.90467H5.11741V0Z" transform="matrix(0.443597 0.896194 -0.893997 0.448009 9.17566 20.5835)" fill="#CE0B24"/>
</svg>
