<svg width="27" height="50" viewBox="0 0 27 50" fill="none" xmlns="http://www.w3.org/2000/svg">
<path d="M5.48567 11.1077C2.46088 11.1077 -2.0357e-06 8.61623 -2.0357e-06 5.55387C-2.0357e-06 2.49151 2.46088 0 5.48567 0C8.51046 0 10.9713 2.49151 10.9713 5.55387C10.9713 8.61623 8.51046 11.1077 5.48567 11.1077ZM5.48567 1.70851C3.39138 1.70851 1.6875 3.43361 1.6875 5.55387C1.6875 7.67413 3.39138 9.39923 5.48567 9.39923C7.57996 9.39923 9.28383 7.67413 9.28383 5.55387C9.28383 3.43361 7.57996 1.70851 5.48567 1.70851Z" transform="translate(8.0144)" fill="#CE0B24"/>
<path d="M1.68749 0H-5.71935e-06V18.9946H1.68749V0Z" transform="translate(4.76465 23.3673)" fill="#474E55"/>
<path d="M1.68751 0H6.39792e-06V18.9946H1.68751V0Z" transform="translate(20.4484 23.3673)" fill="#474E55"/>
<path d="M9.82721 0H-5.71935e-06V1.70851H9.82721V0Z" transform="translate(8.53662 24.7743)" fill="#474E55"/>
<path d="M9.82721 0H-5.71935e-06V1.70851H9.82721V0Z" transform="translate(8.53662 40.8544)" fill="#474E55"/>
<path d="M1.68749 0H-5.71935e-06V11.8591H1.68749V0Z" transform="translate(8.83447 27.9904)" fill="#474E55"/>
<path d="M1.68751 0H6.39792e-06V11.8591H1.68751V0Z" transform="translate(16.5771 27.9904)" fill="#474E55"/>
<path d="M20.7463 0H-5.71935e-06V1.70851H20.7463V0Z" transform="translate(3.17639 44.573)" fill="#474E55"/>
<path d="M27 0H-5.71935e-06V1.70851H27V0Z" transform="translate(0 48.2915)" fill="#474E55"/>
<path d="M4.6844 4.9375C2.10143 4.9375 -3.10202e-06 2.81 -3.10202e-06 0.194871C-3.10202e-06 0.129646 0.00129122 0.0646223 0.00397136 3.43508e-07L1.68998 0.0713557C1.68819 0.11236 1.6875 0.153565 1.6875 0.194871C1.6875 1.86791 3.03194 3.22899 4.6844 3.22899C5.97077 3.22899 7.11203 2.40076 7.52398 1.16812L9.12244 1.71575C8.47841 3.64275 6.69491 4.9375 4.6844 4.9375Z" transform="translate(8.91663 12.019)" fill="#CE0B24"/>
<path d="M20.6471 10.1506H18.9596V6.69445C18.9596 3.94515 16.6519 1.70851 13.8154 1.70851H6.83189C3.99521 1.70851 1.68749 3.94515 1.68749 6.69445V9.74857H-5.71935e-06V6.69445C-5.71935e-06 3.00316 3.0647 2.69899e-07 6.83189 2.69899e-07H13.8154C17.5824 2.69899e-07 20.6471 3.00316 20.6471 6.69445V10.1506Z" transform="translate(3.17639 11.7092)" fill="#CE0B24"/>
<path d="M23.8235 0H-5.71935e-06V1.70851H23.8235V0Z" transform="translate(1.68738 20.6538)" fill="#474E55"/>
</svg>
