<svg width="50" height="36" viewBox="0 0 50 36" fill="none" xmlns="http://www.w3.org/2000/svg">
<path d="M1.35157 6.15114L0.00993739 4.77788L1.91825e-05 4.78815C0.0444388 4.73983 1.0844 3.57494 0.78116 1.09138C0.716093 0.559258 1.08505 0.0739666 1.60492 0.00747955C2.12512 -0.0584363 2.59887 0.318436 2.66371 0.850675C3.08838 4.32822 1.42266 6.07837 1.35157 6.15114Z" transform="translate(25.1378 14.9229)" fill="#CE0B24"/>
<path d="M43.9196 8.91064C43.9196 8.91064 43.9179 8.91064 43.9174 8.91064H0.94864C0.424757 8.91064 -2.00544e-05 8.47585 -2.00544e-05 7.93961V0.971035C-2.00544e-05 0.434797 0.424757 3.79309e-06 0.94864 3.79309e-06H42.0201C42.4457 3.79309e-06 42.8196 0.290401 42.9339 0.710344L44.8133 7.61289C44.8488 7.71502 44.8682 7.82492 44.8682 7.9395C44.8683 8.47596 44.4436 8.91064 43.9196 8.91064ZM1.8973 6.96858H42.6683L41.2997 1.94207H1.8973V6.96858Z" transform="translate(2.23218 1.61407)" fill="#474E55"/>
<path d="M27.2321 7.61506H0.94864C0.424757 7.61506 -2.00544e-05 7.18026 -2.00544e-05 6.64403V1.16056C-2.00544e-05 0.625919 0.422232 0.191925 0.944553 0.189526L43.2436 -2.78904e-06C43.2451 -2.78904e-06 43.2464 -2.78904e-06 43.2479 -2.78904e-06C43.7698 -2.78904e-06 44.1942 0.431936 44.1964 0.966803C44.1987 1.50304 43.7756 1.93977 43.2519 1.94206L1.8973 2.12736V5.673H27.2321C27.756 5.673 28.1808 6.10779 28.1808 6.64403C28.1808 7.18026 27.7561 7.61506 27.2321 7.61506Z" transform="translate(2.79016 8.50739)" fill="#474E55"/>
<path d="M12.5 9.13912H4.46426C2.00266 9.13912 -2.00544e-05 7.08922 -2.00544e-05 4.56956C-2.00544e-05 2.04991 2.00266 3.79309e-06 4.46426 3.79309e-06H12.5C14.9616 3.79309e-06 16.9643 2.04991 16.9643 4.56956C16.9643 7.08922 14.9616 9.13912 12.5 9.13912ZM4.46426 1.94207C3.04875 1.94207 1.8973 3.12078 1.8973 4.56956C1.8973 6.01834 3.04875 7.19706 4.46426 7.19706H12.5C13.9154 7.19706 15.0669 6.01834 15.0669 4.56956C15.0669 3.12078 13.9154 1.94207 12.5 1.94207H4.46426Z" transform="translate(16.7411 14.2946)" fill="#474E55"/>
<path d="M13.1789 13.6955H4.47609C2.39629 13.6955 0.701841 11.9747 0.680301 9.85089L0.00297473 1.0473C-0.0382083 0.512657 0.351873 0.0451926 0.874306 0.00303843C1.39652 -0.0390015 1.85334 0.360153 1.89452 0.894791L2.57462 9.73379C2.57663 9.75915 2.57751 9.78463 2.57751 9.80999C2.57751 10.8815 3.42932 11.7534 4.47619 11.7534H13.179C14.1817 11.7534 15.0052 10.9538 15.0732 9.94468L12.5282 1.6755C12.3708 1.16394 12.6483 0.618787 13.1481 0.457596C13.6481 0.296519 14.1805 0.580626 14.3379 1.09207L16.9311 9.51823C16.9601 9.6127 16.9749 9.71106 16.9749 9.80999C16.9747 11.9524 15.2718 13.6955 13.1789 13.6955Z" transform="translate(32.2439 22.3045)" fill="#474E55"/>
<path d="M1.01716 2.18523C0.61403 2.18523 0.240146 1.9202 0.112691 1.50585C0.0835615 1.41126 0.0679496 1.35711 0.0563425 1.30319C0.0533291 1.29325 0.0494381 1.28023 0.044081 1.26309C-0.113285 0.751531 0.164026 0.206381 0.663914 0.0451903C1.1638 -0.116115 1.69629 0.168109 1.85377 0.679557C1.87944 0.763065 1.89443 0.815159 1.90603 0.868737C1.90972 0.881189 1.91496 0.898327 1.92222 0.922203C2.07981 1.43365 1.80243 1.97891 1.30266 2.14022C1.20768 2.1706 1.11157 2.18523 1.01716 2.18523Z" transform="translate(43.6211 19.5576)" fill="#474E55"/>
<path d="M1.7241 9.57521C1.32109 9.57521 0.94743 9.31052 0.81964 8.8964L0.792992 8.80958C0.792322 8.80775 0.791752 8.8058 0.791194 8.80398C0.721774 8.57835 0.653174 8.3644 0.587325 8.15911C0.111991 6.67709 -0.298645 5.39726 0.29343 3.57195C0.750908 2.16144 2.16062 1.07709 3.446 0.171293C3.87781 -0.132811 4.4683 -0.021213 4.7654 0.420549C5.06238 0.862311 4.95338 1.46687 4.52191 1.77097C3.82972 2.25877 2.38945 3.27368 2.09402 4.18394C1.69938 5.40069 1.94457 6.16528 2.38977 7.55329C2.45785 7.76566 2.52896 7.98706 2.60083 8.22045H2.60067C2.60268 8.22662 2.60471 8.23302 2.60672 8.23964L2.62884 8.31126C2.78665 8.82271 2.5096 9.36821 2.00993 9.52974C1.91496 9.56058 1.81852 9.57521 1.7241 9.57521Z" transform="translate(42.1097 9.09668)" fill="#474E55"/>
<path d="M2.27408 5.77364H1.32542V3.83158H2.27408C2.5704 3.83158 2.90536 3.53433 3.19811 3.11039C2.33014 2.9661 1.46384 2.58089 0.805694 2.16198L-2.44141e-05 1.64927L1.00188 -2.45435e-06L1.8076 0.512706C2.83829 1.16878 3.92119 1.35373 4.3338 1.14901C4.67152 0.981194 5.07411 1.03318 5.3606 1.28153C5.6471 1.52977 5.76373 1.92755 5.65804 2.2962C5.28773 3.58778 4.15812 5.77364 2.27408 5.77364Z" transform="translate(44.3036 2.7901)" fill="#474E55"/>
<path d="M0.94864 2.0563C0.424757 2.0563 -2.00544e-05 1.62151 -2.00544e-05 1.08527V0.971035C-2.00544e-05 0.434797 0.424757 3.79309e-06 0.94864 3.79309e-06C1.47252 3.79309e-06 1.8973 0.434797 1.8973 0.971035V1.08527C1.8973 1.62163 1.47264 2.0563 0.94864 2.0563Z" transform="translate(39.5089 28.0604)" fill="#474E55"/>
<path d="M4.34213 2.51433e-06H2.58078e-05V1.90303H4.34213V2.51433e-06Z" transform="matrix(0.348018 0.937497 -0.931999 0.362487 32.6616 3.74365)" fill="#474E55"/>
<path d="M4.34213 2.51433e-06H2.58078e-05V1.90303H4.34213V2.51433e-06Z" transform="matrix(0.348018 0.937497 -0.931999 0.362487 35.6752 3.74371)" fill="#474E55"/>
<path d="M4.34213 0H2.58078e-05V1.90302H4.34213V0Z" transform="matrix(0.348018 0.937497 -0.931999 0.362487 38.5771 3.63788)" fill="#474E55"/>
<path d="M4.34213 0H2.58078e-05V1.90302H4.34213V0Z" transform="matrix(0.348018 0.937497 -0.931999 0.362487 41.3674 3.63782)" fill="#474E55"/>
<path d="M3.01337 6.05467H0.94864C0.424757 6.05467 -2.00544e-05 5.61987 -2.00544e-05 5.08364V0.971035C-2.00544e-05 0.434797 0.424757 3.79309e-06 0.94864 3.79309e-06H2.56694C3.09083 3.79309e-06 3.5156 0.434797 3.5156 0.971035C3.5156 1.50727 3.09083 1.94207 2.56694 1.94207H1.8973V4.11261H3.01337C3.53726 4.11261 3.96203 4.5474 3.96203 5.08364C3.96203 5.61987 3.53737 6.05467 3.01337 6.05467Z" transform="translate(0 2.64227)" fill="#474E55"/>
<path d="M5.48854 3.15654C5.41968 3.15654 5.34969 3.14877 5.27971 3.13266C4.34657 2.91801 3.54501 2.59654 2.90103 2.33813C2.56376 2.20276 2.12815 2.0282 1.86889 1.96525C1.74433 2.47419 1.24488 2.79108 0.741644 2.67593C0.230372 2.55883 -0.09139 2.03962 0.0231188 1.51629C0.161623 0.88272 0.459724 0.43753 0.909055 0.193059C1.6922 -0.23271 2.57303 0.120754 3.59346 0.530072C4.20774 0.776486 4.90405 1.05592 5.69568 1.23801C6.20695 1.35557 6.52818 1.87512 6.41333 2.39834C6.31423 2.84981 5.92258 3.15654 5.48854 3.15654Z" transform="translate(4.18518)" fill="#474E55"/>
<path d="M0.94864 5.31211C0.424757 5.31211 -2.00544e-05 4.87732 -2.00544e-05 4.34108V0.971035C-2.00544e-05 0.434797 0.424757 3.79309e-06 0.94864 3.79309e-06H8.81694C9.34082 3.79309e-06 9.7656 0.434797 9.7656 0.971035C9.7656 1.50727 9.34082 1.94207 8.81694 1.94207H1.8973V4.34108C1.8973 4.87744 1.47264 5.31211 0.94864 5.31211Z" transform="translate(16.6294 14.1804)" fill="#474E55"/>
<path d="M5.85935 1.94207H0.94864C0.424757 1.94207 -2.00544e-05 1.50727 -2.00544e-05 0.971035C-2.00544e-05 0.434797 0.424757 3.79309e-06 0.94864 3.79309e-06H5.85935C6.38324 3.79309e-06 6.80801 0.434797 6.80801 0.971035C6.80801 1.50727 6.38335 1.94207 5.85935 1.94207Z" transform="translate(26.9531 21.4917)" fill="#474E55"/>
</svg>
