<svg width="36" height="46" viewBox="0 0 36 46" fill="none" xmlns="http://www.w3.org/2000/svg">
<path d="M1.54178 2.81518L1.0358e-06 1.87419L1.12992 -7.91018e-06L2.67383 0.937557L1.54178 2.81518Z" transform="translate(19.9333 7.17914)" fill="#474E55"/>
<path d="M10.8496 7.96205L9.29841 7.03661L9.75884 6.2573C10.4235 5.13236 10.9351 4.2438 11.2705 3.63321C7.23797 0.496789 3.35403 2.17477 1.94027 2.98743L3.24722 6.66926L1.54814 7.27834L-4.27269e-07 2.91723L0.310668 1.88584C0.376323 1.8367 1.94462 0.677121 4.28338 0.200498C6.46177 -0.243618 9.74368 -0.165888 13.008 2.72593L13.2198 3.8078C12.9393 4.37715 12.2968 5.51254 11.3102 7.18254L10.8496 7.96205Z" transform="translate(11.85)" fill="#474E55"/>
<path d="M2.58464 0H0V1.80494H2.58464V0Z" transform="matrix(0.334564 0.942411 -0.941385 0.33744 15.0157 6.49066)" fill="#474E55"/>
<path d="M6.42635 13.2254L0.0508064 4.66935L2.46003e-07 3.65888C0.0666099 3.54772 1.6593 0.927791 4.13149 0.24142L5.00092 3.3306e-06L5.48129 1.74727L4.61187 1.98879C3.37758 2.33144 2.38055 3.45155 1.88501 4.10659L7.87054 12.1391L6.42635 13.2254Z" transform="translate(8.328 2.72229)" fill="#474E55"/>
<path d="M1.3462 12.5748L-3.36636e-07 11.3682L6.55872 3.97969C6.09892 3.38104 5.24954 2.43994 4.19227 2.01906L3.35371 1.68522L4.01811 -1.45714e-05L4.85667 0.333826C7.03676 1.2016 8.4223 3.48325 8.48021 3.57992L8.38051 4.6506L1.3462 12.5748Z" transform="translate(19.1609 3.48462)" fill="#474E55"/>
<path d="M13.9045 32.1266C13.9043 32.1266 13.9043 32.1266 13.9041 32.1266C12.4064 32.1266 11.3579 32.0906 10.7878 32.0197C8.09869 31.6851 5.60157 30.7826 3.75633 29.478C1.42351 27.8289 0.127909 25.5562 0.0093271 22.9056C-0.199836 18.2269 3.15335 13.2806 5.60178 9.669L5.6686 9.57038C7.03155 7.55955 8.69934 5.25138 10.7348 3.37707C13.1683 1.13635 15.6616 -1.6653e-06 18.1454 -1.6653e-06C18.8914 -1.6653e-06 19.647 0.10262 20.3911 0.304801C21.2655 0.542473 22.1168 1.17399 22.8679 1.73118C23.1279 1.92409 23.3733 2.1062 23.5935 2.25232C27.2307 4.66602 29.8641 8.61033 32.1877 12.0902C32.5078 12.5696 32.8244 13.0439 33.1398 13.5087C35.2433 16.6089 36.3735 21.0264 35.8885 24.2512C35.5524 26.4863 34.4307 28.1081 32.2516 29.5101C29.5484 31.2492 26.7283 31.4831 23.7425 31.7307C23.5264 31.7486 23.3093 31.7666 23.0914 31.7854C20.7833 31.983 16.9197 32.1266 13.9045 32.1266ZM18.1453 1.81268C16.0986 1.81268 14.0732 2.76158 11.9535 4.71358C10.0541 6.46255 8.4643 8.66608 7.15947 10.5909L7.09265 10.6896C4.78698 14.0906 1.62917 18.7486 1.8115 22.8243C2.01875 27.4597 6.69882 29.6845 11.0095 30.2208C11.4923 30.2808 12.5204 30.3141 13.9042 30.3141C16.827 30.3141 20.7107 30.17 22.938 29.979C23.1577 29.9602 23.3764 29.942 23.5941 29.924C26.35 29.6954 28.953 29.4796 31.2787 27.9833C33.0275 26.8582 33.8462 25.6984 34.1047 23.98C34.5208 21.2143 33.4881 17.2399 31.6492 14.5296C31.3315 14.0612 31.0123 13.5832 30.6896 13.1C28.3517 9.59865 25.9344 5.97817 22.5993 3.76473C22.3398 3.5926 22.0759 3.39666 21.7965 3.18947C21.1734 2.72723 20.4671 2.20329 19.9201 2.05462C19.3293 1.89411 18.7323 1.81268 18.1453 1.81268Z" transform="translate(0 13.8734)" fill="#474E55"/>
<path d="M6.16836 0H0V1.80497H6.16836V0Z" transform="matrix(0.338851 0.940823 -0.939772 0.341754 20.2526 13.7983)" fill="#474E55"/>
<path d="M1.80499 -1.74759e-05H0V6.16826H1.80499V-1.74759e-05Z" transform="matrix(0.939772 0.341754 -0.338851 0.940823 15.8794 13.9485)" fill="#474E55"/>
<path d="M1.80447 2.24754e-05H0V4.18633H1.80447V2.24754e-05Z" transform="matrix(0.970933 0.239387 -0.237218 0.971465 18.8143 11.0727)" fill="#474E55"/>
<path d="M4.27625 2.19735e-05H0V1.80507H4.27625V2.19735e-05Z" transform="matrix(0.367564 0.930009 -0.928787 0.37064 16.8617 11.2338)" fill="#474E55"/>
<path d="M5.4342 15.4562C5.37852 15.4562 5.32251 15.4552 5.2663 15.4535C3.10636 15.3838 1.07678 14.0062 0.330714 12.1036L-2.46003e-07 11.2605L1.67829 10.5959L2.009 11.4392C2.49129 12.6689 3.88553 13.5952 5.32421 13.6417C5.97037 13.6635 7.14155 13.5118 7.72417 12.267C8.00981 11.6567 8.05171 11.0977 7.85219 10.558C7.35761 9.21979 5.53146 8.31368 4.98353 8.0679C3.84352 7.556 1.86634 6.42783 1.43062 4.62333C1.26696 3.94538 1.26781 2.89078 2.20172 1.71691C3.03657 0.667104 4.32379 0.00930608 5.56116 0.000140252C6.40842 -0.00764004 7.66595 0.279911 8.8122 1.67876L9.38549 2.37835L7.99295 3.53068L7.41955 2.831C6.86589 2.15528 6.24985 1.81277 5.58853 1.81277C5.58375 1.81277 5.57919 1.81277 5.57442 1.81277C4.72822 1.81906 3.98788 2.37473 3.61092 2.8488C3.03371 3.57439 3.14667 4.04218 3.18379 4.19608C3.364 4.94203 4.33546 5.79155 5.71941 6.41301C6.84976 6.92022 8.85017 8.05137 9.54342 9.92716C9.91519 10.9331 9.85239 11.9799 9.35675 13.0386C8.64377 14.5611 7.18546 15.4562 5.4342 15.4562Z" transform="translate(12.7496 23.4391)" fill="#CC122B"/>
<path d="M0.0424268 3.67806L0.0302286 2.77182C0.0302286 2.77182 0.0222746 2.18786 0.00933446 0.924999L-7.25063e-07 0.018658L1.80387 -2.45632e-05L1.8132 0.906264C1.82614 2.16401 1.83399 2.74624 1.83399 2.7472L1.8463 3.65344L0.0424268 3.67806Z" transform="translate(17.0094 37.244)" fill="#CC122B"/>
<path d="M4.09296 4.55754e-06H0V1.80396H4.09296V4.55754e-06Z" transform="translate(18.6707 21.0031) rotate(89.4127)" fill="#CC122B"/>
</svg>
