<svg width="50" height="49" viewBox="0 0 50 49" fill="none" xmlns="http://www.w3.org/2000/svg">
<g id="Group">
<path id="Vector" d="M14.0629 20.9692C15.2807 20.9535 17.0066 19.8913 17.0038 18.5999C17.0038 13.7954 17.0038 8.99081 17.0038 4.18626C17.0028 2.89055 16.058 1.39123 14.8535 0.996347C10.7104 -0.332108 6.29429 -0.332108 2.15027 0.996347C0.948114 1.39028 0.000939368 2.89292 -1.20789e-05 4.18626C-1.20789e-05 8.99081 -1.20789e-05 13.7954 -1.20789e-05 18.5999" transform="translate(18.0038 10.3589) scale(-1 1)" stroke="#CE0B24" stroke-width="1.6"/>
<path id="Vector_2" d="M0.35536 -8.34289e-06L4.34953 12.473L-9.98833e-06 13.9689" transform="translate(34.2417 17.3923) scale(-1 1)" stroke="#474E55" stroke-width="1.6"/>
<path id="Vector_3" d="M2.70735 5.40209C4.20258 5.40209 5.41469 4.1928 5.41469 2.70105C5.41469 1.2093 4.20258 8.11114e-06 2.70735 8.11114e-06C1.21213 8.11114e-06 -7.43318e-06 1.2093 -7.43318e-06 2.70105C-7.43318e-06 4.1928 1.21213 5.40209 2.70735 5.40209Z" transform="translate(27.2162 26.0769) scale(-1 1)" stroke="#474E55" stroke-width="1.6"/>
<path id="Vector_4" d="M7.45315 -4.40319e-06H-9.98833e-06V8.06853H7.45315V-4.40319e-06Z" transform="translate(28.4735 34.2868) scale(-1 1)" stroke="#474E55" stroke-width="1.6"/>
<path id="Vector_5" d="M1.32404e-05 9.03813e-06L3.145 4.09168" transform="translate(31.6609 30.1952) scale(-1 1)" stroke="#474E55" stroke-width="1.6"/>
<path id="Vector_6" d="M-1.20789e-05 4.09168L3.14454 9.03813e-06" transform="translate(20.9771 30.1952) scale(-1 1)" stroke="#474E55" stroke-width="1.6"/>
<g id="Group_2">
<path id="Vector_7" d="M2.44141e-05 9.73337e-06V6.80225" transform="translate(26.8875 42.1978) scale(-1 1)" stroke="#474E55" stroke-width="1.6"/>
<path id="Vector_8" d="M2.44141e-05 9.73337e-06V6.80225" transform="translate(22.606 42.1978) scale(-1 1)" stroke="#474E55" stroke-width="1.6"/>
</g>
<path id="Vector_9" d="M-6.96861e-06 -1.99302e-05C0.274485 2.55105 0.548511 5.10311 0.823479 7.65418H4.81719C5.09215 5.10311 5.36616 2.55105 5.6416 -1.99302e-05" transform="translate(43.3188 40.23) scale(-1 1)" stroke="#474E55" stroke-width="1.6"/>
<path id="Vector_10" d="M-6.83594e-06 -5.56193e-06V15.4004" transform="translate(9.50293 32.4847) scale(-1 1)" stroke="#CE0B24" stroke-width="1.6"/>
<g id="Group_3">
<path id="Vector_11" d="M-8.13004e-06 -7.64765e-06V31.1776H9.89649V-7.64765e-06" transform="translate(14.4497 16.7582) scale(-1 1)" stroke="#CE0B24" stroke-width="1.6"/>
</g>
<path id="Vector_12" d="M15.1137 4.18565C14.7051 2.88994 13.5962 1.38777 12.7265 0.995736C11.199 0.33222 9.85225 0.000955261 8.50357 6.02542e-06H8.50023C7.15298 0.000955261 5.8043 0.331746 4.27723 0.995736C3.40903 1.38872 2.29774 2.89231 1.89005 4.18565C1.25924 6.28441 0.629872 8.38412 1.41695e-05 10.4838C0.629396 12.5835 1.40196 15.1057 2.03229 17.2054" transform="translate(49 13.2067) scale(-1 1)" stroke="#474E55" stroke-width="1.6"/>
<g id="Group_4">
<path id="Vector_13" d="M4.2211 -7.64765e-06C2.81438 6.88385 1.40767 13.7672 8.59461e-06 20.6506C5.29243 20.6506 10.5829 20.6506 15.8744 20.6506C14.4672 13.7672 13.061 6.88385 11.6543 -7.64765e-06" transform="translate(48.4348 18.1821) scale(-1 1)" stroke="#474E55" stroke-width="1.6"/>
</g>
<path id="Vector_14" d="M9.29992 4.64034C9.29992 7.20327 7.21815 9.28066 4.65067 9.28066C2.08081 9.28066 -1.39372e-06 7.20327 -1.39372e-06 4.64034C-1.39372e-06 2.0774 2.08081 8.88769e-06 4.65067 8.88769e-06C7.21815 -0.00046573 9.29992 2.07693 9.29992 4.64034Z" transform="translate(14.1514 1) scale(-1 1)" stroke="#CE0B24" stroke-width="1.6"/>
<path id="Vector_15" d="M4.41187 8.8032C6.84847 8.8032 8.82372 6.83254 8.82372 4.4016C8.82372 1.97066 6.84847 4.40319e-06 4.41187 4.40319e-06C1.97526 4.40319e-06 1.37049e-05 1.97066 1.37049e-05 4.4016C1.37049e-05 6.83254 1.97526 8.8032 4.41187 8.8032Z" transform="translate(44.9093 4.08643) scale(-1 1)" stroke="#474E55" stroke-width="1.6"/>
</g>
</svg>
