<svg width="43" height="50" viewBox="0 0 43 50" fill="none" xmlns="http://www.w3.org/2000/svg">
<path d="M12.1661 24.2675C5.45713 24.2675 -2.68929e-06 18.8246 -2.68929e-06 12.1344C-2.68929e-06 5.44289 5.45713 -2.99784e-06 12.1661 -2.99784e-06C18.8751 -2.99784e-06 24.3322 5.44289 24.3322 12.1344C24.3322 18.8246 18.8751 24.2675 12.1661 24.2675ZM12.1661 2.15919C6.65197 2.15919 2.16484 6.63397 2.16484 12.1344C2.16484 17.6341 6.65197 22.1083 12.1661 22.1083C17.6803 22.1083 22.1674 17.6341 22.1674 12.1344C22.1674 6.63397 17.6803 2.15919 12.1661 2.15919Z" transform="translate(0 13.8069)" fill="#474E55"/>
<path d="M12.1661 24.2687C5.45713 24.2687 6.32774e-07 18.8259 6.32774e-07 12.1344C6.32774e-07 5.44288 5.45713 -6.31124e-06 12.1661 -6.31124e-06C18.8751 -6.31124e-06 24.3322 5.44353 24.3322 12.1344C24.3322 18.8259 18.8751 24.2687 12.1661 24.2687ZM12.1661 2.15919C6.65197 2.15919 2.16484 6.63396 2.16484 12.1344C2.16484 17.6348 6.65132 22.1102 12.1661 22.1102C17.6809 22.1102 22.1674 17.6348 22.1674 12.1344C22.1674 6.63396 17.6803 2.15919 12.1661 2.15919Z" transform="translate(13.7361 7.05402)" fill="#CE0B24"/>
<path d="M2.16549 -4.41787e-06H4.42942e-06V13.0055H2.16549V-4.41787e-06Z" transform="translate(11.0834 36.9944)" fill="#474E55"/>
<path d="M12.6054 5.83789e-06H2.3729e-06V2.1592H12.6054V5.83789e-06Z" transform="translate(5.80444 43.2859)" fill="#474E55"/>
<path d="M2.162 8.68934e-06H-4.8186e-06V11.3524H2.162V8.68934e-06Z" transform="translate(39.9946 1.69089) scale(1.0013 0.998684) rotate(45.0808)" fill="#CE0B24"/>
<path d="M8.41571 8.36727H6.25088V2.31881L2.61019e-06 2.15918L0.0544311 7.88904e-06L7.36084 0.186781C7.94724 0.202938 8.41571 0.681818 8.41571 1.26669V8.36727Z" transform="translate(34.5842)" fill="#CE0B24"/>
</svg>
