<svg width="52" height="52" viewBox="0 0 52 52" fill="none" xmlns="http://www.w3.org/2000/svg">
<path d="M3.53645 2.28911e-05H0V5.89627H3.53645V2.28911e-05Z" transform="translate(11.8832 37.6615) rotate(45.0081)" stroke="#474E55" stroke-width="2"/>
<path d="M9.04188 2.73697e-05H8.95737e-06V31.8423H9.04188V2.73697e-05Z" transform="translate(32.4236 13.1926) rotate(45.0081)" stroke="#474E55" stroke-width="2"/>
<path d="M-1.36849e-05 6.81046L6.81048 3.48342e-06" transform="translate(39.2894 9.37335)" stroke="#474E55" stroke-width="2"/>
<path d="M6.80946 -4.97632e-06L-1.02015e-05 6.80996" transform="translate(35.8152 5.89954)" stroke="#474E55" stroke-width="2"/>
<path d="M-1.16944e-05 3.03555e-05L10.912 10.9115L9.33133 12.4928" transform="translate(32.5269 8.56006)" stroke="#474E55" stroke-width="2"/>
<path d="M-9.95264e-06 0L10.9105 10.911" transform="translate(40.0895 1)" stroke="#474E55" stroke-width="2"/>
<path d="M6.39719 2.04029e-05L9.95264e-06 6.3977" transform="translate(1 44.6023)" stroke="#474E55" stroke-width="2"/>
<path d="M-1.09479e-05 -2.09005e-05L2.92802 2.92904" transform="translate(32.6105 19.1703)" stroke="#474E55" stroke-width="2"/>
<path d="M-3.73224e-06 2.38863e-05L1.79013 1.79063" transform="translate(30.9553 23.1018)" stroke="#474E55" stroke-width="2"/>
<path d="M1.4929e-06 1.99053e-06L1.78759 1.78961" transform="translate(28.1644 25.8948)" stroke="#474E55" stroke-width="2"/>
<path d="M-4.97632e-06 -2.43839e-05L2.927 2.92748" transform="translate(24.2341 27.5493)" stroke="#474E55" stroke-width="2"/>
<path d="M-1.2192e-05 2.04029e-05L1.78963 1.78863" transform="translate(22.577 31.4807)" stroke="#474E55" stroke-width="2"/>
<path d="M4.97632e-06 -1.59242e-05L1.78912 1.79065" transform="translate(19.7855 34.2716)" stroke="#474E55" stroke-width="2"/>
<path d="M-1.4929e-06 -1.59242e-05L2.92803 2.92699" transform="translate(15.8551 35.9277)" stroke="#474E55" stroke-width="2"/>
<path d="M26.6058 0.456453C19.5604 -0.992778 11.9438 1.00782 6.47861 6.47556C-0.983096 13.9373 -1.99715 25.3976 3.42524 33.9513" transform="translate(2.29138 5.69995)" stroke="#CE0B24" stroke-width="2" stroke-dasharray="4 4"/>
<path d="M-9.45501e-06 23.1811C8.55423 28.603 20.0136 27.5889 27.4743 20.1282C32.942 14.662 34.9456 7.04638 33.4954 -1.74171e-05" transform="translate(12.5857 23.3397)" stroke="#CE0B24" stroke-width="2" stroke-dasharray="4 4"/>
</svg>
