<svg width="24" height="24" viewBox="0 0 24 24" fill="none" xmlns="http://www.w3.org/2000/svg">
<path fill-rule="evenodd" clip-rule="evenodd" d="M12 24C18.6274 24 24 18.6274 24 12C24 5.37258 18.6274 0 12 0C5.37258 0 0 5.37258 0 12C0 18.6274 5.37258 24 12 24Z" fill="#CE0B24"/>
<path fill-rule="evenodd" clip-rule="evenodd" d="M0.275146 3.49805H2.40142V10.9084H0.275146V3.49805ZM1.2841 2.57116H1.26871C0.499017 2.57116 0 2.00468 0 1.28733C0 0.555303 0.513769 0 1.29885 0C2.0833 0 2.56564 0.553906 2.58103 1.28523C2.58103 2.00258 2.0833 2.57116 1.2841 2.57116ZM10.909 10.909H8.49797V7.0736C8.49797 6.06986 8.12082 5.38534 7.29148 5.38534C6.65712 5.38534 6.30435 5.84704 6.14015 6.29338C6.07857 6.45264 6.08819 6.67546 6.08819 6.89898V10.909H3.69958C3.69958 10.909 3.73037 4.11547 3.69958 3.498H6.08819V4.661C6.2293 4.15249 6.99258 3.42676 8.21062 3.42676C9.72178 3.42676 10.909 4.49336 10.909 6.78791V10.909Z" transform="translate(6.46155 6.46143)" fill="white"/>
</svg>
