<svg width="330" height="61" viewBox="0 0 330 61" fill="none" xmlns="http://www.w3.org/2000/svg">
<path d="M4.7005 1.5555C4.7005 1.71983 4.67217 1.87567 4.6155 2.023C4.55883 2.17033 4.4795 2.3035 4.3775 2.4225C4.2755 2.53583 4.15367 2.63217 4.012 2.7115C3.876 2.78517 3.72583 2.83333 3.5615 2.856V2.89C4.0035 2.98633 4.352 3.17617 4.607 3.4595C4.862 3.73717 4.9895 4.08283 4.9895 4.4965C4.9895 4.8195 4.9045 5.11417 4.7345 5.3805C4.57017 5.64683 4.3605 5.84517 4.1055 5.9755C4.02617 6.01517 3.93833 6.04917 3.842 6.0775C3.75133 6.10583 3.64367 6.13133 3.519 6.154C3.39433 6.171 3.25267 6.18517 3.094 6.1965C2.93533 6.20217 2.75117 6.205 2.5415 6.205H0V5.8395L0.714 5.661V0.629L0 0.4505V0.0849999H2.856C3.451 0.0849999 3.91 0.2295 4.233 0.5185C4.38033 0.6545 4.49367 0.813167 4.573 0.9945C4.658 1.17583 4.7005 1.36283 4.7005 1.5555ZM1.564 3.2555V5.695H2.499C2.75967 5.695 2.96933 5.68083 3.128 5.6525C3.28667 5.62417 3.41983 5.57883 3.5275 5.5165C3.6805 5.42583 3.80517 5.28983 3.9015 5.1085C3.99783 4.92717 4.046 4.709 4.046 4.454C4.046 4.23867 4.00917 4.05167 3.9355 3.893C3.86183 3.72867 3.76833 3.59833 3.655 3.502C3.553 3.417 3.42267 3.35467 3.264 3.315C3.10533 3.27533 2.90133 3.2555 2.652 3.2555H1.564ZM1.564 2.7625H2.6265C3.02317 2.7625 3.315 2.66333 3.502 2.465C3.587 2.37433 3.66067 2.261 3.723 2.125C3.78533 1.98333 3.8165 1.82183 3.8165 1.6405C3.8165 1.46483 3.78533 1.309 3.723 1.173C3.66067 1.03133 3.587 0.918 3.502 0.833C3.332 0.663 3.0515 0.578 2.6605 0.578H1.564V2.7625Z" transform="translate(7.23682 53.8892)" fill="white"/>
<path d="M13.7847 0.629L13.0707 0.4505V0.0849999H15.0342V0.4505L14.3202 0.629V4.1395C14.3202 4.84783 14.1304 5.38617 13.7507 5.7545C13.3767 6.11717 12.8214 6.2985 12.0847 6.2985C11.3254 6.2985 10.7446 6.1115 10.3422 5.7375C9.93991 5.3635 9.73874 4.828 9.73874 4.131V0.629L9.02474 0.4505V0.0849999H11.3027V0.4505L10.5887 0.629V3.9865C10.5887 5.21617 11.1497 5.831 12.2717 5.831C12.8044 5.831 13.1897 5.68933 13.4277 5.406C13.6657 5.117 13.7847 4.6495 13.7847 4.0035V0.629Z" transform="translate(7.23682 53.8892)" fill="white"/>
<path d="M23.3342 2.958C23.2322 3.03733 23.1132 3.10533 22.9772 3.162C22.8412 3.21867 22.674 3.26683 22.4757 3.3065C22.5777 3.4085 22.691 3.5615 22.8157 3.7655L23.9462 5.678L24.7027 5.8395V6.205H22.9517V5.8395L21.7277 3.4595H20.6907V5.661L21.4982 5.8395V6.205H19.1267V5.8395L19.8407 5.661V0.629L19.1267 0.4505V0.0849999H22.0507C22.3227 0.0849999 22.5607 0.1105 22.7647 0.1615C22.9687 0.2125 23.1528 0.294667 23.3172 0.408C23.5268 0.544 23.6883 0.731 23.8017 0.969C23.9207 1.207 23.9802 1.445 23.9802 1.683C23.9802 1.921 23.9207 2.15617 23.8017 2.3885C23.6883 2.61517 23.5325 2.805 23.3342 2.958ZM21.9062 2.9665C22.2178 2.9665 22.4757 2.87867 22.6797 2.703C22.793 2.601 22.8808 2.465 22.9432 2.295C23.0112 2.11933 23.0452 1.93233 23.0452 1.734C23.0452 1.53567 23.0112 1.35717 22.9432 1.1985C22.8808 1.03417 22.7902 0.901 22.6712 0.799C22.5748 0.719667 22.4615 0.663 22.3312 0.629C22.2065 0.595 22.0535 0.578 21.8722 0.578H20.6907V2.9665H21.9062Z" transform="translate(7.23682 53.8892)" fill="white"/>
<path d="M30.1346 5.695H32.4466L32.7356 4.2245H33.2031V6.205H28.4856V5.8395L29.2846 5.661V0.629L28.4856 0.4505V0.0849999H31.0186V0.4505L30.1346 0.629V5.695Z" transform="translate(7.23682 53.8892)" fill="white"/>
<path d="M38.8803 5.661L39.6793 5.8395V6.205H37.2313V5.8395L38.0303 5.661V0.629L37.2313 0.4505V0.0849999H39.6793V0.4505L38.8803 0.629V5.661Z" transform="translate(7.23682 53.8892)" fill="white"/>
<path d="M44.567 0.629L43.853 0.4505V0.0849999H45.4765L48.6555 4.7855V0.629L47.9415 0.4505V0.0849999H49.922V0.4505L49.208 0.629V6.205H48.6045L45.1195 1.1135V5.661L45.8335 5.8395V6.205H43.853V5.8395L44.567 5.661V0.629Z" transform="translate(7.23682 53.8892)" fill="white"/>
<path d="M56.7645 5.7375C57.7278 5.7375 58.2095 5.2615 58.2095 4.3095V3.7145L57.4955 3.536V3.1535H59.7735V3.536L59.0595 3.7145V6.205H58.6175L58.405 5.5335C58.1556 5.8055 57.9006 6.001 57.64 6.12C57.3793 6.23333 57.0705 6.29 56.7135 6.29C55.9371 6.29 55.3166 6.052 54.852 5.576C54.5856 5.304 54.3816 4.96683 54.24 4.5645C54.0983 4.16217 54.0275 3.71167 54.0275 3.213C54.0275 2.70867 54.1011 2.24117 54.2485 1.8105C54.4015 1.37983 54.614 1.02 54.886 0.731C55.345 0.243667 55.9655 0 56.7475 0C57.0875 0 57.3765 0.0538333 57.6145 0.1615C57.8581 0.2635 58.0876 0.4335 58.303 0.6715L58.49 0.0849999H58.9575V1.9635H58.439C58.2746 0.9605 57.6995 0.459 56.7135 0.459C56.4245 0.459 56.1836 0.507167 55.991 0.6035C55.7983 0.694167 55.6311 0.838667 55.4895 1.037C55.3251 1.275 55.1976 1.57533 55.107 1.938C55.0163 2.30067 54.971 2.686 54.971 3.094C54.971 3.519 55.0191 3.91 55.1155 4.267C55.2175 4.61833 55.3591 4.91867 55.5405 5.168C55.6878 5.36633 55.855 5.51083 56.042 5.6015C56.2346 5.69217 56.4755 5.7375 56.7645 5.7375Z" transform="translate(7.23682 53.8892)" fill="white"/>
<path d="M68.64 0.0849999V1.87H68.198L67.926 0.595H66.532V5.6355L67.433 5.8395V6.205H64.781V5.8395L65.682 5.6355V0.595H64.2795L64.016 1.87H63.574V0.0849999H68.64Z" transform="translate(7.23682 53.8892)" fill="white"/>
<path d="M78.3487 3.077C78.3487 3.57567 78.275 4.04033 78.1277 4.471C77.9804 4.90167 77.7707 5.2615 77.4987 5.5505C77.0397 6.0435 76.3852 6.29 75.5352 6.29C74.6682 6.29 74.0137 6.052 73.5717 5.576C73.311 5.304 73.1099 4.964 72.9682 4.556C72.8265 4.14233 72.7557 3.69467 72.7557 3.213C72.7557 2.71433 72.8294 2.24967 72.9767 1.819C73.124 1.38833 73.3337 1.0285 73.6057 0.7395C73.8437 0.4845 74.1185 0.2975 74.4302 0.1785C74.7475 0.0595 75.1215 0 75.5522 0C76.4079 0 77.0652 0.238 77.5242 0.714C77.7905 0.986 77.9945 1.32883 78.1362 1.7425C78.2779 2.1505 78.3487 2.59533 78.3487 3.077ZM73.7332 3.043C73.7332 3.519 73.7729 3.93833 73.8522 4.301C73.9315 4.66367 74.0449 4.96117 74.1922 5.1935C74.4755 5.61283 74.9373 5.8225 75.5777 5.8225C76.1784 5.8225 76.6204 5.6355 76.9037 5.2615C77.2154 4.8365 77.3712 4.148 77.3712 3.196C77.3712 2.72567 77.3315 2.312 77.2522 1.955C77.1729 1.598 77.0567 1.309 76.9037 1.088C76.609 0.668667 76.15 0.459 75.5267 0.459C74.9317 0.459 74.4897 0.646 74.2007 1.02C73.889 1.43367 73.7332 2.108 73.7332 3.043Z" transform="translate(7.23682 53.8892)" fill="white"/>
<path d="M83.2354 0.629L82.5214 0.4505V0.0849999H84.1449L87.3239 4.7855V0.629L86.6099 0.4505V0.0849999H88.5904V0.4505L87.8764 0.629V6.205H87.2729L83.7879 1.1135V5.661L84.5019 5.8395V6.205H82.5214V5.8395L83.2354 5.661V0.629Z" transform="translate(7.23682 53.8892)" fill="white"/>
<path d="M101.032 0.459C100.493 0.459 100.091 0.634667 99.8247 0.986C99.6547 1.207 99.5216 1.49883 99.4252 1.8615C99.3289 2.2185 99.2807 2.61233 99.2807 3.043C99.2807 3.451 99.3232 3.83067 99.4082 4.182C99.4932 4.52767 99.6122 4.8195 99.7652 5.0575C99.9182 5.2955 100.102 5.47117 100.318 5.5845C100.539 5.69217 100.814 5.746 101.142 5.746C101.647 5.746 102.049 5.627 102.349 5.389C102.65 5.14533 102.839 4.7855 102.919 4.3095H103.386C103.256 4.97817 103.001 5.47683 102.621 5.8055C102.242 6.1285 101.72 6.29 101.057 6.29C100.275 6.29 99.6519 6.06333 99.1872 5.61C98.9096 5.338 98.6971 4.998 98.5497 4.59C98.4024 4.17633 98.3287 3.7145 98.3287 3.2045C98.3287 2.63217 98.4222 2.1165 98.6092 1.6575C98.7962 1.19283 99.0597 0.818834 99.3997 0.5355C99.8304 0.1785 100.4 0 101.108 0C101.284 0 101.44 0.0113333 101.576 0.034C101.717 0.0510002 101.848 0.0850003 101.967 0.136C102.086 0.181334 102.196 0.243667 102.298 0.323C102.406 0.402334 102.514 0.5015 102.621 0.6205L102.791 0.0849999H103.259V1.9635H102.74C102.576 0.9605 102.006 0.459 101.032 0.459Z" transform="translate(7.23682 53.8892)" fill="white"/>
<path d="M113.132 3.077C113.132 3.57567 113.059 4.04033 112.911 4.471C112.764 4.90167 112.554 5.2615 112.282 5.5505C111.823 6.0435 111.169 6.29 110.319 6.29C109.452 6.29 108.797 6.052 108.355 5.576C108.095 5.304 107.893 4.964 107.752 4.556C107.61 4.14233 107.539 3.69467 107.539 3.213C107.539 2.71433 107.613 2.24967 107.76 1.819C107.908 1.38833 108.117 1.0285 108.389 0.7395C108.627 0.4845 108.902 0.2975 109.214 0.1785C109.531 0.0595 109.905 0 110.336 0C111.191 0 111.849 0.238 112.308 0.714C112.574 0.986 112.778 1.32883 112.92 1.7425C113.061 2.1505 113.132 2.59533 113.132 3.077ZM108.517 3.043C108.517 3.519 108.556 3.93833 108.636 4.301C108.715 4.66367 108.828 4.96117 108.976 5.1935C109.259 5.61283 109.721 5.8225 110.361 5.8225C110.962 5.8225 111.404 5.6355 111.687 5.2615C111.999 4.8365 112.155 4.148 112.155 3.196C112.155 2.72567 112.115 2.312 112.036 1.955C111.956 1.598 111.84 1.309 111.687 1.088C111.393 0.668667 110.934 0.459 110.31 0.459C109.715 0.459 109.273 0.646 108.984 1.02C108.673 1.43367 108.517 2.108 108.517 3.043Z" transform="translate(7.23682 53.8892)" fill="white"/>
<path d="M121.954 0.629L121.24 0.4505V0.0849999H123.203V0.4505L122.489 0.629V4.1395C122.489 4.84783 122.3 5.38617 121.92 5.7545C121.546 6.11717 120.991 6.2985 120.254 6.2985C119.495 6.2985 118.914 6.1115 118.511 5.7375C118.109 5.3635 117.908 4.828 117.908 4.131V0.629L117.194 0.4505V0.0849999H119.472V0.4505L118.758 0.629V3.9865C118.758 5.21617 119.319 5.831 120.441 5.831C120.974 5.831 121.359 5.68933 121.597 5.406C121.835 5.117 121.954 4.6495 121.954 4.0035V0.629Z" transform="translate(7.23682 53.8892)" fill="white"/>
<path d="M128.01 0.629L127.296 0.4505V0.0849999H128.919L132.098 4.7855V0.629L131.384 0.4505V0.0849999H133.365V0.4505L132.651 0.629V6.205H132.047L128.562 1.1135V5.661L129.276 5.8395V6.205H127.296V5.8395L128.01 5.661V0.629Z" transform="translate(7.23682 53.8892)" fill="white"/>
<path d="M142.424 0.0849999V1.87H141.982L141.71 0.595H140.316V5.6355L141.217 5.8395V6.205H138.565V5.8395L139.466 5.6355V0.595H138.063L137.8 1.87H137.358V0.0849999H142.424Z" transform="translate(7.23682 53.8892)" fill="white"/>
<path d="M150.62 0.629L149.931 0.4505V0.0849999H151.861V0.4505L151.164 0.629L149.43 3.808V5.661L150.229 5.8395V6.205H147.781V5.8395L148.58 5.661V3.944L146.752 0.629L146.047 0.4505V0.0849999H148.393V0.4505L147.679 0.629L149.141 3.349L150.62 0.629Z" transform="translate(7.23682 53.8892)" fill="white"/>
<path d="M161.64 0.629L160.926 0.4505V0.0849999H162.549L165.728 4.7855V0.629L165.014 0.4505V0.0849999H166.995V0.4505L166.281 0.629V6.205H165.677L162.192 1.1135V5.661L162.906 5.8395V6.205H160.926V5.8395L161.64 5.661V0.629Z" transform="translate(7.23682 53.8892)" fill="white"/>
<path d="M173.76 0.629L172.919 0.4505V0.0849999H175.282V0.4505L174.61 0.629V4.352C174.61 4.64667 174.562 4.913 174.466 5.151C174.369 5.389 174.233 5.593 174.058 5.763C173.882 5.933 173.67 6.06617 173.42 6.1625C173.177 6.25317 172.905 6.2985 172.604 6.2985C172.338 6.2985 172.094 6.26167 171.873 6.188C171.652 6.10867 171.462 6.001 171.304 5.865C171.151 5.72333 171.029 5.55617 170.938 5.3635C170.853 5.16517 170.811 4.94983 170.811 4.7175C170.811 4.2415 170.998 4.0035 171.372 4.0035C171.536 4.0035 171.666 4.04883 171.763 4.1395C171.859 4.23017 171.907 4.34917 171.907 4.4965C171.907 4.62683 171.87 4.76 171.797 4.896C171.723 5.02633 171.638 5.11417 171.542 5.1595C171.542 5.34083 171.638 5.49383 171.831 5.6185C172.029 5.74317 172.284 5.8055 172.596 5.8055C172.998 5.8055 173.293 5.695 173.48 5.474C173.667 5.24733 173.76 4.9045 173.76 4.4455V0.629Z" transform="translate(7.23682 53.8892)" fill="white"/>
<path d="M187.725 0.459C187.187 0.459 186.784 0.634667 186.518 0.986C186.348 1.207 186.215 1.49883 186.119 1.8615C186.022 2.2185 185.974 2.61233 185.974 3.043C185.974 3.451 186.017 3.83067 186.102 4.182C186.187 4.52767 186.306 4.8195 186.459 5.0575C186.612 5.2955 186.796 5.47117 187.011 5.5845C187.232 5.69217 187.507 5.746 187.836 5.746C188.34 5.746 188.742 5.627 189.043 5.389C189.343 5.14533 189.533 4.7855 189.612 4.3095H190.08C189.949 4.97817 189.694 5.47683 189.315 5.8055C188.935 6.1285 188.414 6.29 187.751 6.29C186.969 6.29 186.345 6.06333 185.881 5.61C185.603 5.338 185.39 4.998 185.243 4.59C185.096 4.17633 185.022 3.7145 185.022 3.2045C185.022 2.63217 185.116 2.1165 185.303 1.6575C185.49 1.19283 185.753 0.818834 186.093 0.5355C186.524 0.1785 187.093 0 187.802 0C187.977 0 188.133 0.0113333 188.269 0.034C188.411 0.0510002 188.541 0.0850003 188.66 0.136C188.779 0.181334 188.89 0.243667 188.992 0.323C189.099 0.402334 189.207 0.5015 189.315 0.6205L189.485 0.0849999H189.952V1.9635H189.434C189.269 0.9605 188.7 0.459 187.725 0.459Z" transform="translate(7.23682 53.8892)" fill="white"/>
<path d="M198.398 2.958C198.296 3.03733 198.177 3.10533 198.041 3.162C197.905 3.21867 197.737 3.26683 197.539 3.3065C197.641 3.4085 197.754 3.5615 197.879 3.7655L199.01 5.678L199.766 5.8395V6.205H198.015V5.8395L196.791 3.4595H195.754V5.661L196.562 5.8395V6.205H194.19V5.8395L194.904 5.661V0.629L194.19 0.4505V0.0849999H197.114C197.386 0.0849999 197.624 0.1105 197.828 0.1615C198.032 0.2125 198.216 0.294667 198.381 0.408C198.59 0.544 198.752 0.731 198.865 0.969C198.984 1.207 199.044 1.445 199.044 1.683C199.044 1.921 198.984 2.15617 198.865 2.3885C198.752 2.61517 198.596 2.805 198.398 2.958ZM196.97 2.9665C197.281 2.9665 197.539 2.87867 197.743 2.703C197.856 2.601 197.944 2.465 198.007 2.295C198.075 2.11933 198.109 1.93233 198.109 1.734C198.109 1.53567 198.075 1.35717 198.007 1.1985C197.944 1.03417 197.854 0.901 197.735 0.799C197.638 0.719667 197.525 0.663 197.395 0.629C197.27 0.595 197.117 0.578 196.936 0.578H195.754V2.9665H196.97Z" transform="translate(7.23682 53.8892)" fill="white"/>
<path d="M205.198 5.661L205.997 5.8395V6.205H203.549V5.8395L204.348 5.661V0.629L203.549 0.4505V0.0849999H205.997V0.4505L205.198 0.629V5.661Z" transform="translate(7.23682 53.8892)" fill="white"/>
<path d="M215.534 0.0849999H217.523V0.4505L216.809 0.629V5.661L217.523 5.8395V6.205H215.339V5.8395L215.959 5.661V0.637501L214.208 6.205H213.205L211.437 0.637501V5.661L212.058 5.8395V6.205H210.171V5.8395L210.885 5.661V0.629L210.171 0.4505V0.0849999H212.194L213.86 5.4315H213.894L215.534 0.0849999Z" transform="translate(7.23682 53.8892)" fill="white"/>
<path d="M223.345 5.661L224.144 5.8395V6.205H221.696V5.8395L222.495 5.661V0.629L221.696 0.4505V0.0849999H224.144V0.4505L223.345 0.629V5.661Z" transform="translate(7.23682 53.8892)" fill="white"/>
<path d="M229.032 0.629L228.318 0.4505V0.0849999H229.941L233.12 4.7855V0.629L232.406 0.4505V0.0849999H234.387V0.4505L233.673 0.629V6.205H233.069L229.584 1.1135V5.661L230.298 5.8395V6.205H228.318V5.8395L229.032 5.661V0.629Z" transform="translate(7.23682 53.8892)" fill="white"/>
<path d="M242.071 4.148H239.793L239.274 5.661L239.98 5.8395V6.205H237.991V5.8395L238.688 5.661L240.728 0H241.518L243.533 5.661L244.213 5.8395V6.205H241.875V5.8395L242.572 5.661L242.071 4.148ZM239.963 3.655H241.909L240.991 0.7565H240.957L239.963 3.655Z" transform="translate(7.23682 53.8892)" fill="white"/>
<path d="M249.591 5.695H251.903L252.192 4.2245H252.659V6.205H247.942V5.8395L248.741 5.661V0.629L247.942 0.4505V0.0849999H250.475V0.4505L249.591 0.629V5.695Z" transform="translate(7.23682 53.8892)" fill="white"/>
<path d="M263.679 5.695H265.991L266.28 4.2245H266.747V6.205H262.03V5.8395L262.829 5.661V0.629L262.03 0.4505V0.0849999H264.563V0.4505L263.679 0.629V5.695Z" transform="translate(7.23682 53.8892)" fill="white"/>
<path d="M274.43 4.148H272.152L271.634 5.661L272.339 5.8395V6.205H270.35V5.8395L271.047 5.661L273.087 0H273.878L275.892 5.661L276.572 5.8395V6.205H274.235V5.8395L274.932 5.661L274.43 4.148ZM272.322 3.655H274.269L273.351 0.7565H273.317L272.322 3.655Z" transform="translate(7.23682 53.8892)" fill="white"/>
<path d="M287.045 0.6205L286.373 0.4505V0.0849999H288.32V0.4505L287.614 0.629L285.999 6.205H285.115L283.866 2.1165L282.735 6.205H281.851L280.083 0.629L279.42 0.4505V0.0849999H281.834V0.4505L281.018 0.629L282.421 5.406H282.455L283.611 1.139L283.5 0.629L282.837 0.4505V0.0849999H285.081V0.4505L284.299 0.629L285.693 5.406H285.727L287.045 0.6205Z" transform="translate(7.23682 53.8892)" fill="white"/>
<path d="M296.242 0.629L295.553 0.4505V0.0849999H297.483V0.4505L296.786 0.629L295.052 3.808V5.661L295.851 5.8395V6.205H293.403V5.8395L294.202 5.661V3.944L292.374 0.629L291.669 0.4505V0.0849999H294.015V0.4505L293.301 0.629L294.763 3.349L296.242 0.629Z" transform="translate(7.23682 53.8892)" fill="white"/>
<path d="M304.451 4.182L304.298 3.315H302.887V5.695H305.454L305.717 4.3095H306.21V6.205H301.238V5.8395L302.037 5.661V0.629L301.238 0.4505V0.0849999H306.023V1.887H305.581L305.309 0.578H302.887V2.805H304.298L304.451 1.938H304.884V4.182H304.451Z" transform="translate(7.23682 53.8892)" fill="white"/>
<path d="M314.707 2.958C314.605 3.03733 314.486 3.10533 314.35 3.162C314.214 3.21867 314.046 3.26683 313.848 3.3065C313.95 3.4085 314.063 3.5615 314.188 3.7655L315.319 5.678L316.075 5.8395V6.205H314.324V5.8395L313.1 3.4595H312.063V5.661L312.871 5.8395V6.205H310.499V5.8395L311.213 5.661V0.629L310.499 0.4505V0.0849999H313.423C313.695 0.0849999 313.933 0.1105 314.137 0.1615C314.341 0.2125 314.525 0.294667 314.69 0.408C314.899 0.544 315.061 0.731 315.174 0.969C315.293 1.207 315.353 1.445 315.353 1.683C315.353 1.921 315.293 2.15617 315.174 2.3885C315.061 2.61517 314.905 2.805 314.707 2.958ZM313.279 2.9665C313.59 2.9665 313.848 2.87867 314.052 2.703C314.165 2.601 314.253 2.465 314.315 2.295C314.383 2.11933 314.418 1.93233 314.418 1.734C314.418 1.53567 314.383 1.35717 314.315 1.1985C314.253 1.03417 314.163 0.901 314.044 0.799C313.947 0.719667 313.834 0.663 313.703 0.629C313.579 0.595 313.426 0.578 313.245 0.578H312.063V2.9665H313.279Z" transform="translate(7.23682 53.8892)" fill="white"/>
<g filter="url(#filter0_d)">
<path d="M7.19237 9.18345C7.62827 9.18345 8.03303 9.1205 8.40666 8.99459C8.79586 8.85294 9.09943 8.67195 9.31738 8.45161C9.62874 8.1211 9.8934 7.68829 10.1113 7.15318C10.3293 6.61807 10.4383 6.04361 10.4383 5.4298C10.4383 4.83174 10.3293 4.28876 10.1113 3.80086C9.90896 3.29723 9.64431 2.84868 9.31738 2.45522C9.05273 2.18766 8.7258 1.98306 8.33661 1.84141C7.96298 1.68403 7.55043 1.60533 7.09896 1.60533H4.29674V9.18345H7.19237ZM4.29674 10.5527V15.7228L6.51516 16.2186V17.2337H0V16.2186L1.96155 15.7228V1.74698L0 1.25122V0.236078H7.72946C8.46115 0.236078 9.12278 0.338379 9.71436 0.54298C10.3215 0.731844 10.8275 1.00727 11.2322 1.36926C11.7771 1.87289 12.2052 2.46309 12.5166 3.13984C12.8435 3.8166 13.007 4.53271 13.007 5.28816C13.007 6.07509 12.8357 6.83841 12.4932 7.57812C12.1663 8.30209 11.7304 8.90803 11.1855 9.39592C10.7808 9.75791 10.2748 10.0412 9.66766 10.2458C9.06051 10.4504 8.40666 10.5527 7.70611 10.5527H4.29674Z" transform="translate(4 20.4426)" fill="white"/>
<path d="M7.19237 9.18345C7.62827 9.18345 8.03303 9.1205 8.40666 8.99459C8.79586 8.85294 9.09943 8.67195 9.31738 8.45161C9.62874 8.1211 9.8934 7.68829 10.1113 7.15318C10.3293 6.61807 10.4383 6.04361 10.4383 5.4298C10.4383 4.83174 10.3293 4.28876 10.1113 3.80086C9.90896 3.29723 9.64431 2.84868 9.31738 2.45522C9.05273 2.18766 8.7258 1.98306 8.33661 1.84141C7.96298 1.68403 7.55043 1.60533 7.09896 1.60533H4.29674V9.18345H7.19237ZM4.29674 10.5527V15.7228L6.51516 16.2186V17.2337H0V16.2186L1.96155 15.7228V1.74698L0 1.25122V0.236078H7.72946C8.46115 0.236078 9.12278 0.338379 9.71436 0.54298C10.3215 0.731844 10.8275 1.00727 11.2322 1.36926C11.7771 1.87289 12.2052 2.46309 12.5166 3.13984C12.8435 3.8166 13.007 4.53271 13.007 5.28816C13.007 6.07509 12.8357 6.83841 12.4932 7.57812C12.1663 8.30209 11.7304 8.90803 11.1855 9.39592C10.7808 9.75791 10.2748 10.0412 9.66766 10.2458C9.06051 10.4504 8.40666 10.5527 7.70611 10.5527H4.29674Z" transform="translate(4 20.4426)" fill="url(#paint0_linear)"/>
<path d="M33.1596 8.21553C32.8794 8.43587 32.5525 8.62473 32.1788 8.78212C31.8052 8.9395 31.3459 9.07328 30.8011 9.18345C31.0813 9.46675 31.3927 9.89169 31.7351 10.4583L34.8409 15.77L36.9193 16.2186V17.2337H32.1088V16.2186L28.7461 9.60839H25.8972V15.7228L28.1156 16.2186V17.2337H21.6005V16.2186L23.562 15.7228V1.74698L21.6005 1.25122V0.236078H29.6335C30.3807 0.236078 31.0346 0.306902 31.595 0.448549C32.1555 0.590196 32.6614 0.818406 33.1129 1.13318C33.6889 1.5109 34.1326 2.03028 34.444 2.69129C34.7709 3.35231 34.9343 4.01333 34.9343 4.67435C34.9343 5.33537 34.7709 5.98852 34.444 6.6338C34.1326 7.26335 33.7045 7.79059 33.1596 8.21553ZM29.2365 8.23914C30.0927 8.23914 30.8011 7.99519 31.3615 7.50729C31.6729 7.224 31.9142 6.84628 32.0854 6.37412C32.2722 5.88622 32.3656 5.36685 32.3656 4.816C32.3656 4.26515 32.2722 3.76939 32.0854 3.32871C31.9142 2.87229 31.6651 2.50243 31.3382 2.21914C31.0735 1.9988 30.7622 1.84141 30.4041 1.74698C30.0616 1.65255 29.6413 1.60533 29.1431 1.60533H25.8972V8.23914H29.2365Z" transform="translate(4 20.4426)" fill="white"/>
<path d="M33.1596 8.21553C32.8794 8.43587 32.5525 8.62473 32.1788 8.78212C31.8052 8.9395 31.3459 9.07328 30.8011 9.18345C31.0813 9.46675 31.3927 9.89169 31.7351 10.4583L34.8409 15.77L36.9193 16.2186V17.2337H32.1088V16.2186L28.7461 9.60839H25.8972V15.7228L28.1156 16.2186V17.2337H21.6005V16.2186L23.562 15.7228V1.74698L21.6005 1.25122V0.236078H29.6335C30.3807 0.236078 31.0346 0.306902 31.595 0.448549C32.1555 0.590196 32.6614 0.818406 33.1129 1.13318C33.6889 1.5109 34.1326 2.03028 34.444 2.69129C34.7709 3.35231 34.9343 4.01333 34.9343 4.67435C34.9343 5.33537 34.7709 5.98852 34.444 6.6338C34.1326 7.26335 33.7045 7.79059 33.1596 8.21553ZM29.2365 8.23914C30.0927 8.23914 30.8011 7.99519 31.3615 7.50729C31.6729 7.224 31.9142 6.84628 32.0854 6.37412C32.2722 5.88622 32.3656 5.36685 32.3656 4.816C32.3656 4.26515 32.2722 3.76939 32.0854 3.32871C31.9142 2.87229 31.6651 2.50243 31.3382 2.21914C31.0735 1.9988 30.7622 1.84141 30.4041 1.74698C30.0616 1.65255 29.6413 1.60533 29.1431 1.60533H25.8972V8.23914H29.2365Z" transform="translate(4 20.4426)" fill="url(#paint1_linear)"/>
<path d="M60.3935 8.54604C60.3935 9.93103 60.1911 11.2216 59.7864 12.4177C59.3816 13.6139 58.8056 14.6133 58.0583 15.4159C56.7973 16.7852 54.9992 17.4698 52.664 17.4698C50.2822 17.4698 48.4841 16.8088 47.2698 15.4867C46.5537 14.7313 46.001 13.787 45.6118 12.6538C45.2226 11.5049 45.028 10.2615 45.028 8.92377C45.028 7.53877 45.2304 6.24821 45.6351 5.05208C46.0399 3.85595 46.6159 2.85655 47.3632 2.05388C48.017 1.34565 48.7721 0.826275 49.6283 0.495765C50.5001 0.165255 51.5276 0 52.7108 0C55.0615 0 56.8674 0.66102 58.1284 1.98306C58.8601 2.73851 59.4205 3.69069 59.8097 4.83961C60.1989 5.97278 60.3935 7.20826 60.3935 8.54604ZM47.7135 8.45161C47.7135 9.77365 47.8224 10.9383 48.0404 11.9456C48.2583 12.9528 48.5697 13.7791 48.9745 14.4244C49.7529 15.589 51.0216 16.1714 52.7808 16.1714C54.431 16.1714 55.6453 15.652 56.4237 14.6133C57.2799 13.4329 57.708 11.5206 57.708 8.87655C57.708 7.57025 57.5991 6.42133 57.3811 5.4298C57.1632 4.43827 56.844 3.63561 56.4237 3.0218C55.6142 1.85715 54.3532 1.27482 52.6407 1.27482C51.0061 1.27482 49.7918 1.7942 48.9978 2.83294C48.1416 3.98186 47.7135 5.85475 47.7135 8.45161Z" transform="translate(4 20.4426)" fill="white"/>
<path d="M60.3935 8.54604C60.3935 9.93103 60.1911 11.2216 59.7864 12.4177C59.3816 13.6139 58.8056 14.6133 58.0583 15.4159C56.7973 16.7852 54.9992 17.4698 52.664 17.4698C50.2822 17.4698 48.4841 16.8088 47.2698 15.4867C46.5537 14.7313 46.001 13.787 45.6118 12.6538C45.2226 11.5049 45.028 10.2615 45.028 8.92377C45.028 7.53877 45.2304 6.24821 45.6351 5.05208C46.0399 3.85595 46.6159 2.85655 47.3632 2.05388C48.017 1.34565 48.7721 0.826275 49.6283 0.495765C50.5001 0.165255 51.5276 0 52.7108 0C55.0615 0 56.8674 0.66102 58.1284 1.98306C58.8601 2.73851 59.4205 3.69069 59.8097 4.83961C60.1989 5.97278 60.3935 7.20826 60.3935 8.54604ZM47.7135 8.45161C47.7135 9.77365 47.8224 10.9383 48.0404 11.9456C48.2583 12.9528 48.5697 13.7791 48.9745 14.4244C49.7529 15.589 51.0216 16.1714 52.7808 16.1714C54.431 16.1714 55.6453 15.652 56.4237 14.6133C57.2799 13.4329 57.708 11.5206 57.708 8.87655C57.708 7.57025 57.5991 6.42133 57.3811 5.4298C57.1632 4.43827 56.844 3.63561 56.4237 3.0218C55.6142 1.85715 54.3532 1.27482 52.6407 1.27482C51.0061 1.27482 49.7918 1.7942 48.9978 2.83294C48.1416 3.98186 47.7135 5.85475 47.7135 8.45161Z" transform="translate(4 20.4426)" fill="url(#paint2_linear)"/>
<path d="M78.2093 11.6151L77.789 9.20706H73.9126V15.8173H80.9648L81.6887 11.9692H83.0432V17.2337H69.3823V16.2186L71.5774 15.7228V1.74698L69.3823 1.25122V0.236078H82.5294V5.24094H81.3151L80.5679 1.60533H73.9126V7.79059H77.789L78.2093 5.38259H79.4003V11.6151H78.2093Z" transform="translate(4 20.4426)" fill="white"/>
<path d="M78.2093 11.6151L77.789 9.20706H73.9126V15.8173H80.9648L81.6887 11.9692H83.0432V17.2337H69.3823V16.2186L71.5774 15.7228V1.74698L69.3823 1.25122V0.236078H82.5294V5.24094H81.3151L80.5679 1.60533H73.9126V7.79059H77.789L78.2093 5.38259H79.4003V11.6151H78.2093Z" transform="translate(4 20.4426)" fill="url(#paint3_linear)"/>
<path d="M106.011 0.236078V5.19373H104.797L104.05 1.65255H100.22V15.652L102.695 16.2186V17.2337H95.4096V16.2186L97.8849 15.652V1.65255H94.0318L93.3079 5.19373H92.0936V0.236078H106.011Z" transform="translate(4 20.4426)" fill="white"/>
<path d="M106.011 0.236078V5.19373H104.797L104.05 1.65255H100.22V15.652L102.695 16.2186V17.2337H95.4096V16.2186L97.8849 15.652V1.65255H94.0318L93.3079 5.19373H92.0936V0.236078H106.011Z" transform="translate(4 20.4426)" fill="url(#paint4_linear)"/>
<path d="M128.387 0.236078V5.19373H127.173L126.426 1.65255H122.596V15.652L125.071 16.2186V17.2337H117.785V16.2186L120.261 15.652V1.65255H116.408L115.684 5.19373H114.469V0.236078H128.387Z" transform="translate(4 20.4426)" fill="white"/>
<path d="M128.387 0.236078V5.19373H127.173L126.426 1.65255H122.596V15.652L125.071 16.2186V17.2337H117.785V16.2186L120.261 15.652V1.65255H116.408L115.684 5.19373H114.469V0.236078H128.387Z" transform="translate(4 20.4426)" fill="url(#paint5_linear)"/>
<path d="M145.89 11.5206H139.631L138.207 15.7228L140.145 16.2186V17.2337H134.681V16.2186L136.596 15.7228L142.2 0H144.372L149.906 15.7228L151.774 16.2186V17.2337H145.353V16.2186L147.267 15.7228L145.89 11.5206ZM140.098 10.1514H145.446L142.924 2.1011H142.831L140.098 10.1514Z" transform="translate(4 20.4426)" fill="white"/>
<path d="M145.89 11.5206H139.631L138.207 15.7228L140.145 16.2186V17.2337H134.681V16.2186L136.596 15.7228L142.2 0H144.372L149.906 15.7228L151.774 16.2186V17.2337H145.353V16.2186L147.267 15.7228L145.89 11.5206ZM140.098 10.1514H145.446L142.924 2.1011H142.831L140.098 10.1514Z" transform="translate(4 20.4426)" fill="url(#paint6_linear)"/>
<path d="M213.289 8.54604C213.289 9.93103 213.086 11.2216 212.682 12.4177C212.277 13.6139 211.701 14.6133 210.954 15.4159C209.693 16.7852 207.894 17.4698 205.559 17.4698C203.177 17.4698 201.379 16.8088 200.165 15.4867C199.449 14.7313 198.896 13.787 198.507 12.6538C198.118 11.5049 197.923 10.2615 197.923 8.92377C197.923 7.53877 198.126 6.24821 198.53 5.05208C198.935 3.85595 199.511 2.85655 200.258 2.05388C200.912 1.34565 201.667 0.826275 202.524 0.495765C203.395 0.165255 204.423 0 205.606 0C207.957 0 209.763 0.66102 211.024 1.98306C211.755 2.73851 212.316 3.69069 212.705 4.83961C213.094 5.97278 213.289 7.20826 213.289 8.54604ZM200.609 8.45161C200.609 9.77365 200.718 10.9383 200.936 11.9456C201.154 12.9528 201.465 13.7791 201.87 14.4244C202.648 15.589 203.917 16.1714 205.676 16.1714C207.326 16.1714 208.541 15.652 209.319 14.6133C210.175 13.4329 210.603 11.5206 210.603 8.87655C210.603 7.57025 210.494 6.42133 210.276 5.4298C210.058 4.43827 209.739 3.63561 209.319 3.0218C208.509 1.85715 207.248 1.27482 205.536 1.27482C203.901 1.27482 202.687 1.7942 201.893 2.83294C201.037 3.98186 200.609 5.85475 200.609 8.45161Z" transform="translate(4 20.4426)" fill="white"/>
<path d="M213.289 8.54604C213.289 9.93103 213.086 11.2216 212.682 12.4177C212.277 13.6139 211.701 14.6133 210.954 15.4159C209.693 16.7852 207.894 17.4698 205.559 17.4698C203.177 17.4698 201.379 16.8088 200.165 15.4867C199.449 14.7313 198.896 13.787 198.507 12.6538C198.118 11.5049 197.923 10.2615 197.923 8.92377C197.923 7.53877 198.126 6.24821 198.53 5.05208C198.935 3.85595 199.511 2.85655 200.258 2.05388C200.912 1.34565 201.667 0.826275 202.524 0.495765C203.395 0.165255 204.423 0 205.606 0C207.957 0 209.763 0.66102 211.024 1.98306C211.755 2.73851 212.316 3.69069 212.705 4.83961C213.094 5.97278 213.289 7.20826 213.289 8.54604ZM200.609 8.45161C200.609 9.77365 200.718 10.9383 200.936 11.9456C201.154 12.9528 201.465 13.7791 201.87 14.4244C202.648 15.589 203.917 16.1714 205.676 16.1714C207.326 16.1714 208.541 15.652 209.319 14.6133C210.175 13.4329 210.603 11.5206 210.603 8.87655C210.603 7.57025 210.494 6.42133 210.276 5.4298C210.058 4.43827 209.739 3.63561 209.319 3.0218C208.509 1.85715 207.248 1.27482 205.536 1.27482C203.901 1.27482 202.687 1.7942 201.893 2.83294C201.037 3.98186 200.609 5.85475 200.609 8.45161Z" transform="translate(4 20.4426)" fill="url(#paint7_linear)"/>
<path d="M226.808 15.8173H233.16L233.954 11.7331H235.238V17.2337H222.278V16.2186L224.473 15.7228V1.74698L222.278 1.25122V0.236078H229.236V1.25122L226.808 1.74698V15.8173Z" transform="translate(4 20.4426)" fill="white"/>
<path d="M226.808 15.8173H233.16L233.954 11.7331H235.238V17.2337H222.278V16.2186L224.473 15.7228V1.74698L222.278 1.25122V0.236078H229.236V1.25122L226.808 1.74698V15.8173Z" transform="translate(4 20.4426)" fill="url(#paint8_linear)"/>
<path d="M248.499 15.7228L250.695 16.2186V17.2337H243.969V16.2186L246.164 15.7228V1.74698L243.969 1.25122V0.236078H250.695V1.25122L248.499 1.74698V15.7228Z" transform="translate(4 20.4426)" fill="white"/>
<path d="M248.499 15.7228L250.695 16.2186V17.2337H243.969V16.2186L246.164 15.7228V1.74698L243.969 1.25122V0.236078H250.695V1.25122L248.499 1.74698V15.7228Z" transform="translate(4 20.4426)" fill="url(#paint9_linear)"/>
<path d="M267.508 15.2743H267.602L271.945 1.74698L270.007 1.25122V0.236078H275.471V1.25122L273.557 1.74698L268.326 17.2337H266.037L260.363 1.74698L258.495 1.25122V0.236078H264.8V1.25122L262.885 1.74698L267.508 15.2743Z" transform="translate(4 20.4426)" fill="white"/>
<path d="M267.508 15.2743H267.602L271.945 1.74698L270.007 1.25122V0.236078H275.471V1.25122L273.557 1.74698L268.326 17.2337H266.037L260.363 1.74698L258.495 1.25122V0.236078H264.8V1.25122L262.885 1.74698L267.508 15.2743Z" transform="translate(4 20.4426)" fill="url(#paint10_linear)"/>
<path d="M292.257 11.6151L291.837 9.20706H287.96V15.8173H295.013L295.737 11.9692H297.091V17.2337H283.43V16.2186L285.625 15.7228V1.74698L283.43 1.25122V0.236078H296.577V5.24094H295.363L294.616 1.60533H287.96V7.79059H291.837L292.257 5.38259H293.448V11.6151H292.257Z" transform="translate(4 20.4426)" fill="white"/>
<path d="M292.257 11.6151L291.837 9.20706H287.96V15.8173H295.013L295.737 11.9692H297.091V17.2337H283.43V16.2186L285.625 15.7228V1.74698L283.43 1.25122V0.236078H296.577V5.24094H295.363L294.616 1.60533H287.96V7.79059H291.837L292.257 5.38259H293.448V11.6151H292.257Z" transform="translate(4 20.4426)" fill="url(#paint11_linear)"/>
<path d="M318.098 8.21553C317.817 8.43587 317.491 8.62473 317.117 8.78212C316.743 8.9395 316.284 9.07328 315.739 9.18345C316.019 9.46675 316.331 9.89169 316.673 10.4583L319.779 15.77L321.857 16.2186V17.2337H317.047V16.2186L313.684 9.60839H310.835V15.7228L313.054 16.2186V17.2337H306.538V16.2186L308.5 15.7228V1.74698L306.538 1.25122V0.236078H314.572C315.319 0.236078 315.973 0.306902 316.533 0.448549C317.094 0.590196 317.599 0.818406 318.051 1.13318C318.627 1.5109 319.071 2.03028 319.382 2.69129C319.709 3.35231 319.872 4.01333 319.872 4.67435C319.872 5.33537 319.709 5.98852 319.382 6.6338C319.071 7.26335 318.643 7.79059 318.098 8.21553ZM314.175 8.23914C315.031 8.23914 315.739 7.99519 316.3 7.50729C316.611 7.224 316.852 6.84628 317.023 6.37412C317.21 5.88622 317.304 5.36685 317.304 4.816C317.304 4.26515 317.21 3.76939 317.023 3.32871C316.852 2.87229 316.603 2.50243 316.276 2.21914C316.012 1.9988 315.7 1.84141 315.342 1.74698C315 1.65255 314.579 1.60533 314.081 1.60533H310.835V8.23914H314.175Z" transform="translate(4 20.4426)" fill="white"/>
<path d="M318.098 8.21553C317.817 8.43587 317.491 8.62473 317.117 8.78212C316.743 8.9395 316.284 9.07328 315.739 9.18345C316.019 9.46675 316.331 9.89169 316.673 10.4583L319.779 15.77L321.857 16.2186V17.2337H317.047V16.2186L313.684 9.60839H310.835V15.7228L313.054 16.2186V17.2337H306.538V16.2186L308.5 15.7228V1.74698L306.538 1.25122V0.236078H314.572C315.319 0.236078 315.973 0.306902 316.533 0.448549C317.094 0.590196 317.599 0.818406 318.051 1.13318C318.627 1.5109 319.071 2.03028 319.382 2.69129C319.709 3.35231 319.872 4.01333 319.872 4.67435C319.872 5.33537 319.709 5.98852 319.382 6.6338C319.071 7.26335 318.643 7.79059 318.098 8.21553ZM314.175 8.23914C315.031 8.23914 315.739 7.99519 316.3 7.50729C316.611 7.224 316.852 6.84628 317.023 6.37412C317.21 5.88622 317.304 5.36685 317.304 4.816C317.304 4.26515 317.21 3.76939 317.023 3.32871C316.852 2.87229 316.603 2.50243 316.276 2.21914C316.012 1.9988 315.7 1.84141 315.342 1.74698C315 1.65255 314.579 1.60533 314.081 1.60533H310.835V8.23914H314.175Z" transform="translate(4 20.4426)" fill="url(#paint12_linear)"/>
</g>
<path d="M12.2288 43.48C8.83681 43.48 6.21281 42.616 4.35681 40.888C2.50081 39.128 1.57281 36.728 1.57281 33.688C1.57281 31.288 2.51681 29.08 4.40481 27.064C6.32481 25.016 8.67681 23.448 11.4608 22.36C11.2368 21.08 11.1248 19.928 11.1248 18.904C11.1248 16.216 11.8928 13.976 13.4288 12.184C14.9968 10.36 17.0128 9.448 19.4768 9.448C21.2048 9.448 22.6128 9.976 23.7008 11.032C24.8208 12.088 25.3808 13.448 25.3808 15.112C25.3808 16.776 24.7568 18.28 23.5088 19.624C22.2608 20.936 20.2288 21.64 17.4128 21.736C19.8448 23.016 22.6768 23.656 25.9088 23.656C27.8928 23.656 29.9088 22.92 31.9568 21.448C32.8848 20.776 33.6208 20.44 34.1648 20.44C34.9008 20.44 35.2688 20.84 35.2688 21.64C35.2688 22.152 34.9488 22.632 34.3088 23.08C33.7008 23.496 32.9168 23.832 31.9568 24.088C30.1008 24.536 28.4688 24.792 27.0608 24.856C26.9648 29.432 26.1008 33.256 24.4688 36.328C26.2928 37.832 28.4048 39.224 30.8048 40.504C33.2368 41.752 35.3968 42.392 37.2848 42.424L37.3808 43H30.1328C28.0848 42.552 25.6208 41.192 22.7408 38.92C20.1488 41.96 16.6448 43.48 12.2288 43.48ZM12.9488 42.04C16.8528 42.04 19.7168 40.68 21.5408 37.96C19.1728 35.976 17.0928 33.704 15.3008 31.144C13.5088 28.584 12.2768 25.896 11.6048 23.08C7.47681 25.416 5.41281 28.968 5.41281 33.736C5.41281 36.36 6.13281 38.408 7.57281 39.88C9.04481 41.32 10.8368 42.04 12.9488 42.04ZM19.1888 10.312C17.8768 10.312 16.7728 11.096 15.8768 12.664C15.0128 14.2 14.5808 16.168 14.5808 18.568C14.5808 20.968 15.2688 23.656 16.6448 26.632C18.0208 29.608 20.1488 32.424 23.0288 35.08C24.2448 32.136 24.8848 28.712 24.9488 24.808C21.7808 24.52 19.0608 23.496 16.7888 21.736V21.304C18.3568 21.304 19.6688 20.728 20.7248 19.576C21.8128 18.392 22.3568 17.032 22.3568 15.496C22.3568 13.96 22.0688 12.712 21.4928 11.752C20.9488 10.792 20.1808 10.312 19.1888 10.312Z" transform="translate(160.551)" fill="#C4C4C4"/>
<path d="M12.2288 43.48C8.83681 43.48 6.21281 42.616 4.35681 40.888C2.50081 39.128 1.57281 36.728 1.57281 33.688C1.57281 31.288 2.51681 29.08 4.40481 27.064C6.32481 25.016 8.67681 23.448 11.4608 22.36C11.2368 21.08 11.1248 19.928 11.1248 18.904C11.1248 16.216 11.8928 13.976 13.4288 12.184C14.9968 10.36 17.0128 9.448 19.4768 9.448C21.2048 9.448 22.6128 9.976 23.7008 11.032C24.8208 12.088 25.3808 13.448 25.3808 15.112C25.3808 16.776 24.7568 18.28 23.5088 19.624C22.2608 20.936 20.2288 21.64 17.4128 21.736C19.8448 23.016 22.6768 23.656 25.9088 23.656C27.8928 23.656 29.9088 22.92 31.9568 21.448C32.8848 20.776 33.6208 20.44 34.1648 20.44C34.9008 20.44 35.2688 20.84 35.2688 21.64C35.2688 22.152 34.9488 22.632 34.3088 23.08C33.7008 23.496 32.9168 23.832 31.9568 24.088C30.1008 24.536 28.4688 24.792 27.0608 24.856C26.9648 29.432 26.1008 33.256 24.4688 36.328C26.2928 37.832 28.4048 39.224 30.8048 40.504C33.2368 41.752 35.3968 42.392 37.2848 42.424L37.3808 43H30.1328C28.0848 42.552 25.6208 41.192 22.7408 38.92C20.1488 41.96 16.6448 43.48 12.2288 43.48ZM12.9488 42.04C16.8528 42.04 19.7168 40.68 21.5408 37.96C19.1728 35.976 17.0928 33.704 15.3008 31.144C13.5088 28.584 12.2768 25.896 11.6048 23.08C7.47681 25.416 5.41281 28.968 5.41281 33.736C5.41281 36.36 6.13281 38.408 7.57281 39.88C9.04481 41.32 10.8368 42.04 12.9488 42.04ZM19.1888 10.312C17.8768 10.312 16.7728 11.096 15.8768 12.664C15.0128 14.2 14.5808 16.168 14.5808 18.568C14.5808 20.968 15.2688 23.656 16.6448 26.632C18.0208 29.608 20.1488 32.424 23.0288 35.08C24.2448 32.136 24.8848 28.712 24.9488 24.808C21.7808 24.52 19.0608 23.496 16.7888 21.736V21.304C18.3568 21.304 19.6688 20.728 20.7248 19.576C21.8128 18.392 22.3568 17.032 22.3568 15.496C22.3568 13.96 22.0688 12.712 21.4928 11.752C20.9488 10.792 20.1808 10.312 19.1888 10.312Z" transform="translate(160.551)" fill="url(#paint13_linear)"/>
<defs>
<filter id="filter0_d" x="0" y="20.4426" width="329.857" height="25.4698" filterUnits="userSpaceOnUse" color-interpolation-filters="sRGB">
<feFlood flood-opacity="0" result="BackgroundImageFix"/>
<feColorMatrix in="SourceAlpha" type="matrix" values="0 0 0 0 0 0 0 0 0 0 0 0 0 0 0 0 0 0 255 0"/>
<feOffset dy="4"/>
<feGaussianBlur stdDeviation="2"/>
<feColorMatrix type="matrix" values="0 0 0 0 0 0 0 0 0 0 0 0 0 0 0 0 0 0 0.06 0"/>
<feBlend mode="normal" in2="BackgroundImageFix" result="effect1_dropShadow"/>
<feBlend mode="normal" in="SourceGraphic" in2="effect1_dropShadow" result="shape"/>
</filter>
<linearGradient id="paint0_linear" x2="1" gradientUnits="userSpaceOnUse" gradientTransform="translate(329.061 -3.91496) scale(330.331 27.0507) rotate(90)">
<stop stop-color="white"/>
<stop offset="1" stop-color="#ABAFB3"/>
</linearGradient>
<linearGradient id="paint1_linear" x2="1" gradientUnits="userSpaceOnUse" gradientTransform="translate(329.061 -3.91496) scale(330.331 27.0507) rotate(90)">
<stop stop-color="white"/>
<stop offset="1" stop-color="#ABAFB3"/>
</linearGradient>
<linearGradient id="paint2_linear" x2="1" gradientUnits="userSpaceOnUse" gradientTransform="translate(329.061 -3.91496) scale(330.331 27.0507) rotate(90)">
<stop stop-color="white"/>
<stop offset="1" stop-color="#ABAFB3"/>
</linearGradient>
<linearGradient id="paint3_linear" x2="1" gradientUnits="userSpaceOnUse" gradientTransform="translate(329.061 -3.91496) scale(330.331 27.0507) rotate(90)">
<stop stop-color="white"/>
<stop offset="1" stop-color="#ABAFB3"/>
</linearGradient>
<linearGradient id="paint4_linear" x2="1" gradientUnits="userSpaceOnUse" gradientTransform="translate(329.061 -3.91496) scale(330.331 27.0507) rotate(90)">
<stop stop-color="white"/>
<stop offset="1" stop-color="#ABAFB3"/>
</linearGradient>
<linearGradient id="paint5_linear" x2="1" gradientUnits="userSpaceOnUse" gradientTransform="translate(329.061 -3.91496) scale(330.331 27.0507) rotate(90)">
<stop stop-color="white"/>
<stop offset="1" stop-color="#ABAFB3"/>
</linearGradient>
<linearGradient id="paint6_linear" x2="1" gradientUnits="userSpaceOnUse" gradientTransform="translate(329.061 -3.91496) scale(330.331 27.0507) rotate(90)">
<stop stop-color="white"/>
<stop offset="1" stop-color="#ABAFB3"/>
</linearGradient>
<linearGradient id="paint7_linear" x2="1" gradientUnits="userSpaceOnUse" gradientTransform="translate(329.061 -3.91496) scale(330.331 27.0507) rotate(90)">
<stop stop-color="white"/>
<stop offset="1" stop-color="#ABAFB3"/>
</linearGradient>
<linearGradient id="paint8_linear" x2="1" gradientUnits="userSpaceOnUse" gradientTransform="translate(329.061 -3.91496) scale(330.331 27.0507) rotate(90)">
<stop stop-color="white"/>
<stop offset="1" stop-color="#ABAFB3"/>
</linearGradient>
<linearGradient id="paint9_linear" x2="1" gradientUnits="userSpaceOnUse" gradientTransform="translate(329.061 -3.91496) scale(330.331 27.0507) rotate(90)">
<stop stop-color="white"/>
<stop offset="1" stop-color="#ABAFB3"/>
</linearGradient>
<linearGradient id="paint10_linear" x2="1" gradientUnits="userSpaceOnUse" gradientTransform="translate(329.061 -3.91496) scale(330.331 27.0507) rotate(90)">
<stop stop-color="white"/>
<stop offset="1" stop-color="#ABAFB3"/>
</linearGradient>
<linearGradient id="paint11_linear" x2="1" gradientUnits="userSpaceOnUse" gradientTransform="translate(329.061 -3.91496) scale(330.331 27.0507) rotate(90)">
<stop stop-color="white"/>
<stop offset="1" stop-color="#ABAFB3"/>
</linearGradient>
<linearGradient id="paint12_linear" x2="1" gradientUnits="userSpaceOnUse" gradientTransform="translate(329.061 -3.91496) scale(330.331 27.0507) rotate(90)">
<stop stop-color="white"/>
<stop offset="1" stop-color="#ABAFB3"/>
</linearGradient>
<linearGradient id="paint13_linear" x2="1" gradientUnits="userSpaceOnUse" gradientTransform="translate(38) scale(38 57) rotate(90)">
<stop stop-color="#879196"/>
<stop offset="1" stop-color="#5A6266"/>
</linearGradient>
</defs>
</svg>
