<svg width="24" height="24" viewBox="0 0 24 24" fill="none" xmlns="http://www.w3.org/2000/svg">
<path fill-rule="evenodd" clip-rule="evenodd" d="M12 24C18.6274 24 24 18.6274 24 12C24 5.37258 18.6274 0 12 0C5.37258 0 0 5.37258 0 12C0 18.6274 5.37258 24 12 24Z" fill="#CE0B24"/>
<path fill-rule="evenodd" clip-rule="evenodd" d="M10.1052 1.55222C10.5906 1.24589 10.9631 0.760154 11.1379 0.181529C10.6834 0.465878 10.1811 0.671517 9.6453 0.782845C9.21769 0.300658 8.60654 0 7.93017 0C6.63257 0 5.58104 1.10974 5.58104 2.4783C5.58104 2.67259 5.60054 2.86192 5.64088 3.04274C3.68842 2.93921 1.95716 1.95357 0.797388 0.453114C0.595015 0.820427 0.479374 1.24589 0.479374 1.69971C0.479374 2.55914 0.894204 3.31787 1.52485 3.76319C1.13961 3.75042 0.777218 3.63768 0.459876 3.45331V3.4838C0.459876 4.68502 1.26937 5.68697 2.34577 5.91388C2.14811 5.97203 1.94103 6.0011 1.72588 6.0011C1.5746 6.0011 1.42669 5.98621 1.28416 5.95714C1.58267 6.94137 2.45066 7.65898 3.47933 7.67812C2.67454 8.34326 1.66134 8.73893 0.560726 8.73893C0.371128 8.73893 0.183547 8.7283 0 8.7049C1.0401 9.40761 2.27518 9.81818 3.60236 9.81818C7.92547 9.81818 10.288 6.04152 10.288 2.76619C10.288 2.65841 10.2867 2.55134 10.282 2.44568C10.7412 2.0961 11.1406 1.65929 11.4545 1.16221C11.033 1.35934 10.5798 1.49265 10.1052 1.55222Z" transform="translate(6.46155 7.38477)" fill="white"/>
</svg>
