<svg width="4" height="16" viewBox="0 0 4 16" fill="none" xmlns="http://www.w3.org/2000/svg">
<path d="M2.27027 10.7044H1.74174C1.68569 9.84441 1.5015 8.80339 1.18919 7.58133L0.564565 5.11457C0.188188 3.63602 0 2.57614 0 1.93494C0 1.35408 0.184184 0.886374 0.552553 0.531825C0.920921 0.177275 1.4014 0 1.99399 0C2.57057 0 3.04705 0.181047 3.42342 0.54314C3.80781 0.89769 4 1.35031 4 1.90099C4 2.4743 3.7998 3.5455 3.3994 5.11457L2.76276 7.58133C2.53854 8.45639 2.37437 9.49741 2.27027 10.7044ZM2.01802 12.3225C2.55455 12.3225 3.01101 12.5035 3.38739 12.8656C3.77177 13.2202 3.96396 13.6539 3.96396 14.1669C3.96396 14.6723 3.77177 15.1061 3.38739 15.4682C3.01101 15.8227 2.55455 16 2.01802 16C1.48148 16 1.02102 15.8227 0.636637 15.4682C0.26026 15.1061 0.0720721 14.6723 0.0720721 14.1669C0.0720721 13.6615 0.26026 13.2277 0.636637 12.8656C1.01301 12.5035 1.47347 12.3225 2.01802 12.3225Z" fill="#A8A8A8"/>
</svg>
