<svg width="28" height="25" viewBox="0 0 28 25" fill="none" xmlns="http://www.w3.org/2000/svg">
<path d="M3.49127 -2.60507e-08C1.56615 -2.60507e-08 -1.60218e-07 1.52794 -1.60218e-07 3.40598C-1.60218e-07 5.28402 1.5662 6.81196 3.49127 6.81196C5.41634 6.81196 6.98254 5.28402 6.98254 3.40598C6.98254 1.52794 5.41634 -2.60507e-08 3.49127 -2.60507e-08ZM3.49127 4.76837C2.7211 4.76837 2.09476 4.15733 2.09476 3.40598C2.09476 2.65463 2.7211 2.04359 3.49127 2.04359C4.26144 2.04359 4.88778 2.65463 4.88778 3.40598C4.88778 4.15733 4.26144 4.76837 3.49127 4.76837Z" transform="translate(18.6787 18.188)" fill="white"/>
<path d="M27.7774 5.02414C27.5791 4.77654 27.275 4.63211 26.9528 4.63211H6.4652L5.52254 0.784379C5.40978 0.324593 4.98835 5.95989e-10 4.50376 5.95989e-10H1.04738C0.468894 -5.33512e-05 0 0.457385 0 1.02174C0 1.5861 0.468894 2.04354 1.04738 2.04354H3.67705L7.08104 15.9386C7.1938 16.3988 7.61523 16.723 8.09982 16.723H24.4042C24.8856 16.723 25.3053 16.4029 25.4208 15.9471L27.9695 5.89943C28.0466 5.59431 27.9757 5.27175 27.7774 5.02414ZM23.5847 14.6795H8.92653L6.96581 6.6757H25.6145L23.5847 14.6795Z" fill="white"/>
<path d="M3.49127 -2.60507e-08C1.56615 -2.60507e-08 -1.33515e-08 1.52794 -1.33515e-08 3.40598C-1.33515e-08 5.28402 1.5662 6.81196 3.49127 6.81196C5.41634 6.81196 6.98254 5.28402 6.98254 3.40598C6.98254 1.52794 5.41634 -2.60507e-08 3.49127 -2.60507e-08ZM3.49127 4.76837C2.7211 4.76837 2.09476 4.15733 2.09476 3.40598C2.09476 2.65463 2.7211 2.04359 3.49127 2.04359C4.26144 2.04359 4.88778 2.65463 4.88778 3.40598C4.88778 4.15733 4.26144 4.76837 3.49127 4.76837Z" transform="translate(7 18.188)" fill="white"/>
</svg>
