<svg width="21" height="12" viewBox="0 0 21 12" fill="none" xmlns="http://www.w3.org/2000/svg">
<path d="M18.063 3.73288L18.0631 3.73294C18.7111 4.03002 19.129 4.6825 19.125 5.39805V5.39765H19L19.125 5.39838L18.063 3.73288ZM18.063 3.73288L16.5709 3.05086M18.063 3.73288L16.5709 3.05086M16.5709 3.05086L15.2437 0.931509L16.5709 3.05086ZM5.78752 0.76208L5.78755 0.762043C6.2164 0.200693 6.88405 -0.12497 7.58831 -0.12497H13.3269H13.3272V2.99364e-05L5.78752 0.76208ZM5.78752 0.76208L4.07276 3.00839L1.21286 3.79227L1.21271 3.79231M5.78752 0.76208L1.21271 3.79231M1.21271 3.79231C0.422194 4.01001 -0.125 4.73387 -0.125 5.55354V6.66424C-0.125 7.66976 0.675796 8.50401 1.68586 8.50401H1.84038C2.19544 9.67178 3.4106 10.3603 4.60229 10.0511L4.60255 10.051M1.21271 3.79231L4.60255 10.051M4.60255 10.051C5.3736 9.84917 5.98569 9.26312 6.21533 8.50401M4.60255 10.051L6.21533 8.50401M0.774794 5.55354V6.66424C0.774794 7.17478 1.17192 7.59957 1.68196 7.59957H1.87664C1.98565 6.59409 2.77991 5.79517 3.78831 5.68604L0.774794 5.55354ZM0.774794 5.55354C0.7709 5.13654 1.04733 4.7741 1.44836 4.66108L0.774794 5.55354ZM6.21533 8.50401H12.5668H6.21533ZM16.9418 8.50401C16.9511 8.47297 16.9599 8.44164 16.968 8.41003L16.8469 8.37901V8.50401H16.9418ZM5.28298 7.8295L5.28298 7.83015C5.28652 8.51985 4.72444 9.08426 4.02555 9.08801C3.33171 9.08787 2.76864 8.52435 2.76864 7.8295C2.76864 7.13457 3.33185 6.571 4.02581 6.571C4.71978 6.571 5.28298 7.13457 5.28298 7.8295ZM16.0094 7.8295L16.0094 7.83015C16.0129 8.51985 15.4509 9.08426 14.752 9.08801C14.0581 9.08787 13.4951 8.52435 13.4951 7.8295C13.4951 7.13457 14.0583 6.571 14.7522 6.571C15.4462 6.571 16.0094 7.13457 16.0094 7.8295ZM6.28447 7.47457C6.09567 6.2755 4.9933 5.42592 3.77466 5.56179C2.74527 5.67328 1.92712 6.46396 1.76722 7.47457H1.68196C1.24585 7.47457 0.899794 7.11073 0.899794 6.66424L0.899799 5.55354L0.899788 5.55237C0.896432 5.1929 1.1344 4.87965 1.48181 4.78152C1.48196 4.78148 1.48211 4.78144 1.48227 4.78139L4.51434 3.95154L4.51435 3.95155L4.51572 3.95116C4.61979 3.9214 4.71869 3.8606 4.78804 3.76523L6.60068 1.38626C6.60081 1.38611 6.60093 1.38595 6.60106 1.38579C6.8381 1.08152 7.20246 0.90447 7.58831 0.90447L13.3272 0.904474L13.3283 0.904465C13.7528 0.900924 14.1515 1.117 14.3733 1.47646L14.3737 1.47712L15.7823 3.72835C15.8363 3.81927 15.9192 3.88497 16.0033 3.92458L16.0045 3.92517L17.6313 4.66921C17.6314 4.66927 17.6315 4.66932 17.6317 4.66937C17.9147 4.80107 18.0958 5.08391 18.0924 5.39631V5.39765V6.66424V6.74591C18.0532 7.15426 17.7233 7.47457 17.3141 7.47457H17.0109C16.8221 6.2755 15.7197 5.42592 14.5011 5.56179C13.4717 5.67328 12.6535 6.46396 12.4936 7.47457H6.28447Z" transform="translate(20 1) scale(-1 1)" fill="#042567" stroke="#042567" stroke-width="0.25"/>
</svg>
