<svg width="16" height="15" viewBox="0 0 16 15" fill="none" xmlns="http://www.w3.org/2000/svg">
<path d="M1.99501 -1.563e-08C0.894943 -1.563e-08 -9.15533e-08 0.916739 -9.15533e-08 2.04353C-9.15533e-08 3.17032 0.894974 4.08706 1.99501 4.08706C3.09505 4.08706 3.99002 3.17032 3.99002 2.04353C3.99002 0.916739 3.09505 -1.563e-08 1.99501 -1.563e-08ZM1.99501 2.86094C1.55492 2.86094 1.19701 2.49433 1.19701 2.04353C1.19701 1.59273 1.55492 1.22612 1.99501 1.22612C2.43511 1.22612 2.79302 1.59273 2.79302 2.04353C2.79302 2.49433 2.43511 2.86094 1.99501 2.86094Z" transform="translate(10.6738 10.9131)" fill="#042567"/>
<path d="M15.8728 3.0144C15.7595 2.86584 15.5857 2.77919 15.4016 2.77919H3.6944L3.15574 0.470613C3.0913 0.19475 2.85049 3.57583e-10 2.57358 3.57583e-10H0.598504C0.267939 -3.20098e-05 0 0.274423 0 0.613026C0 0.95163 0.267939 1.22609 0.598504 1.22609H2.10117L4.04631 9.56291C4.11074 9.83899 4.35156 10.0335 4.62847 10.0335H13.9452C14.2204 10.0335 14.4602 9.84143 14.5262 9.568L15.9826 3.53956C16.0266 3.35649 15.9861 3.16296 15.8728 3.0144ZM13.477 8.80744H5.10088L3.98046 4.0053H14.6369L13.477 8.80744Z" fill="#042567"/>
<path d="M1.99501 -1.563e-08C0.894943 -1.563e-08 -7.62944e-09 0.916739 -7.62944e-09 2.04353C-7.62944e-09 3.17032 0.894974 4.08706 1.99501 4.08706C3.09505 4.08706 3.99002 3.17032 3.99002 2.04353C3.99002 0.916739 3.09505 -1.563e-08 1.99501 -1.563e-08ZM1.99501 2.86094C1.55492 2.86094 1.19701 2.49433 1.19701 2.04353C1.19701 1.59273 1.55492 1.22612 1.99501 1.22612C2.43511 1.22612 2.79302 1.59273 2.79302 2.04353C2.79302 2.49433 2.43511 2.86094 1.99501 2.86094Z" transform="translate(4 10.9131)" fill="#042567"/>
</svg>
