<svg width="30" height="30" viewBox="0 0 30 30" fill="none" xmlns="http://www.w3.org/2000/svg">
<circle cx="15" cy="15" r="14.5" stroke="white"/>
<path d="M11.375 6.3C11.375 8.8036 9.96822 11.5959 8.47997 13.8283C7.74532 14.9303 7.00958 15.8685 6.45736 16.5311C6.28481 16.7382 6.13046 16.918 6 17.0672C5.86954 16.918 5.71519 16.7382 5.54264 16.5311C4.99042 15.8685 4.25468 14.9303 3.52003 13.8283C2.03178 11.5959 0.625 8.8036 0.625 6.3C0.625 3.1367 3.05985 0.625 6 0.625C8.94015 0.625 11.375 3.1367 11.375 6.3Z" transform="translate(9 6)" stroke="#042567" stroke-width="1.25"/>
<circle cx="3" cy="3" r="2.375" transform="translate(12 10)" stroke="#042567" stroke-width="1.25"/>
</svg>
