<svg width="23" height="24" viewBox="0 0 23 24" fill="none" xmlns="http://www.w3.org/2000/svg">
<path d="M22.9979 21.7046L22.7925 17.8434C22.6989 16.3616 21.7416 15.0847 20.3535 14.5906L15.622 12.9061C15.4044 12.8286 15.1582 12.8848 14.995 13.0495L14.8433 13.2025L13.8132 12.6816L13.8131 11.765C14.8043 11.0945 15.5976 9.94497 15.8138 8.80417C15.8161 8.79245 15.818 8.78083 15.8201 8.76911C15.8271 8.7303 15.8336 8.69149 15.8392 8.65272C15.8446 8.61625 15.8494 8.57983 15.8535 8.5435C15.8552 8.52817 15.8565 8.51289 15.858 8.49761C15.8617 8.45959 15.8647 8.42172 15.8671 8.38399C15.8677 8.37353 15.8684 8.36308 15.869 8.35263C15.8695 8.3425 15.8704 8.33233 15.8708 8.32225H16.1252C16.624 8.32225 17.0298 7.9135 17.0298 7.41109V6.29561C17.0298 6.24353 17.0254 6.19215 17.0168 6.14162C17.0251 6.11209 17.0298 6.08106 17.0298 6.04886C17.0298 5.74337 16.9785 5.44993 16.8855 5.17585V3.96301C16.8854 1.77778 15.1206 0 12.9513 0H10.0486C7.87932 0 6.11448 1.77778 6.11448 3.96301V5.17585C6.02141 5.44998 5.97017 5.74342 5.97017 6.04886C5.97017 6.08106 5.97492 6.11209 5.98316 6.14162C5.97455 6.19215 5.97017 6.24353 5.97017 6.29561V7.41109C5.97017 7.9135 6.37595 8.32225 6.8747 8.32225H7.12882C7.12929 8.33453 7.13031 8.34691 7.13096 8.35923C7.13147 8.36974 7.13212 8.38019 7.13278 8.39069C7.13515 8.42978 7.13827 8.46897 7.14218 8.5083C7.14343 8.52105 7.14446 8.53375 7.14585 8.54655C7.15078 8.59117 7.15655 8.63589 7.16335 8.68075C7.16716 8.7062 7.17186 8.7317 7.17628 8.75725C7.17959 8.77614 7.18285 8.79499 7.18648 8.81388C7.19262 8.84613 7.19923 8.87838 7.20625 8.91063C7.2076 8.91677 7.20909 8.92295 7.21044 8.9291C7.45698 10.0306 8.22986 11.1263 9.18673 11.7741L9.18664 12.6816L8.15675 13.2027L8.00496 13.0495C7.84176 12.8849 7.59555 12.8286 7.37796 12.9061L2.64631 14.5906C1.25826 15.0847 0.300963 16.3616 0.207197 17.8468L0.00212289 21.7012C-0.0164906 21.9963 0.0879777 22.2892 0.288771 22.5047C0.489239 22.7199 0.772211 22.8434 1.06505 22.8434H5.66491V23.4688C5.66491 23.7617 5.90149 24 6.19228 24H16.8076C17.0984 24 17.3349 23.7617 17.3349 23.4688V22.8434H21.9348C22.2276 22.8434 22.5106 22.7199 22.7111 22.5047C22.9119 22.2892 23.0163 21.9963 22.9979 21.7046ZM16.3515 7.41109C16.3515 7.53676 16.25 7.63905 16.1252 7.63905H15.8729V6.39048H16.3515V7.41109ZM10.0486 0.683204H12.9513C14.7466 0.683204 16.2072 2.15452 16.2072 3.96301V4.10265C16.202 4.09754 16.1964 4.0928 16.1911 4.08774C16.167 4.06473 16.1426 4.04209 16.1177 4.02001C16.1139 4.01668 16.1102 4.0134 16.1064 4.01012C15.6967 3.65035 15.1783 3.41321 14.6078 3.35701C14.6042 3.35663 14.6004 3.35649 14.5967 3.35616C14.5574 3.35246 14.5179 3.34927 14.4781 3.34726C14.4337 3.34501 14.3892 3.34383 14.3445 3.34383H8.65555C8.61083 3.34383 8.5663 3.34501 8.52195 3.34726C8.48216 3.34923 8.44266 3.35241 8.40333 3.35616C8.39966 3.35654 8.39589 3.35663 8.39221 3.35701C7.82166 3.41321 7.30337 3.65035 6.89364 4.01012C6.88987 4.0134 6.88605 4.01668 6.88233 4.02001C6.85744 4.04213 6.833 4.06473 6.80895 4.08774C6.80364 4.0928 6.79806 4.09754 6.7928 4.10265V3.96301H6.79271C6.79271 2.15452 8.25331 0.683204 10.0486 0.683204ZM7.12691 7.63905H6.87465C6.74985 7.63905 6.64836 7.53676 6.64836 7.41109V6.39048H7.12691V7.63905ZM6.67702 5.70728C6.74743 5.2922 6.94394 4.91996 7.22524 4.63192C7.23306 4.62395 7.24111 4.61617 7.24906 4.60834C7.25925 4.59826 7.2694 4.58818 7.27978 4.57834C7.29318 4.56563 7.30681 4.55321 7.32054 4.54093C7.32524 4.53671 7.32989 4.53249 7.33464 4.52832C7.3519 4.51318 7.36935 4.49823 7.38708 4.4837C7.3875 4.48332 7.38797 4.48299 7.38839 4.48262C7.65982 4.26029 7.98756 4.10959 8.33972 4.05254C8.34345 4.05193 8.34717 4.05132 8.35089 4.05076C8.37081 4.04766 8.39082 4.04495 8.41092 4.04241C8.42051 4.04124 8.43009 4.04016 8.43972 4.03909C8.45601 4.0373 8.47234 4.03562 8.48872 4.03426C8.5038 4.03299 8.51897 4.03205 8.53414 4.03112C8.54629 4.03037 8.55843 4.02948 8.57062 4.02896C8.59878 4.02779 8.62707 4.02704 8.6555 4.02704H14.3443C14.3727 4.02704 14.401 4.02779 14.4292 4.02896C14.4414 4.02948 14.4535 4.03037 14.4657 4.03112C14.4808 4.03205 14.496 4.03299 14.5111 4.03426C14.5275 4.03566 14.5438 4.0373 14.5601 4.03909C14.5697 4.04012 14.5793 4.0412 14.5889 4.04241C14.6089 4.0449 14.629 4.04762 14.6489 4.05076C14.6526 4.05132 14.6564 4.05198 14.6601 4.05254C15.0123 4.10954 15.34 4.26029 15.6114 4.48262C15.6118 4.48299 15.6123 4.48332 15.6127 4.4837C15.6305 4.49823 15.6479 4.51318 15.6652 4.52832C15.6699 4.53249 15.6746 4.53671 15.6793 4.54093C15.693 4.55321 15.7066 4.56568 15.72 4.57834C15.7304 4.58818 15.7406 4.59826 15.7507 4.60834C15.7587 4.61617 15.7668 4.62395 15.7746 4.63192C16.0558 4.91996 16.2523 5.2922 16.3228 5.70728H6.67702ZM7.8211 8.48041C7.82054 8.47558 7.82003 8.47075 7.81952 8.46592C7.81533 8.42772 7.81212 8.38966 7.8098 8.35174C7.80952 8.34691 7.8091 8.34203 7.80882 8.3372C7.80649 8.29506 7.80514 8.25311 7.80514 8.21148V6.39048H15.1948V8.20263C15.1948 8.2442 15.1935 8.28611 15.1911 8.3282C15.1908 8.33359 15.1903 8.33908 15.19 8.34447C15.1876 8.38145 15.1845 8.41863 15.1805 8.45594C15.1798 8.46199 15.1792 8.46799 15.1785 8.47403C15.025 9.80022 13.7956 11.2982 12.5442 11.6116L12.5 11.6227C11.59 11.8507 11.3596 11.8501 10.4461 11.6181C9.19874 11.3014 7.97313 9.80308 7.8211 8.48041ZM9.48445 13.2954C9.71331 13.2097 9.86477 12.992 9.86482 12.7434L9.86487 12.1416C10.0018 12.1979 10.1404 12.2451 10.2803 12.2807C10.7964 12.4117 11.1373 12.4771 11.479 12.4771C11.8167 12.4771 12.1551 12.4131 12.6637 12.2858L12.7079 12.2747C12.8517 12.2387 12.9942 12.1905 13.1348 12.1326L13.1349 12.7434C13.1349 12.992 13.2865 13.2098 13.5153 13.2955L14.3148 13.6998C14.3102 13.7035 14.3057 13.7071 14.3011 13.7108C14.2563 13.7471 14.2111 13.7827 14.1651 13.817C14.164 13.8179 14.1629 13.8187 14.1618 13.8195C14.1163 13.8534 14.0701 13.8862 14.0235 13.9182C14.0161 13.9234 14.0087 13.9285 14.0014 13.9336C13.956 13.9644 13.91 13.9942 13.8636 14.0233C13.8544 14.0291 13.8452 14.0348 13.836 14.0404C13.7893 14.0692 13.7422 14.0972 13.6945 14.1242C13.6872 14.1283 13.6798 14.1323 13.6725 14.1364C13.6247 14.1631 13.5765 14.189 13.5277 14.2139C13.5246 14.2155 13.5214 14.2172 13.5183 14.2188C13.4683 14.2442 13.4177 14.2683 13.3668 14.2917C13.3576 14.2959 13.3486 14.3002 13.3395 14.3043C13.2901 14.3266 13.2403 14.3479 13.1902 14.3684C13.1803 14.3724 13.1704 14.3764 13.1604 14.3803C13.1093 14.4008 13.0579 14.4205 13.006 14.4389C12.9997 14.4412 12.9933 14.4432 12.987 14.4455C12.9362 14.4634 12.8851 14.4803 12.8335 14.4963C12.8277 14.4981 12.8219 14.5001 12.816 14.5019C12.763 14.5181 12.7096 14.5332 12.6559 14.5474C12.6457 14.5501 12.6356 14.5528 12.6253 14.5554C12.5726 14.569 12.5195 14.5817 12.4662 14.5933C12.4563 14.5955 12.4464 14.5975 12.4365 14.5996C12.3813 14.6113 12.3259 14.6222 12.2702 14.6318C12.2662 14.6325 12.2622 14.633 12.2582 14.6337C12.2037 14.643 12.1488 14.6511 12.0938 14.6584C12.086 14.6594 12.0782 14.6606 12.0704 14.6615C12.0151 14.6685 11.9594 14.6743 11.9036 14.6793C11.893 14.6802 11.8823 14.6811 11.8717 14.682C11.8161 14.6865 11.7603 14.6901 11.7043 14.6926C11.6952 14.693 11.686 14.6933 11.6769 14.6936C11.6181 14.6959 11.5592 14.6974 11.5 14.6974C11.4408 14.6974 11.3819 14.6959 11.3231 14.6936C11.314 14.6933 11.3049 14.693 11.2959 14.6926C11.2398 14.6901 11.184 14.6865 11.1284 14.682C11.1178 14.6811 11.1073 14.6802 11.0968 14.6793C11.0407 14.6743 10.9849 14.6685 10.9293 14.6615C10.9221 14.6606 10.9149 14.6595 10.9077 14.6585C10.8517 14.6512 10.7959 14.6429 10.7404 14.6335C10.7372 14.633 10.7341 14.6325 10.731 14.632C10.6743 14.6223 10.618 14.6112 10.5619 14.5993C10.5532 14.5975 10.5445 14.5957 10.5359 14.5938C10.4812 14.5818 10.4268 14.5688 10.3727 14.5549C10.3645 14.5527 10.3563 14.5505 10.348 14.5483C10.2923 14.5336 10.2368 14.518 10.1817 14.5011C10.1793 14.5004 10.177 14.4996 10.1746 14.4988C10.1178 14.4813 10.0613 14.4626 10.0052 14.4427C10.0029 14.4419 10.0006 14.4411 9.99823 14.4403C9.94272 14.4206 9.88767 14.3996 9.83304 14.3777C9.82745 14.3754 9.82187 14.3732 9.81629 14.371C9.76198 14.3489 9.70805 14.3258 9.65467 14.3016C9.651 14.3 9.64737 14.2982 9.64369 14.2965C9.53164 14.2453 9.42159 14.1895 9.31395 14.1289C9.31367 14.1287 9.31335 14.1285 9.31307 14.1284C9.25956 14.0982 9.20665 14.0669 9.15434 14.0344C9.15174 14.0328 9.14913 14.0312 9.14653 14.0296C9.09422 13.997 9.04248 13.9634 8.99138 13.9286C8.99115 13.9284 8.99087 13.9282 8.99064 13.928C8.88729 13.8575 8.78659 13.7823 8.68873 13.7027C8.68752 13.7017 8.68635 13.7007 8.68514 13.6998L9.48445 13.2954ZM22.2165 22.0371C22.1427 22.1163 22.0426 22.16 21.9349 22.16H19.1338V18.1143C19.1338 17.9256 18.982 17.7726 18.7947 17.7726C18.6074 17.7726 18.4556 17.9256 18.4556 18.1143V22.16H17.3349V16.4838C17.3349 16.1909 17.0983 15.9526 16.8075 15.9526H6.19228V15.9526C5.90149 15.9526 5.66491 16.1909 5.66491 16.4839V18.7662C5.66491 18.9548 5.81675 19.1078 6.00405 19.1078C6.19135 19.1078 6.34319 18.9548 6.34319 18.7662V16.6358H9.80749V19.6018C9.80749 19.7228 9.87106 19.8348 9.97459 19.8962C10.0781 19.9575 10.2062 19.9592 10.3112 19.9004L11.4748 19.2496L12.6939 19.9033C12.7438 19.9301 12.7986 19.9433 12.8533 19.9433C12.9138 19.9433 12.9743 19.927 13.0279 19.8946C13.13 19.8328 13.1925 19.7217 13.1925 19.6017V16.6357H16.6568V23.3167H6.34314V21.1718C6.34314 20.9832 6.1913 20.8302 6.00401 20.8302C5.81671 20.8302 5.66487 20.9832 5.66487 21.1718V22.1601H4.54419V18.1144C4.54419 17.9257 4.39235 17.7727 4.20506 17.7727C4.01776 17.7727 3.86592 17.9257 3.86592 18.1144V22.1601H1.06505C0.957276 22.1601 0.857228 22.1164 0.783379 22.0372C0.709204 21.9575 0.672163 21.8536 0.679236 21.741L0.884311 17.8866C0.96058 16.6784 1.74095 15.6375 2.87237 15.2346L7.55879 13.5662L7.85163 13.8617C7.85168 13.8617 7.85172 13.8618 7.85182 13.8619C8.82251 14.8411 10.1181 15.3805 11.5 15.3805C11.6416 15.3805 11.7822 15.3745 11.9218 15.3633C13.1439 15.265 14.277 14.7408 15.1481 13.8619L15.1499 13.8601C15.1499 13.8601 15.1499 13.86 15.15 13.86V13.8599L15.4412 13.5662L20.1276 15.2346C21.259 15.6374 22.0394 16.6784 22.1154 17.8832L22.3208 21.7444C22.3277 21.8535 22.2907 21.9575 22.2165 22.0371ZM12.5142 16.6358V19.033L11.6308 18.5593C11.5809 18.5325 11.5262 18.5192 11.4714 18.5192C11.4147 18.5192 11.358 18.5336 11.3068 18.5622L10.4857 19.0214V16.6358H12.5142Z" transform="translate(23) scale(-1 1)" fill="white"/>
</svg>
