<svg width="25" height="18" viewBox="0 0 25 18" fill="none" xmlns="http://www.w3.org/2000/svg">
<path d="M23.2429 0H1.75708C0.788333 0 0 0.774 0 1.72514V16.2749C0 17.226 0.788333 18 1.75708 18H23.2429C24.2117 18 25 17.226 25 16.2749V1.72514C25 0.774 24.2117 0 23.2429 0ZM24.1667 16.2749C24.1667 16.7748 23.7525 17.1818 23.2429 17.1818H1.75708C1.2475 17.1818 0.833333 16.7748 0.833333 16.2749V1.72514C0.833333 1.22523 1.2475 0.818182 1.75708 0.818182H23.2429C23.7525 0.818182 24.1667 1.22523 24.1667 1.72514V16.2749Z" fill="white"/>
<path d="M0 3.27273H4.58333V0H0V3.27273ZM0.833333 0.818182H3.75V2.45455H0.833333V0.818182Z" transform="translate(2.08203 11.8636)" fill="white"/>
<path d="M0 3.27273H4.58333V0H0V3.27273ZM0.833333 0.818182H3.75V2.45455H0.833333V0.818182Z" transform="translate(7.49805 11.8636)" fill="white"/>
<path d="M0 3.27273H4.58333V0H0V3.27273ZM0.833333 0.818182H3.75V2.45455H0.833333V0.818182Z" transform="translate(12.9141 11.8636)" fill="white"/>
<path d="M0 3.27273H4.58333V0H0V3.27273ZM0.833333 0.818182H3.75V2.45455H0.833333V0.818182Z" transform="translate(18.3359 11.8636)" fill="white"/>
<path d="M0.939583 5.72727H3.43958H4.06042H6.56042C7.07833 5.72727 7.5 5.31327 7.5 4.80477V1.53205V0.9225C7.5 0.414 7.07833 0 6.56042 0H3.43958H0.939583C0.421667 0 0 0.414 0 0.9225V4.80477C0 5.31327 0.421667 5.72727 0.939583 5.72727ZM2.5 3.27273H0.833333V2.45455H2.5V3.27273ZM0.833333 4.80477V4.09091H2.5V4.80477C2.5 4.84036 2.50667 4.87432 2.51083 4.90909H0.939583C0.880833 4.90909 0.833333 4.86245 0.833333 4.80477ZM6.66667 3.27273H5V2.55886C5 2.50118 5.0475 2.45455 5.10625 2.45455H6.56042C6.59667 2.45455 6.63125 2.448 6.66667 2.44391V3.27273ZM6.56042 4.90909H4.98917C4.99333 4.87432 5 4.84036 5 4.80477V4.09091H6.66667V4.80477C6.66667 4.86245 6.61917 4.90909 6.56042 4.90909ZM6.56042 0.818182C6.61917 0.818182 6.66667 0.864818 6.66667 0.9225V1.53205C6.66667 1.58973 6.61917 1.63636 6.56042 1.63636H5.10625C4.58833 1.63636 4.16667 2.05036 4.16667 2.55886V4.80477C4.16667 4.86245 4.11917 4.90909 4.06042 4.90909H3.43958C3.38083 4.90909 3.33333 4.86245 3.33333 4.80477V0.9225C3.33333 0.864818 3.38083 0.818182 3.43958 0.818182H6.56042ZM0.939583 0.818182H2.51083C2.50667 0.852955 2.5 0.886909 2.5 0.9225V1.63636H0.833333V0.9225C0.833333 0.864818 0.880833 0.818182 0.939583 0.818182Z" transform="translate(2.08203 2.45459)" fill="white"/>
<path d="M0.416667 0.818182H4.16667C4.39708 0.818182 4.58333 0.634909 4.58333 0.409091C4.58333 0.183273 4.39708 0 4.16667 0H0.416667C0.18625 0 0 0.183273 0 0.409091C0 0.634909 0.18625 0.818182 0.416667 0.818182Z" transform="translate(12.9141 2.45459)" fill="white"/>
<path d="M4.16667 0H0.416667C0.18625 0 0 0.183273 0 0.409091C0 0.634909 0.18625 0.818182 0.416667 0.818182H4.16667C4.39708 0.818182 4.58333 0.634909 4.58333 0.409091C4.58333 0.183273 4.39708 0 4.16667 0Z" transform="translate(18.3359 2.45459)" fill="white"/>
<path d="M0.416667 0.818182H0.833333C1.06375 0.818182 1.25 0.634909 1.25 0.409091C1.25 0.183273 1.06375 0 0.833333 0H0.416667C0.18625 0 0 0.183273 0 0.409091C0 0.634909 0.18625 0.818182 0.416667 0.818182Z" transform="translate(12.9141 4.5)" fill="white"/>
<path d="M0.416667 0C0.18625 0 0 0.183273 0 0.409091C0 0.634909 0.18625 0.818182 0.416667 0.818182H1.25C1.48042 0.818182 1.66667 0.634909 1.66667 0.409091C1.66667 0.183273 1.48042 0 1.25 0H0.416667Z" transform="translate(15 4.5)" fill="white"/>
<path d="M1.25 0.409091C1.25 0.183273 1.06375 0 0.833333 0H0.416667C0.18625 0 0 0.183273 0 0.409091C0 0.634909 0.18625 0.818182 0.416667 0.818182H0.833333C1.06375 0.818182 1.25 0.634909 1.25 0.409091Z" transform="translate(17.502 4.5)" fill="white"/>
<path d="M1.25 0.818182C1.48042 0.818182 1.66667 0.634909 1.66667 0.409091C1.66667 0.183273 1.48042 0 1.25 0H0.416667C0.18625 0 0 0.183273 0 0.409091C0 0.634909 0.18625 0.818182 0.416667 0.818182H1.25Z" transform="translate(19.584 4.5)" fill="white"/>
<path d="M0.120834 0.113523C0.045417 0.19125 0 0.297614 0 0.403977C0 0.510341 0.045417 0.616704 0.120834 0.694431C0.199584 0.768068 0.30375 0.813068 0.416667 0.813068C0.525 0.813068 0.633333 0.768068 0.7125 0.694431C0.7875 0.616704 0.833333 0.510341 0.833333 0.403977C0.833333 0.297614 0.7875 0.19125 0.7125 0.113523C0.554166 -0.0378405 0.275 -0.0378405 0.120834 0.113523Z" transform="translate(22.084 4.50513)" fill="white"/>
</svg>
