<svg width="15" height="13" viewBox="0 0 15 13" fill="none" xmlns="http://www.w3.org/2000/svg">
<path d="M14.9566 0.24513C14.8816 0.0954646 14.7213 0 14.5454 0H0.454644C0.278677 0 0.11853 0.0954646 0.0434272 0.24513C-0.0316151 0.394796 -0.0080962 0.571705 0.103861 0.699371L5.52054 6.87659V12.5725C5.52054 12.7204 5.60183 12.8578 5.73543 12.9358C5.80865 12.9785 5.89175 13 5.97516 13C6.04408 13 6.11325 12.9852 6.17701 12.9555L9.22041 11.5373C9.37504 11.4652 9.47287 11.3171 9.47311 11.1548L9.47905 6.87676L14.896 0.699314C15.0081 0.571705 15.0316 0.394739 14.9566 0.24513ZM8.67396 6.45113C8.60698 6.5275 8.57024 6.62342 8.57012 6.72248L8.5643 10.8889L6.42984 11.8836V6.72304C6.42984 6.62382 6.39317 6.52767 6.32601 6.45113L1.41868 0.85485H13.5813L8.67396 6.45113Z" fill="white"/>
</svg>
