<svg width="42" height="26" viewBox="0 0 42 26" fill="none" xmlns="http://www.w3.org/2000/svg">
<path d="M20.9993 22.6376C23.5356 20.2694 25.1362 16.831 25.1362 13.012C25.1362 9.19213 23.5351 5.75563 20.9993 3.36127C18.783 1.27368 15.8303 1.70924e-07 12.5803 1.70924e-07C5.63904 1.70924e-07 1.31446e-07 5.83175 1.31446e-07 13.0115C1.31446e-07 20.1932 5.63904 25.9983 12.5803 25.9983C15.8305 25.9989 18.783 24.7262 20.9993 22.6376Z" fill="#009DDD"/>
<path d="M-2.10314e-07 19.2763C2.53635 16.9082 4.13692 13.4698 4.13692 9.65076C4.13692 5.83086 2.53586 2.39436 -2.10314e-07 9.16775e-07V19.2763Z" transform="translate(20.999 3.36143)" fill="#009DDD"/>
<path d="M12.2847 -1.0877e-07C9.03425 -1.0877e-07 6.07973 1.27368 3.8396 3.36127C3.39706 3.79381 2.97901 4.25244 2.58385 4.73729H5.11921C5.46453 5.16881 5.78462 5.65367 6.07973 6.11141H1.62321C1.35333 6.57004 1.10696 7.02918 0.884583 7.48654H6.7935C6.99151 7.94428 7.18718 8.40432 7.33498 8.86206H0.369807C0.221515 9.32031 0.0980811 9.77983 -8.41257e-07 10.2624H7.70479C7.87658 11.1284 7.97651 12.071 7.97651 13.012C7.97651 14.4381 7.75364 15.8393 7.3351 17.1377H0.369931C0.516377 17.5954 0.689035 18.0546 0.885199 18.5128H6.79411C6.57309 18.9715 6.35071 19.4549 6.07985 19.888H1.62334C1.92029 20.3719 2.23952 20.83 2.58385 21.2631H5.11921C4.72602 21.7471 4.30687 22.2057 3.8396 22.6382C6.07985 24.7268 9.03425 25.9995 12.2847 25.9995C19.2269 25.9995 24.8402 20.1943 24.8402 13.0127C24.8396 5.83188 19.2269 -1.0877e-07 12.2847 -1.0877e-07Z" transform="translate(17.1602 0.000473022)" fill="#ED1C2E"/>
<path d="M3.00449e-08 0.407206C3.00449e-08 0.177572 0.19801 -8.85698e-07 0.419033 -8.85698e-07C0.64104 -8.85698e-07 0.812715 0.177699 0.812715 0.407206C0.812715 0.637223 0.640917 0.840637 0.419033 0.840637C0.19801 0.840637 3.00449e-08 0.637223 3.00449e-08 0.407206ZM0.419033 0.738673C0.59083 0.738673 0.714141 0.585797 0.714141 0.407206C0.714141 0.229125 0.590707 0.101452 0.419033 0.101452C0.246374 0.101452 0.0999294 0.229125 0.0999294 0.407206C0.0999294 0.585797 0.246374 0.738673 0.419033 0.738673ZM0.369684 0.585797H0.271602V0.228999H0.418909C0.467273 0.228999 0.492626 0.228998 0.517854 0.254711C0.542221 0.279915 0.566219 0.304737 0.566219 0.330959C0.566219 0.382385 0.541852 0.433302 0.492504 0.433302L0.566219 0.585669H0.467273L0.418909 0.457996H0.369684V0.585797ZM0.369684 0.382386H0.418909C0.418909 0.382386 0.443276 0.382386 0.467273 0.382386C0.467273 0.382386 0.467273 0.356163 0.467273 0.330959V0.304737C0.442907 0.304737 0.418909 0.304737 0.394542 0.304737H0.369192V0.382386H0.369684Z" transform="translate(37.666 15.4063)" fill="white"/>
<path d="M6.81922 6.59487H5.24437L6.17953 1.5275L4.03834 6.59487H2.60908L2.36357 1.55271L1.4284 6.59487H-7.51123e-08L1.20689 8.23544e-07H3.66767L3.79062 4.07334L5.51609 8.23544e-07H8.04912L6.81922 6.59487Z" transform="translate(4.18555 9.65173)" fill="white"/>
<path d="M2.36467 6.51862C1.92127 6.64489 1.60119 6.69581 1.23138 6.69581C0.444386 6.69581 2.70404e-07 6.2886 2.70404e-07 5.52548C2.70404e-07 5.3721 0.0253507 5.21871 0.0492251 5.04063L0.147307 4.50575L0.22287 4.09905L0.936147 5.4385e-07H2.48663L2.2661 1.22124H3.07746L2.85644 2.52101H2.04421L1.65053 4.7611C1.62518 4.86306 1.60131 4.93969 1.60131 4.99022C1.60131 5.27077 1.77396 5.39692 2.14377 5.39692C2.31557 5.39692 2.46202 5.37172 2.56194 5.34639L2.36467 6.51862Z" transform="translate(26.1191 9.65208)" fill="white"/>
<path d="M4.06295 0.10247C3.93952 0.0505353 3.91565 0.0505347 3.89116 0.0505347C3.81658 0.0243125 3.76773 0.0243121 3.76773 -6.06004e-07C3.71752 -6.06004e-07 3.66878 -6.06004e-07 3.59593 -6.06004e-07C3.07783 -6.06004e-07 2.70901 0.229125 2.24075 0.864947L2.38806 0.0505347H0.959653L3.60539e-07 5.42365H1.57571C2.14168 2.13761 2.36356 1.55271 3.12619 1.55271C3.17542 1.55271 3.25049 1.57842 3.32334 1.57842L3.496 1.62895L4.06295 0.10247Z" transform="translate(28.9756 10.8233)" fill="white"/>
<path d="M0.590707 1.80614C0.590707 2.4687 0.960515 2.95215 1.7976 3.28413C2.43814 3.56328 2.53672 3.64042 2.53672 3.89526C2.53672 4.22584 2.24063 4.37922 1.62543 4.37922C1.15754 4.37922 0.713647 4.30259 0.197025 4.15061L-3.30494e-07 5.39845H0.0745768L0.344455 5.47419C0.442537 5.47419 0.589846 5.4999 0.762628 5.4999C1.13243 5.54993 1.42803 5.54993 1.64955 5.54993C3.29898 5.54993 4.08683 4.98984 4.08683 3.76809C4.08683 3.02929 3.76674 2.59688 2.95452 2.26579C2.28911 2.01096 2.21589 1.93471 2.21589 1.68C2.21589 1.40085 2.48663 1.24746 3.00374 1.24746C3.29885 1.24746 3.74139 1.27368 4.13519 1.3232L4.3572 0.101453C3.93903 0.0262231 3.32383 1.38309e-06 2.97852 1.38309e-06C1.20677 -0.00088966 0.590707 0.813523 0.590707 1.80614Z" transform="translate(21.6885 10.773)" fill="white"/>
<path d="M4.33222 5.47457H3.05162L3.07697 4.91347C2.68329 5.3469 2.14168 5.55031 1.42754 5.55031C0.591322 5.55031 8.41257e-07 4.96489 8.41257e-07 4.09905C8.41257e-07 2.79966 1.00802 2.03616 2.75737 2.03616C2.92818 2.03616 3.15056 2.03616 3.39693 2.06238C3.44616 1.8843 3.44616 1.80704 3.44616 1.7313C3.44616 1.37501 3.17443 1.24733 2.4363 1.24733C1.9929 1.24733 1.50199 1.29825 1.15668 1.37501L0.935656 1.45164L0.787363 1.47646L1.00839 0.280042C1.79723 0.0752293 2.28899 1.70924e-07 2.88068 1.70924e-07C4.23352 1.70924e-07 4.92342 0.533989 4.92342 1.5522C4.92342 1.83275 4.89905 2.03654 4.80097 2.62247L4.48088 4.53248L4.43165 4.86306L4.38145 5.14412L4.35708 5.32131L4.33222 5.47457ZM3.19991 3.08021C3.02627 3.055 2.95353 3.05501 2.85545 3.05501C1.96853 3.05501 1.52599 3.33505 1.52599 3.87044C1.52599 4.20101 1.72216 4.43052 2.06661 4.43052C2.70815 4.43052 3.17505 3.87044 3.19991 3.08021Z" transform="translate(11.7441 10.7721)" fill="white"/>
<path d="M4.2585 5.37363C3.71789 5.5265 3.20077 5.60224 2.6583 5.60224C0.912642 5.60224 -4.50674e-08 4.76161 -4.50674e-08 3.18306C-4.50674e-08 1.34929 1.15766 -6.83697e-07 2.73337 -6.83697e-07C4.01299 -6.83697e-07 4.82718 0.764005 4.82718 1.93522C4.82718 2.34192 4.77697 2.72583 4.65452 3.25982H1.52649C1.52649 3.36127 1.52649 3.38647 1.52649 3.43841C1.52649 4.04954 1.96988 4.38011 2.8808 4.38011C3.44714 4.38011 3.96389 4.27866 4.50488 4.05004L4.2585 5.37363ZM3.42229 2.19146C3.42229 2.08911 3.42229 1.98664 3.42229 1.91091C3.42229 1.47837 3.15056 1.22264 2.68366 1.22264C2.19091 1.22264 1.84645 1.57893 1.69779 2.19146H3.42229Z" transform="translate(16.9619 10.7448)" fill="white"/>
<path d="M5.51339 3.08263C5.26702 4.86395 4.06099 5.65367 2.45993 5.65367C0.713279 5.65367 -1.35202e-06 4.5596 -1.35202e-06 3.18459C-1.35202e-06 1.29991 1.20504 1.24308e-07 3.07598 1.24308e-07C4.70104 1.24308e-07 5.56261 1.06976 5.56261 2.41956C5.56311 2.75256 5.56311 2.77738 5.51339 3.08263ZM3.88919 2.39436C3.88919 1.83428 3.66718 1.32651 3.0286 1.32651C2.2389 1.32651 1.74714 2.29291 1.74714 3.15926C1.74714 3.87273 2.09246 4.35618 2.63406 4.35618C2.97852 4.35618 3.71715 3.87273 3.84009 3.05781C3.88919 2.85312 3.88919 2.62489 3.88919 2.39436Z" transform="translate(32.3984 10.7189)" fill="white"/>
</svg>
