<svg width="43" height="26" viewBox="0 0 43 26" fill="none" xmlns="http://www.w3.org/2000/svg">
<path d="M12.7868 2.16847e-07C5.7209 0.0447659 -2.12758e-07 5.81871 -2.12758e-07 12.9255C-2.12758e-07 20.0603 5.7651 25.8503 12.8693 25.8503C16.2018 25.8503 19.2411 24.5744 21.5278 22.4825L21.5273 22.4821H21.5291C21.9982 22.0536 22.4351 21.5901 22.8361 21.0978H20.2001C19.8478 20.6711 19.5276 20.2252 19.2403 19.7657H23.7869C24.0646 19.3217 24.3139 18.8604 24.5372 18.3827H18.4905C18.2841 17.9387 18.105 17.4862 17.9524 17.0249H25.0753C25.5056 15.7363 25.7376 14.3573 25.7376 12.9255C25.7376 11.9746 25.6346 11.0493 25.4414 10.1568H17.5744C17.6726 9.69733 17.795 9.24399 17.9409 8.79953H25.0674C24.9082 8.32534 24.723 7.86407 24.5125 7.41558H18.4897C18.7068 6.94898 18.953 6.49658 19.2276 6.05781H23.7715C23.4687 5.57344 23.1344 5.11086 22.7731 4.67481H20.2397C20.6319 4.21081 21.0625 3.77441 21.5298 3.36986C19.2439 1.27701 16.2043 0.000355305 12.8701 0.000355305C12.8411 2.16728e-08 12.8137 2.16847e-07 12.7868 2.16847e-07Z" fill="#931B1D"/>
<path d="M25.7374 12.9296C25.7387 20.0671 19.9803 25.8548 12.8711 25.8569C5.76498 25.8591 0.00212831 20.0736 1.36286e-06 12.9349V12.9296C-0.00224375 5.78993 5.75801 0.00177751 12.8654 1.09642e-06C19.9724 -0.00260431 25.7357 5.7833 25.7375 12.9225C25.7374 12.9225 25.7374 12.9257 25.7374 12.9296Z" transform="translate(17.2627)" fill="#F16622"/>
<path d="M25.7374 12.9287C25.7387 20.0666 19.9803 25.8552 12.8711 25.8565C5.76498 25.8591 0.00212831 20.0729 1.36286e-06 12.9354V12.9287C-0.00224375 5.7904 5.75801 0.00177727 12.8654 8.57887e-07C19.9724 -0.00260455 25.7357 5.7833 25.7375 12.922C25.7374 12.9221 25.7374 12.9261 25.7374 12.9287Z" transform="translate(17.2627 0.143402)" fill="#F7981D"/>
<path d="M12.7868 0.000118457C5.7209 0.0457131 -2.12758e-07 5.81835 -2.12758e-07 12.9257C-2.12758e-07 20.0609 5.7651 25.8512 12.8693 25.8512C16.2018 25.8512 19.2411 24.5746 21.5278 22.483L21.5273 22.4817H21.5291C21.9982 22.0536 22.4351 21.5915 22.8361 21.0974H20.2001C19.8478 20.6715 19.5276 20.2266 19.2403 19.7671H23.7869C24.0646 19.3227 24.3139 18.8601 24.5372 18.3828H18.4905C18.2841 17.9384 18.105 17.486 17.9524 17.0255H25.0753C25.5056 15.736 25.7376 14.3575 25.7376 12.9257C25.7376 11.9752 25.6346 11.0494 25.4414 10.1574H17.5744C17.6726 9.69839 17.795 9.24411 17.9409 8.80012H25.0674C24.9082 8.32558 24.723 7.86419 24.5125 7.41535H18.4897C18.7068 6.95052 18.953 6.49635 19.2276 6.05805H23.7715C23.4687 5.57415 23.1344 5.11193 22.7731 4.6741H20.2397C20.6319 4.21105 21.0625 3.77453 21.5298 3.36915C19.2439 1.27665 16.2043 9.39673e-08 12.8701 9.39673e-08C12.8411 0.000118522 12.8137 0.000118457 12.7868 0.000118457Z" transform="translate(0 0.146225)" fill="#CB2026"/>
<path d="M2.11856 6.05769L2.29061 4.88822C2.1969 4.88822 2.05889 4.92813 1.9373 4.92813C1.46062 4.92813 1.40757 4.67375 1.43853 4.48545L1.82362 2.0983H2.54832L2.72344 0.803886H2.04034L2.17965 1.44565e-08H0.809067C0.779408 0.0300806 -7.35639e-07 4.52571 -7.35639e-07 5.07202C-7.35639e-07 5.88254 0.452331 6.24362 1.0916 6.2383C1.59108 6.23368 1.98149 6.09499 2.11856 6.05769Z" transform="translate(15.3779 10.3057)" fill="white"/>
<path d="M4.32729e-07 3.17576C4.32729e-07 5.12069 1.27735 5.58327 2.36635 5.58327C3.37181 5.58327 3.8135 5.35684 3.8135 5.35684L4.05538 4.02926C4.05538 4.02926 3.29098 4.36962 2.60031 4.36962C1.12929 4.36962 1.38713 3.26718 1.38713 3.26718H4.17213C4.17213 3.26718 4.35115 2.37471 4.35115 2.01137C4.35115 1.10517 3.90106 7.22825e-07 2.39731 7.22825e-07C1.01916 0.000356006 4.32729e-07 1.49053 4.32729e-07 3.17576ZM2.4031 1.23177C3.17601 1.23177 3.03315 2.1047 3.03315 2.17516H1.51214C1.51167 2.08527 1.65548 1.23177 2.4031 1.23177Z" transform="translate(17.9307 10.957)" fill="white"/>
<path d="M3.66438 6.62887L3.90981 5.12709C3.90981 5.12709 3.23734 5.46745 2.77614 5.46745C1.80436 5.46745 1.41478 4.72029 1.41478 3.9209C1.41478 2.29548 2.2509 1.40124 3.18251 1.40124C3.88027 1.40124 4.44084 1.7956 4.44084 1.7956L4.66416 0.338584C4.66416 0.338584 3.83336 2.4576e-07 3.12154 2.4576e-07C1.53956 2.4576e-07 1.52898e-06 1.37684 1.52898e-06 3.96733C1.52898e-06 5.68228 0.831639 6.81705 2.46667 6.81705C2.92858 6.81729 3.66438 6.62887 3.66438 6.62887Z" transform="translate(25.3457 9.73447)" fill="white"/>
<path d="M2.54584 8.2402e-07C1.60632 8.2402e-07 0.885993 0.302702 0.885993 0.302702L0.687478 1.48852C0.687478 1.48852 1.28255 1.24657 2.1806 1.24657C2.69083 1.24657 3.06352 1.30377 3.06352 1.72075C3.06352 1.97336 3.01802 2.0668 3.01802 2.0668C3.01802 2.0668 2.61615 2.03269 2.42957 2.03269C1.24509 2.03269 2.38001e-07 2.54051 2.38001e-07 4.07284C2.38001e-07 5.27903 0.816158 5.55639 1.32249 5.55639C2.28943 5.55639 2.70501 4.92671 2.72805 4.92398L2.68291 5.4504H3.88913L4.4276 1.65941C4.4276 0.0517529 3.03078 8.2402e-07 2.54584 8.2402e-07ZM2.83983 3.08504C2.86595 3.3168 2.69485 4.40243 1.86983 4.40243C1.44444 4.40243 1.33348 4.07545 1.33348 3.88218C1.33348 3.50593 1.53731 3.05354 2.54182 3.05354C2.77484 3.05354 2.80001 3.07924 2.83983 3.08504Z" transform="translate(7.41504 10.9786)" fill="white"/>
<path d="M1.53731 5.51873C1.84548 5.51873 3.60967 5.59807 3.60967 3.76967C3.60967 2.06005 1.97688 2.39733 1.97688 1.71045C1.97688 1.36973 2.2431 1.26066 2.72935 1.26066C2.92255 1.26066 3.6658 1.32319 3.6658 1.32319L3.83914 0.107296C3.83914 0.107296 3.3581 -3.75869e-07 2.5755 -3.75869e-07C1.56083 -3.75869e-07 0.5328 0.405023 0.5328 1.79596C0.5328 3.37306 2.2483 3.21353 2.2483 3.87732C2.2483 4.32048 1.76856 4.35683 1.39894 4.35683C0.760502 4.35683 0.185281 4.13656 0.182564 4.14674L5.91396e-07 5.3489C0.0319048 5.36015 0.387341 5.51873 1.53731 5.51873Z" transform="translate(11.5879 10.9875)" fill="white"/>
<path d="M3.91997 0.00296156L3.62503 1.84463C3.62503 1.84463 3.10901 1.12992 2.30219 1.12992C1.0461 1.12992 -1.75977e-06 2.64982 -1.75977e-06 4.3971C-1.75977e-06 5.52489 0.557496 6.62875 1.6992 6.62875C2.5202 6.62875 2.9743 6.05402 2.9743 6.05402L2.91463 6.54455H4.24728L5.29469 -2.16847e-07L3.91997 0.00296156ZM3.28413 3.59546C3.28413 4.32178 2.92515 5.2917 2.18272 5.2917C1.68927 5.2917 1.45897 4.87602 1.45897 4.22372C1.45897 3.15752 1.93564 2.45204 2.53686 2.45204C3.03079 2.45216 3.28413 2.79335 3.28413 3.59546Z" transform="translate(36.4395 9.88492)" fill="white"/>
<path d="M1.32025 6.55165L2.15543 1.61073L2.27702 6.55165H3.22138L4.98238 1.61073L4.20203 6.55165H5.60451L6.68559 5.63803e-07H4.51611L3.16537 4.0192L3.09507 5.63803e-07H1.09609L-6.13033e-08 6.55165H1.32025Z" transform="translate(1.2207 9.88351)" fill="white"/>
<path d="M1.40698 5.40338C1.80578 3.12614 1.87963 1.27606 2.83203 1.61334C2.99876 0.732356 3.15923 0.391641 3.34049 0.0181202C3.34049 0.0181202 3.25565 8.09564e-07 3.07604 8.09564e-07C2.46372 8.09564e-07 2.00867 0.841902 2.00867 0.841902L2.12979 0.0690432H0.853734L-3.46183e-07 5.40338H1.40698Z" transform="translate(22.2451 11.0407)" fill="white"/>
<path d="M2.54584 8.2402e-07C1.60632 8.2402e-07 0.886464 0.302702 0.886464 0.302702L0.688422 1.48852C0.688422 1.48852 1.2822 1.24657 2.18107 1.24657C2.69083 1.24657 3.06446 1.30377 3.06446 1.72075C3.06446 1.97336 3.0185 2.0668 3.0185 2.0668C3.0185 2.0668 2.61662 2.03269 2.42862 2.03269C1.24367 2.03269 8.3661e-07 2.54051 8.3661e-07 4.07284C8.3661e-07 5.27903 0.81663 5.55639 1.32249 5.55639C2.28942 5.55639 2.70548 4.92671 2.72758 4.92398L2.68291 5.4504H3.88995L4.42807 1.65941C4.42855 0.0517529 3.0322 8.2402e-07 2.54584 8.2402e-07ZM2.84031 3.08504C2.86642 3.3168 2.69615 4.40243 1.86983 4.40243C1.44491 4.40243 1.33478 4.07545 1.33478 3.88218C1.33478 3.50593 1.53861 3.05354 2.54135 3.05354C2.77579 3.05354 2.80013 3.07924 2.84031 3.08504Z" transform="translate(29.625 10.9786)" fill="white"/>
<path d="M1.40674 5.40338C1.80602 3.12614 1.87987 1.27606 2.83215 1.61334C2.99888 0.732356 3.15935 0.391641 3.34156 0.0181202C3.34156 0.0181202 3.2553 8.09564e-07 3.07675 8.09564e-07C2.46265 8.09564e-07 2.00902 0.841902 2.00902 0.841902L2.13108 0.0690432H0.854205L1.47128e-06 5.40302H1.40686V5.40338H1.40674Z" transform="translate(33.748 11.0407)" fill="white"/>
</svg>
