<svg width="13" height="14" viewBox="0 0 13 14" fill="none" xmlns="http://www.w3.org/2000/svg">
<path d="M12.0712 9.32765L6.67631 4.00437C6.29862 3.61953 5.83747 3.42715 5.29274 3.42715C4.78511 3.42715 4.35499 3.60121 4.00208 3.9494C3.64908 4.29752 3.4727 4.72209 3.4727 5.223C3.4727 5.76053 3.66771 6.21561 4.0577 6.58819L7.86487 10.3447C7.92673 10.4058 7.995 10.4363 8.06921 10.4363C8.16828 10.4363 8.31376 10.3415 8.50551 10.1523C8.69737 9.96299 8.79321 9.81932 8.79321 9.72157C8.79321 9.64844 8.76241 9.58121 8.70049 9.52007L4.89345 5.76354C4.7387 5.59859 4.66133 5.41843 4.66133 5.223C4.66133 5.04576 4.7201 4.8992 4.83774 4.78316C4.95531 4.66708 5.10397 4.6091 5.2835 4.6091C5.49396 4.6091 5.67963 4.6823 5.84066 4.82889L11.2355 10.1522C11.6257 10.5369 11.8207 10.9797 11.8207 11.4805C11.8207 11.8716 11.6905 12.1953 11.4307 12.4518C11.1705 12.7083 10.8426 12.8368 10.4462 12.8368C9.93859 12.8368 9.48983 12.6441 9.10004 12.2593L1.89422 5.1403C1.42374 4.6761 1.18863 4.12327 1.18863 3.48189C1.18863 2.83439 1.4145 2.28155 1.86644 1.82348C2.31832 1.36548 2.87232 1.13638 3.52858 1.13638C4.15992 1.13638 4.7201 1.37154 5.20915 1.84171L10.8363 7.40318C10.8981 7.46434 10.9693 7.49467 11.0498 7.49467C11.1489 7.49467 11.2929 7.40154 11.4816 7.21528C11.6704 7.02903 11.7646 6.88702 11.7646 6.78931C11.7646 6.71611 11.7338 6.64884 11.672 6.58777L6.05414 1.03539C5.34227 0.345173 4.49735 0 3.51924 0C2.53496 0 1.7024 0.339075 1.02146 1.01707C0.340454 1.69509 0 2.51974 0 3.49088C0 4.44373 0.34969 5.27139 1.0492 5.97384L8.26422 13.0839C8.88324 13.6945 9.61049 14 10.4462 14C11.1705 14 11.7773 13.7586 12.2662 13.2761C12.7553 12.7937 13 12.195 13 11.4801C12.9998 10.6434 12.6902 9.92587 12.0712 9.32765Z" fill="#042567"/>
</svg>
