<svg width="30" height="28" viewBox="0 0 30 28" fill="none" xmlns="http://www.w3.org/2000/svg">
<path d="M27.2269 1.28384C26.9118 0.855891 26.5966 0.427946 26.2815 1.16606e-07L8.82353 9.72048L0.378151 5.01308C0.189076 5.56329 0.0630252 6.05238 7.51319e-09 6.60259L8.88655 11.5545L27.2269 1.28384Z" transform="translate(0.31543 4.15704)" fill="#1A9F29"/>
<path d="M9.13866 10.6986L0.0630252 5.62443C4.69574e-09 5.93011 7.51319e-09 6.29692 7.51319e-09 6.60259C7.51319e-09 14.6113 6.68067 21.1527 15 21.1527C23.2563 21.1527 30 14.6724 30 6.60259C30 4.21832 29.4328 1.95632 28.3613 -1.16606e-07L9.13866 10.6986Z" transform="translate(0 6.84717)" fill="#1A9F29"/>
<path d="M24.2017 1.10043C23.7605 0.672486 23.3193 0.366811 22.8782 0L7.94118 8.37551L0.756303 4.40173C0.504202 4.82967 0.252101 5.31875 3.00528e-08 5.80784L7.87815 10.2096L24.2017 1.10043Z" transform="translate(1.19727 1.83403)" fill="#1A9F29"/>
<path d="M19.7269 0.855892C19.1597 0.550216 18.5924 0.24454 17.9622 0L6.30252 6.54146L1.07143 3.66811C0.693277 4.03492 0.378151 4.46286 1.20211e-07 4.89081L6.2395 8.37551L19.7269 0.855892Z" transform="translate(2.83594)" fill="#1A9F29"/>
</svg>
