<svg width="6" height="11" viewBox="0 0 6 11" fill="none" xmlns="http://www.w3.org/2000/svg">
<path d="M3.38 2.756C3.38 4.212 1.17 4.082 1.469 6.24H3.237C3.068 4.927 5.473 4.849 5.473 2.327C5.473 1.053 4.42 0 2.626 0C1.404 0 0.468 0.585 0 1.339L1.144 2.652C1.521 2.171 1.859 1.95 2.522 1.95C3.003 1.95 3.38 2.34 3.38 2.756ZM1.131 8.008C1.131 8.697 1.625 9.334 2.457 9.334C3.185 9.334 3.679 8.697 3.679 8.008C3.679 7.423 3.185 6.786 2.457 6.786C1.625 6.786 1.131 7.423 1.131 8.008Z" transform="translate(0.390625 0.744141)" fill="#A8A8A8"/>
</svg>
