<svg width="15" height="15" viewBox="0 0 15 15" fill="none" xmlns="http://www.w3.org/2000/svg">
<path d="M10.5317 8.22674C9.73858 8.22674 9.02593 8.56689 8.54883 9.10164L4.94349 7.20318C5.0145 6.97929 5.05297 6.74153 5.05297 6.4973C5.05297 6.25041 5.0144 6.01397 4.94127 5.78841L8.54262 3.89319C9.01761 4.43074 9.73311 4.77326 10.5289 4.77326C11.948 4.77326 13.1193 3.68229 13.1193 2.32413C13.1193 0.96606 11.951 -0.125 10.5289 -0.125C9.10674 -0.125 7.93844 0.96606 7.93844 2.32413C7.93844 2.57048 7.97684 2.80873 8.04992 3.03317L4.45183 4.92811C3.97663 4.38807 3.26092 4.04817 2.46542 4.04817C1.04626 4.04817 -0.125 5.13914 -0.125 6.4973C-0.125 7.85555 1.04636 8.94643 2.46828 8.94643C3.26432 8.94643 3.97991 8.60367 4.4573 8.06368L8.0587 9.9615C7.98506 10.1878 7.94416 10.4284 7.94416 10.6759C7.94416 12.0311 9.11237 13.125 10.5346 13.125C11.9567 13.125 13.125 12.0339 13.125 10.6759C13.125 9.31762 11.9536 8.22674 10.5317 8.22674ZM10.5317 0.85652C11.4032 0.85652 12.099 1.52273 12.099 2.32683C12.099 3.13093 11.4032 3.79713 10.5317 3.79713C9.66022 3.79713 8.96443 3.13093 8.96443 2.32683C8.96443 1.52286 9.66294 0.85652 10.5317 0.85652ZM2.46828 7.96761C1.59678 7.96761 0.900991 7.3014 0.900991 6.4973C0.900991 5.6932 1.59678 5.02699 2.46828 5.02699C3.33978 5.02699 4.03557 5.6932 4.03557 6.4973C4.03557 7.30127 3.33706 7.96761 2.46828 7.96761ZM10.5317 12.1435C9.66022 12.1435 8.96443 11.4773 8.96443 10.6732C8.96443 9.86907 9.66022 9.20286 10.5317 9.20286C11.4032 9.20286 12.099 9.86907 12.099 10.6732C12.099 11.4773 11.4032 12.1435 10.5317 12.1435Z" transform="translate(1 1)" fill="#A8A8A8" stroke="#A8A8A8" stroke-width="0.25"/>
</svg>
