<svg width="22" height="19" viewBox="0 0 22 19" fill="none" xmlns="http://www.w3.org/2000/svg">
<path d="M2.74314 -1.97986e-08C1.23055 -1.97986e-08 -1.25886e-07 1.16124 -1.25886e-07 2.58856C-1.25886e-07 4.01587 1.23059 5.17712 2.74314 5.17712C4.25569 5.17712 5.48628 4.01587 5.48628 2.58856C5.48628 1.16124 4.25569 -1.97986e-08 2.74314 -1.97986e-08ZM2.74314 3.62398C2.13801 3.62398 1.64589 3.15959 1.64589 2.58856C1.64589 2.01753 2.13801 1.55313 2.74314 1.55313C3.34827 1.55313 3.8404 2.01753 3.8404 2.58856C3.8404 3.15959 3.34827 3.62398 2.74314 3.62398Z" transform="translate(14.6758 13.823)" fill="white"/>
<path d="M21.8251 3.81837C21.6693 3.63019 21.4304 3.52042 21.1772 3.52042H5.0798L4.33914 0.596131C4.25054 0.246692 3.91942 4.52954e-10 3.53867 4.52954e-10H0.822943C0.368416 -4.05471e-05 0 0.347614 0 0.776527C0 1.20544 0.368416 1.55309 0.822943 1.55309H2.88911L5.56367 12.1134C5.65227 12.4632 5.98339 12.7096 6.36414 12.7096H19.1747C19.553 12.7096 19.8827 12.4662 19.9735 12.1199L21.976 4.48359C22.0366 4.2517 21.9809 4.00655 21.8251 3.81837ZM18.5309 11.1565H7.0137L5.47313 5.07356H20.1257L18.5309 11.1565Z" fill="white"/>
<path d="M2.74314 -1.97986e-08C1.23055 -1.97986e-08 -1.04905e-08 1.16124 -1.04905e-08 2.58856C-1.04905e-08 4.01587 1.23059 5.17712 2.74314 5.17712C4.25569 5.17712 5.48628 4.01587 5.48628 2.58856C5.48628 1.16124 4.25569 -1.97986e-08 2.74314 -1.97986e-08ZM2.74314 3.62398C2.13801 3.62398 1.64588 3.15959 1.64588 2.58856C1.64588 2.01753 2.13801 1.55313 2.74314 1.55313C3.34827 1.55313 3.8404 2.01753 3.8404 2.58856C3.8404 3.15959 3.34827 3.62398 2.74314 3.62398Z" transform="translate(5.5 13.823)" fill="white"/>
</svg>
