<svg width="15" height="15" viewBox="0 0 15 15" fill="none" xmlns="http://www.w3.org/2000/svg">
<path d="M2.53867 8.72191L2.53846 8.72167C1.47125 7.44422 0.74928 6.24414 0.270227 4.94883C-0.0421823 4.11065 -0.166298 3.40767 -0.113047 2.74037L-0.113005 2.73984C-0.0672335 2.19552 0.154042 1.72347 0.542541 1.33643L1.55382 0.328975L1.55594 0.326864L1.55596 0.32689C1.86457 0.0338154 2.22415 -0.125 2.60465 -0.125C2.98709 -0.125 3.34412 0.0332304 3.64251 0.324169C3.82856 0.495965 4.01663 0.686094 4.19487 0.86905L4.20214 0.876504C4.29159 0.968239 4.37797 1.05682 4.46937 1.14787L5.27474 1.9502C5.27481 1.95027 5.27488 1.95034 5.27495 1.95041C5.58845 2.25995 5.76078 2.62716 5.76078 3.00891C5.76078 3.39119 5.58529 3.75824 5.27514 4.06721C5.19119 4.15085 5.1081 4.23363 5.02782 4.31627L5.02741 4.3167C4.81766 4.53057 4.59928 4.75086 4.36725 4.96384C4.54073 5.34067 4.78448 5.71879 5.14096 6.16837C5.89889 7.09406 6.6893 7.81158 7.55752 8.36079L7.55762 8.36086C7.64079 8.41358 7.73555 8.46222 7.84386 8.51617L7.84526 8.51687C7.9051 8.54667 7.96932 8.57866 8.03411 8.61331L8.93561 7.71522C9.23868 7.41329 9.60169 7.24508 9.98644 7.24508C10.371 7.24508 10.7318 7.41319 11.0273 7.71876L12.6515 9.33685C12.9621 9.64621 13.1242 10.0115 13.125 10.3865C13.1257 10.7612 12.9653 11.1306 12.6588 11.4489M2.53867 8.72191L12.5687 11.3622M2.53867 8.72191C3.83696 10.268 5.40037 11.4858 7.18487 12.3475L7.18586 12.348C7.86208 12.6673 8.78025 13.0531 9.80805 13.1194L9.80805 13.1194L9.81068 13.1195L9.81897 13.1199C9.87783 13.1224 9.93749 13.125 9.99996 13.125C10.7058 13.125 11.2798 12.8804 11.7449 12.3782M2.53867 8.72191L11.767 12.3516M12.6588 11.4489L12.5687 11.3622M12.6588 11.4489C12.6588 11.4489 12.6588 11.4489 12.6588 11.4489L12.5687 11.3622M12.6588 11.4489C12.5327 11.5799 12.4016 11.7078 12.274 11.8295M12.5687 11.3622C12.4443 11.4915 12.3145 11.6181 12.1875 11.7393M12.274 11.8295C12.2741 11.8294 12.2743 11.8293 12.2744 11.8292L12.1875 11.7393M12.274 11.8295C12.2617 11.8415 12.2494 11.8534 12.2371 11.8652C12.0655 12.0311 11.9072 12.184 11.767 12.3516M12.274 11.8295C12.2739 11.8296 12.2738 11.8297 12.2737 11.8298L12.1875 11.7393M12.1875 11.7393L11.767 12.3516M11.767 12.3516C11.7704 12.3466 11.774 12.3407 11.7773 12.3341L11.6656 12.2781L11.7617 12.358C11.7635 12.3559 11.7652 12.3537 11.767 12.3516ZM11.767 12.3516C11.7622 12.3587 11.7578 12.364 11.7549 12.3673C11.751 12.372 11.7472 12.3759 11.7449 12.3782M11.7449 12.3782C11.7455 12.3776 11.746 12.377 11.7466 12.3764L11.6548 12.2915L11.743 12.3801C11.7433 12.3798 11.744 12.3791 11.7449 12.3782ZM3.00227 0.982206L3.00237 0.982107C2.8651 0.842954 2.72775 0.784967 2.60465 0.784967C2.47741 0.784967 2.3342 0.844238 2.19454 0.978285L1.18947 1.97956C0.95103 2.2171 0.825803 2.48847 0.795871 2.8175C0.75469 3.33446 0.854586 3.91047 1.12902 4.64043L1.12918 4.64084C1.57213 5.83178 2.24267 6.94564 3.24408 8.14655C4.45763 9.59299 5.91974 10.732 7.58518 11.535C8.20162 11.8273 9.00808 12.1629 9.86974 12.218C9.86983 12.218 9.86992 12.218 9.87002 12.218L3.00227 0.982206ZM3.00227 0.982206L3.00663 0.986228M3.00227 0.982206L3.00663 0.986228M3.00663 0.986228C3.16137 1.12888 3.30805 1.27746 3.46489 1.43632C3.48885 1.4606 3.51306 1.48511 3.53756 1.50989C3.5838 1.5573 3.63066 1.60466 3.67748 1.65198L3.67828 1.65279C3.72505 1.70005 3.7718 1.74729 3.81849 1.79514L3.81849 1.79515M3.00663 0.986228L3.81849 1.79515M3.81849 1.79515L3.81973 1.79639M3.81849 1.79515L3.81973 1.79639M3.81973 1.79639L4.62551 2.59912C4.78001 2.75304 4.8429 2.89278 4.8429 3.0143C4.8429 3.13582 4.78001 3.27555 4.62551 3.42947C4.58323 3.4716 4.541 3.51434 4.49919 3.55667L4.49907 3.55679C4.4571 3.59927 4.41554 3.64134 4.37404 3.68268L4.37357 3.68316M3.81973 1.79639L4.37357 3.68316M4.37357 3.68316C4.35474 3.70212 4.33602 3.72098 4.3174 3.73974C4.08636 3.97258 3.87001 4.19061 3.63329 4.39942L3.63313 4.39925M4.37357 3.68316L3.63313 4.39925M3.63313 4.39925L3.62775 4.40461M3.63313 4.39925L3.62775 4.40461M3.62775 4.40461L3.61423 4.41808C3.48419 4.54763 3.42261 4.68183 3.40635 4.81356C3.3905 4.94208 3.41935 5.05655 3.44872 5.1443C3.45138 5.15227 3.45402 5.15878 3.45531 5.16199L3.45683 5.16585L3.45651 5.16596M3.62775 4.40461L3.45651 5.16596M3.45651 5.16596L3.46003 5.17438M3.45651 5.16596L3.46003 5.17438M3.46003 5.17438C3.67374 5.6859 3.96986 6.16992 4.42676 6.7423L4.42676 6.7423M3.46003 5.17438L4.42676 6.7423M4.42676 6.7423L4.42751 6.74322M4.42676 6.7423L4.42751 6.74322M4.42751 6.74322C5.24589 7.74875 6.11004 8.53129 7.06368 9.13471C7.16651 9.20135 7.27583 9.25639 7.37428 9.30596C7.39373 9.31575 7.41276 9.32533 7.43122 9.33475L7.43225 9.33526L4.42751 6.74322ZM7.81517 9.40116C7.80976 9.39847 7.80503 9.39577 7.80029 9.39308C7.79556 9.39038 7.79083 9.38769 7.78542 9.385L12.0074 9.98813C12.0074 9.98811 12.0073 9.98808 12.0073 9.98806L12.0955 9.8995M7.81517 9.40116L7.75809 9.51237C7.75828 9.51247 7.75847 9.51257 7.75866 9.51266C7.75892 9.51279 7.75918 9.51292 7.75944 9.51305L7.81517 9.40116ZM7.81517 9.40116C7.9044 9.44695 7.99092 9.4685 8.07745 9.4685C8.29377 9.4685 8.43437 9.33112 8.48034 9.28533L9.49162 8.27787C9.64845 8.12163 9.8188 8.03813 9.98644 8.03813C10.1919 8.03813 10.3596 8.16473 10.465 8.27787L12.0955 9.8995M12.0955 9.8995C12.42 10.2228 12.4173 10.5729 12.0874 10.915L12.0955 9.8995Z" transform="translate(1.1543 0.669434) rotate(2.13865)" fill="#A8A8A8" stroke="#A8A8A8" stroke-width="0.25"/>
</svg>
