<svg width="14" height="15" viewBox="0 0 14 15" fill="none" xmlns="http://www.w3.org/2000/svg">
<path d="M13.5535 8.38347C13.8513 7.93865 14 7.449 14 6.91416C14 6.29512 13.7693 5.75744 13.3076 5.30027C12.8457 4.84358 12.2988 4.61528 11.6669 4.61528H10.0627C10.3543 4.02039 10.5003 3.44341 10.5003 2.88461C10.5003 2.18146 10.3937 1.62263 10.1812 1.20796C9.96849 0.793161 9.65853 0.488267 9.25136 0.292865C8.8441 0.0975586 8.38547 0 7.87506 0C7.565 0 7.29166 0.111166 7.05469 0.333594C6.79345 0.585952 6.60506 0.910547 6.48965 1.30719C6.37418 1.70371 6.28147 2.08387 6.21165 2.44746C6.14183 2.81101 6.03386 3.06792 5.88809 3.21814C5.59027 3.53664 5.26521 3.92135 4.91276 4.37201C4.29904 5.15918 3.88275 5.62496 3.66409 5.76925H1.16669C0.844632 5.76925 0.569632 5.88209 0.341754 6.10726C0.113971 6.33266 3.02022e-08 6.60459 3.02022e-08 6.92313V12.6921C3.02022e-08 13.0107 0.113843 13.2825 0.341754 13.5079C0.56976 13.7333 0.844632 13.8461 1.16669 13.8461H3.79157C3.92527 13.8461 4.34447 13.9662 5.04937 14.2066C5.79682 14.4651 6.4546 14.6618 7.0227 14.7971C7.59086 14.9323 8.16662 15 8.75002 15H9.59746H9.92577C10.7825 15 11.4721 14.758 11.9948 14.2742C12.5172 13.7903 12.7756 13.1308 12.7696 12.2955C13.1342 11.8328 13.3164 11.2979 13.3164 10.691C13.3164 10.5589 13.3075 10.4297 13.2891 10.3034C13.5199 9.90091 13.6356 9.46821 13.6356 9.00545C13.6355 8.78908 13.6083 8.58165 13.5535 8.38347ZM2.16022 12.521C2.04478 12.6351 1.90807 12.6923 1.75008 12.6923C1.59205 12.6923 1.45532 12.6351 1.33985 12.521C1.22444 12.4069 1.16669 12.2716 1.16669 12.1153C1.16669 11.959 1.22431 11.8239 1.33985 11.7097C1.45545 11.5955 1.59205 11.5384 1.75008 11.5384C1.90807 11.5384 2.04478 11.5955 2.16022 11.7097C2.27569 11.8239 2.33344 11.959 2.33344 12.1153C2.33344 12.2716 2.27569 12.4069 2.16022 12.521ZM12.6378 7.65374C12.5071 7.93013 12.3445 8.07135 12.1501 8.07728C12.2412 8.17948 12.3172 8.32235 12.378 8.50547C12.4387 8.68881 12.4689 8.85551 12.4689 9.00583C12.4689 9.42028 12.3081 9.77793 11.986 10.0783C12.0955 10.2705 12.1501 10.478 12.1501 10.7002C12.1501 10.9226 12.097 11.1434 11.9906 11.3627C11.8844 11.5818 11.74 11.7396 11.5578 11.8357C11.5881 12.016 11.6032 12.1843 11.6032 12.3405C11.6032 13.344 11.0198 13.8458 9.85298 13.8458H8.75043C7.95423 13.8458 6.9153 13.6266 5.63305 13.1878C5.60262 13.1758 5.51464 13.1441 5.36871 13.0932C5.22278 13.0422 5.11497 13.0046 5.04506 12.9806C4.97514 12.9564 4.8689 12.9218 4.726 12.8769C4.58314 12.8317 4.46783 12.7986 4.37965 12.7777C4.2916 12.7567 4.19127 12.7372 4.07895 12.7191C3.96658 12.7011 3.87084 12.6921 3.79186 12.6921H3.50019V6.92335H3.79186C3.88907 6.92335 3.99691 6.89623 4.11541 6.84227C4.23388 6.78815 4.35549 6.70704 4.48002 6.59885C4.60463 6.49065 4.7215 6.384 4.83094 6.27877C4.94035 6.17363 5.06185 6.04144 5.19558 5.88225C5.32925 5.72293 5.43406 5.59529 5.51007 5.49912C5.58599 5.40298 5.68167 5.27972 5.79714 5.1295C5.91255 4.97931 5.9825 4.88914 6.00679 4.85905C6.34095 4.45047 6.57489 4.17706 6.70856 4.03877C6.9577 3.78044 7.13846 3.45143 7.25086 3.05179C7.3634 2.65208 7.45604 2.27498 7.5287 1.92048C7.60156 1.56596 7.71716 1.31047 7.87534 1.15422C8.45854 1.15422 8.84755 1.29538 9.04194 1.57786C9.23629 1.86028 9.33354 2.29601 9.33354 2.88493C9.33354 3.23945 9.18758 3.72169 8.89585 4.3316C8.60425 4.94158 8.45854 5.42085 8.45854 5.76938H11.6668C11.971 5.76938 12.2412 5.88499 12.4781 6.11648C12.7152 6.34781 12.8339 6.61668 12.8339 6.92325C12.8338 7.13356 12.7684 7.37698 12.6378 7.65374Z" fill="#042567"/>
</svg>
