<svg width="44" height="13" viewBox="0 0 44 13" fill="none" xmlns="http://www.w3.org/2000/svg">
<path d="M2.66423e-07 12.2513L2.23492 -5.19278e-07H5.72698L3.56191 12.2513H2.66423e-07Z" transform="translate(16.1338 0.408524)" fill="#3C58BF"/>
<path d="M2.66423e-07 12.2513L2.86349 -5.19278e-07H5.72698L3.56191 12.2513H2.66423e-07Z" transform="translate(16.1338 0.408524)" fill="#293688"/>
<path d="M10.6857 0.544503C9.9873 0.272251 8.86984 5.19278e-07 7.47302 5.19278e-07C3.98095 5.19278e-07 1.46667 1.70157 1.46667 4.15183C1.46667 5.98953 3.2127 6.94241 4.60952 7.55497C6.00635 8.16754 6.4254 8.57592 6.4254 9.12042C6.4254 9.93717 5.30794 10.3456 4.33016 10.3456C2.93333 10.3456 2.16508 10.1414 0.977779 9.66492L0.488889 9.46073L0 12.2513C0.838095 12.5916 2.3746 12.9319 3.98095 12.9319C7.68254 12.9319 10.127 11.2304 10.127 8.64398C10.127 7.21466 9.21905 6.12565 7.12381 5.24084C5.86667 4.62827 5.09841 4.28796 5.09841 3.67539C5.09841 3.13089 5.72698 2.58639 7.12381 2.58639C8.31111 2.58639 9.14921 2.79058 9.77778 3.06283L10.127 3.19895L10.6857 0.544503Z" transform="translate(21.6504)" fill="#3C58BF"/>
<path d="M10.6857 0.544503C9.9873 0.272251 8.86984 5.19278e-07 7.47302 5.19278e-07C3.98095 5.19278e-07 2.09524 1.70157 2.09524 4.15183C2.09524 5.98953 3.2127 6.94241 4.60952 7.55497C6.00635 8.16754 6.4254 8.57592 6.4254 9.12042C6.4254 9.93717 5.30794 10.3456 4.33016 10.3456C2.93333 10.3456 2.16508 10.1414 0.977779 9.66492L0.488889 9.46073L0 12.2513C0.838095 12.5916 2.3746 12.9319 3.98095 12.9319C7.68254 12.9319 10.127 11.2304 10.127 8.64398C10.127 7.21466 9.21905 6.12565 7.12381 5.24084C5.86667 4.62827 5.09841 4.28796 5.09841 3.67539C5.09841 3.13089 5.72698 2.58639 7.12381 2.58639C8.31111 2.58639 9.14921 2.79058 9.77778 3.06283L10.127 3.19895L10.6857 0.544503Z" transform="translate(21.6504)" fill="#293688"/>
<path d="M7.05397 -5.19278e-07C6.21587 -5.19278e-07 5.5873 0.0680631 5.23809 0.884817L-5.32847e-07 12.2513H3.77143L4.46984 10.2094H8.93968L9.35873 12.2513H12.7111L9.77778 -5.19278e-07H7.05397ZM5.44762 8.16754C5.65714 7.55497 6.84444 4.56021 6.84444 4.56021C6.84444 4.56021 7.12381 3.81152 7.33333 3.33508L7.54286 4.49215C7.54286 4.49215 8.24127 7.55498 8.38095 8.2356H5.44762V8.16754Z" transform="translate(31.2891 0.408524)" fill="#3C58BF"/>
<path d="M7.89206 -5.19278e-07C7.05397 -5.19278e-07 6.4254 0.0680631 6.07619 0.884817L-5.32847e-07 12.2513H3.77143L4.46984 10.2094H8.93968L9.35873 12.2513H12.7111L9.77778 -5.19278e-07H7.89206ZM5.44762 8.16754C5.72698 7.48691 6.84444 4.56021 6.84444 4.56021C6.84444 4.56021 7.12381 3.81152 7.33333 3.33508L7.54286 4.49215C7.54286 4.49215 8.24127 7.55498 8.38095 8.2356H5.44762V8.16754Z" transform="translate(31.2891 0.408524)" fill="#293688"/>
<path d="M5.2381 8.50786L4.88889 6.73822C4.26032 4.69633 2.23492 2.45026 6.66058e-08 1.36126L3.14286 12.2513H6.91429L12.5714 -2.59639e-07H8.8L5.2381 8.50786Z" transform="translate(4.46973 0.476532)" fill="#3C58BF"/>
<path d="M5.2381 8.50786L4.88889 6.73822C4.26032 4.69633 2.23492 2.45026 6.66058e-08 1.36126L3.14286 12.2513H6.91429L12.5714 -2.59639e-07H9.49841L5.2381 8.50786Z" transform="translate(4.46973 0.476532)" fill="#293688"/>
<path d="M0 -5.19278e-07L0.628571 0.136126C5.09841 1.15707 8.17143 3.74345 9.35873 6.80628L8.10159 1.02094C7.89206 0.204188 7.26349 -5.19278e-07 6.49524 -5.19278e-07H0Z" transform="translate(0 0.408524)" fill="#FFBC00"/>
<path d="M0 -5.19278e-07C4.46984 1.02094 8.17143 3.67539 9.35873 6.73822L8.17143 1.90576C7.96191 1.08901 7.26349 0.612566 6.49524 0.612566L0 -5.19278e-07Z" transform="translate(0 0.408524)" fill="#F7981D"/>
<path d="M0 -5.19278e-07C4.46984 1.02094 8.17143 3.67539 9.35873 6.73822L8.52064 4.08377C8.31111 3.26702 8.03175 2.45026 7.05397 2.10995L0 -5.19278e-07Z" transform="translate(0 0.408524)" fill="#ED7C00"/>
<path d="M8.66032 6.80628L6.28571 4.49215L5.16825 7.07854L4.88889 5.37696C4.26032 3.33508 2.23492 1.089 0 -5.19278e-07L3.14286 10.8901H6.91428L8.66032 6.80628Z" transform="translate(4.54004 1.76964)" fill="#051244"/>
<path d="M3.56191 2.99476L0.55873 1.03856e-06L2.66423e-07 2.99476H3.56191Z" transform="translate(16.1338 9.66487)" fill="#051244"/>
<path d="M6.07619 -1.03856e-06C6.35556 0.27225 6.49524 0.47644 6.4254 0.748692C6.4254 1.56545 5.30794 1.97382 4.33016 1.97382C2.93333 1.97382 2.16508 1.76963 0.977779 1.29319L0.488889 1.08901L0 3.87958C0.838095 4.2199 2.3746 4.56021 3.98095 4.56021C6.21587 4.56021 8.03175 3.94764 9.07936 2.85864L6.07619 -1.03856e-06Z" transform="translate(21.6514 8.43977)" fill="#051244"/>
<path d="M0 8.91623H3.28254L3.98095 6.87435H8.45079L8.86984 8.91623H12.2222L11.0349 3.94764L6.84444 5.19278e-07L7.05397 1.089C7.05397 1.089 7.75238 4.15183 7.89206 4.83246H4.95873C5.23809 4.15183 6.35555 1.22513 6.35555 1.22513C6.35555 1.22513 6.63492 0.47644 6.84444 5.19278e-07" transform="translate(31.7783 3.74341)" fill="#051244"/>
</svg>
