<svg width="13" height="17" viewBox="0 0 13 17" fill="none" xmlns="http://www.w3.org/2000/svg">
<path d="M1.69235 3.40827C2.66561 3.40827 3.45969 2.62833 3.45969 1.66661C3.45969 0.704897 2.6656 -0.075 1.69235 -0.075C0.719085 -0.075 -0.0750003 0.704938 -0.0750003 1.66665C-0.0750003 2.62837 0.719087 3.40827 1.69235 3.40827ZM1.69235 0.908307C2.11887 0.908307 2.4635 1.24972 2.4635 1.66661C2.4635 2.08351 2.11883 2.42492 1.69235 2.42492C1.26582 2.42492 0.921193 2.08351 0.921193 1.66661C0.921193 1.24972 1.26582 0.908307 1.69235 0.908307Z" transform="translate(7.34668 1)" fill="#042567" stroke="#042567" stroke-width="0.15"/>
<path d="M10.8527 4.464L10.8528 4.46404C11.0814 4.61448 11.1445 4.91982 10.991 5.1465C10.991 5.14651 10.991 5.14651 10.991 5.14651L10.1448 6.39649L10.1448 6.39662C10.0044 6.60306 9.72973 6.67188 9.50847 6.56338L9.50835 6.56333L7.81602 5.73003L7.81601 5.73002L7.84914 5.66273C7.76731 5.62246 7.70123 5.55696 7.6599 5.47637L10.8527 4.464ZM10.8527 4.464L9.69354 3.7031L8.69198 1.72836L8.69185 1.72811C8.50361 1.36037 8.18948 1.06932 7.80728 0.907898L7.80727 0.907894L5.81422 0.0664506C5.81421 0.0664438 5.81419 0.0664371 5.81417 0.0664304L10.8527 4.464ZM7.54032 11.0483V8.75416L5.91348 5.95104L5.91338 5.95088C5.83818 5.82054 5.82747 5.66325 5.88407 5.52386L5.88407 5.52385L6.73022 3.44057C6.73022 3.44057 6.73022 3.44056 6.73022 3.44056C6.80342 3.2603 6.97596 3.14032 7.17175 3.13221L7.17271 3.13217L7.17271 3.13218C7.37169 3.1265 7.54956 3.2298 7.63753 3.40307C7.63753 3.40307 7.63753 3.40307 7.63753 3.40307L8.40958 4.92334L9.56061 5.4901L9.88544 5.00992L9.03177 4.44943L9.03169 4.44938C8.95974 4.402 8.90133 4.33684 8.86236 4.26054L8.86227 4.26037L7.80127 2.16975C7.72017 2.01002 7.58243 1.88235 7.41509 1.81183L7.41504 1.81181L5.42192 0.970342L5.42187 0.970321C5.21327 0.882076 4.97649 0.889698 4.7726 0.989335C4.77258 0.989347 4.77256 0.989358 4.77253 0.989369L2.94552 1.88899L1.96025 4.79833H2.68484L3.7696 2.18671L3.76961 2.18671C3.87414 1.9351 4.1642 1.81648 4.41866 1.91797L4.41886 1.91805C4.67348 2.02046 4.79615 2.30766 4.69151 2.55999L4.69149 2.56003L1.16567 11.0482H1.808L4.20825 6.31983L7.54032 11.0483ZM7.54032 11.0483H6.84413V9.45662C6.84413 9.37105 6.82167 9.28692 6.77873 9.21244L6.77863 9.21227L5.08628 6.29563L5.08624 6.29555C4.99237 6.13424 4.82153 6.0597 4.64692 6.04847L4.64694 6.04814L4.63995 6.04835C4.457 6.05361 4.2905 6.15702 4.20833 6.31967L7.54032 11.0483ZM6.89791 5.66869L7.24274 4.82003L5.78498 0.135517C5.32555 -0.0589722 4.80576 -0.043113 4.3612 0.17661L4.32807 0.109325L4.32805 0.109336C4.32802 0.109348 4.328 0.109361 4.32797 0.109374L2.31595 1.10013L2.31573 1.10024C2.19843 1.15848 2.10778 1.26039 2.06571 1.38418L2.06568 1.38426L0.796433 5.13421L0.796431 5.13421C0.745651 5.28428 0.771015 5.44978 0.865675 5.57821C0.959312 5.70634 1.10913 5.78176 1.26907 5.78176H2.27638L-0.0380647 11.3533L-0.0381681 11.3535C-0.1006 11.5054 -0.0830141 11.678 0.00964951 11.8144L0.00972276 11.8145C0.10235 11.9504 0.257083 12.0316 0.42288 12.0316H2.11523C2.3034 12.0316 2.47566 11.927 2.56053 11.7603L2.56058 11.7603L4.68291 7.57961L5.84798 9.58751V11.5399C5.84798 11.8128 6.07188 12.0316 6.34607 12.0316H8.03838C8.31257 12.0316 8.53647 11.8128 8.53647 11.5399V8.62331C8.53647 8.53775 8.51402 8.45362 8.47108 8.37914L8.47097 8.37895L6.89791 5.66869Z" transform="translate(1 4.04297)" fill="#042567" stroke="#042567" stroke-width="0.15"/>
</svg>
