<svg width="21" height="21" viewBox="0 0 21 21" fill="none" xmlns="http://www.w3.org/2000/svg">
<path d="M21 9.78266H19.9822V5.14785C19.9822 4.03669 19.0691 3.13273 17.9467 3.13273H16.5682L15.1576 0.621893C14.9426 0.238172 14.5334 0 14.0897 0C13.8829 0 13.6777 0.0528016 13.4965 0.152322L8.08277 3.13267H2.03555C0.913126 3.13267 -3.62466e-10 4.03663 -3.62466e-10 5.14778V18.9849C-3.62466e-10 20.096 0.913126 21 2.03555 21H17.9467C19.0691 21 19.9822 20.096 19.9822 18.9849V14.9212H21V9.78266ZM17.9467 3.93874C18.5736 3.93874 19.0858 4.41025 19.1546 5.01358H17.6246L17.0213 3.93874H17.9467ZM13.8926 0.856804C14.0836 0.750824 14.3405 0.824947 14.4459 1.0132L16.6931 5.01321H6.34197L13.8926 0.856804ZM19.168 18.9849C19.168 19.6515 18.62 20.194 17.9466 20.194H2.03555C1.36218 20.194 0.81418 19.6515 0.81418 18.9849V5.14785C0.81418 4.48124 1.36218 3.93874 2.03555 3.93874H6.61879L4.66629 5.01365H2.29C2.06487 5.01365 1.88288 5.19419 1.88288 5.41668C1.88288 5.63918 2.06487 5.81972 2.29 5.81972H3.20193H18.0774H19.168V9.78304H16.1908C14.8082 9.78304 13.683 10.897 13.683 12.2657V12.439C13.683 13.8077 14.8083 14.9216 16.1908 14.9216H19.168V18.9849ZM20.1858 14.1152H19.9822H16.1908C15.2569 14.1152 14.4972 13.3631 14.4972 12.4385V12.2652C14.4972 11.3407 15.2568 10.5886 16.1908 10.5886H19.9822H20.1858V14.1152ZM17.4378 12.385C17.4378 12.8767 17.0355 13.2748 16.5389 13.2748C16.0422 13.2748 15.64 12.8766 15.64 12.385C15.64 11.8933 16.0423 11.4951 16.5389 11.4951C17.0356 11.4951 17.4378 11.8937 17.4378 12.385Z" fill="white"/>
</svg>
